<svg width="250" height="250" viewBox="0 0 250 250" fill="none" xmlns="http://www.w3.org/2000/svg">
<path d="M0 0H250V250H0V0Z" fill="#2B2828"/>
<path d="M40.1128 76.8898C39.6097 78.0763 39.3581 79.8983 39.3581 82.3559V83.9449C39.3581 86.7839 39.2743 90.2161 39.1066 94.2415C38.9389 98.2669 38.855 101.742 38.855 104.665C38.855 110.64 40.3015 113.627 43.1944 113.627L45.5843 113.5C46.3809 113.458 47.3661 113.436 48.5401 113.436C53.152 113.436 55.458 114.708 55.458 117.25C55.458 118.14 55.0597 118.903 54.2631 119.538C53.5084 120.174 52.607 120.555 51.5588 120.682C48.4143 119.665 44.578 119.157 40.0499 119.157C38.7083 119.962 37.2408 120.364 35.6476 120.364C34.6833 120.364 33.8238 119.919 33.0691 119.03C32.3564 118.14 32 117.165 32 116.106C32 109.199 32.2725 99.4958 32.8176 86.9958C33.3626 74.5805 33.6352 64.8983 33.6352 57.9492V56.9958C33.132 51.572 32.8805 47.5042 32.8805 44.7924C32.8805 36.572 34.3689 32.4619 37.3456 32.4619C38.2261 32.4619 38.9808 32.7797 39.6097 33.4153C40.2805 34.0508 40.6159 34.8136 40.6159 35.7034C40.6159 36.9322 40.4692 38.5847 40.1757 40.661C39.8822 42.7373 39.7355 44.3898 39.7355 45.6186C39.7355 49.0932 39.7984 54.3051 39.9241 61.2542C40.0499 68.161 40.1128 73.3729 40.1128 76.8898Z" fill="white"/>
<path d="M149.667 56.2966C150.17 59.8559 150.422 63.7119 150.422 67.8644V68.8178L150.673 83.5636C150.673 108.521 144.95 121 133.504 121C131.198 121 129.102 120.301 127.215 118.903C125.329 117.504 123.819 115.555 122.687 113.055C120.256 107.928 118.683 102.165 117.971 95.767C117.258 89.8347 116.901 84.178 116.901 78.7966C116.901 77.7373 116.922 76.8686 116.964 76.1907C117.006 75.5127 117.027 74.7288 117.027 73.839C117.027 73.4153 116.964 73.2034 116.839 73.2034V70.8517C116.839 70.1737 116.881 68.3093 116.964 65.2585C116.964 63.9025 116.985 62.7373 117.027 61.7627C117.069 59.4322 117.153 57.3559 117.279 55.5339C117.447 53.7119 117.698 51.339 118.034 48.4153C118.285 46.0424 118.641 43.9449 119.103 42.1229C119.564 40.2585 120.172 38.3305 120.926 36.339C121.555 34.6017 122.352 33.2881 123.316 32.3983C124.281 31.4661 125.35 31 126.524 31C129.962 31 133.064 31.6356 135.831 32.9068C138.599 34.178 140.905 35.9364 142.749 38.1822C144.468 40.3432 145.915 42.9915 147.089 46.1271C148.305 49.2627 149.164 52.6525 149.667 56.2966ZM136.775 39.6441C135.182 38.5 133.4 37.928 131.429 37.928C128.494 37.928 126.545 39.6017 125.58 42.9492C125.119 44.517 124.805 46.1059 124.637 47.7161C124.469 49.2839 124.385 51.1483 124.385 53.3093C124.385 54.9619 124.406 56.3602 124.448 57.5042C124.49 58.6483 124.511 59.8136 124.511 61C124.511 62.0593 124.406 64.072 124.197 67.0381C123.987 70.0042 123.882 71.9958 123.882 73.0127C123.882 76.1483 124.05 80.7881 124.385 86.9322C124.721 93.4576 125.559 99.7924 126.901 105.936C127.53 108.945 128.368 111.318 129.417 113.055C130.507 114.75 131.702 115.597 133.001 115.597C134.511 115.597 135.894 114.983 137.152 113.754C138.452 112.483 139.479 110.746 140.234 108.542C141.743 104.178 142.728 99.4322 143.189 94.3051C143.567 89.7288 143.756 85.8729 143.756 82.7373C143.756 79.0508 143.483 73.9661 142.938 67.4831C142.351 60.4915 142.058 55.4703 142.058 52.4195V50.1314C141.974 48.0127 141.471 46.0212 140.548 44.1568C139.626 42.25 138.368 40.7458 136.775 39.6441Z" fill="white"/>
<path d="M91.9973 35.5764C93.842 36.4239 94.7644 37.3773 94.7644 38.4366C94.7644 39.3264 94.4081 40.1315 93.6953 40.8519C92.9826 41.5298 92.0811 42.0807 90.991 42.5044C87.0499 41.1908 83.8006 40.3646 81.2431 40.0256C81.3689 41.8476 81.4318 43.712 81.4318 45.6188C81.4318 48.1612 81.3479 51.2756 81.1802 54.962C80.9706 59.5383 80.8658 62.6527 80.8658 64.3053L81.2431 66.3392L83.3184 66.212C84.0312 66.1697 84.8697 66.1485 85.8341 66.1485C89.9848 66.1485 92.0602 67.3349 92.0602 69.7078C92.0602 70.64 91.6619 71.4663 90.8652 72.1866C90.1106 72.8646 89.1463 73.2036 87.9723 73.2036C86.7145 73.2036 85.4986 73.1188 84.3247 72.9493H81.0544C81.306 76.2544 81.4318 79.5383 81.4318 82.801C81.4318 85.9366 81.3479 89.8561 81.1802 94.5595C80.9706 100.407 80.8658 104.348 80.8658 106.382C80.8658 111.254 80.9496 113.691 81.1173 113.691L85.3309 113.5L90.6137 113.373C93.884 113.373 95.5191 114.432 95.5191 116.551C95.5191 117.78 94.9741 118.712 93.884 119.348C92.8358 119.983 91.5361 120.301 89.9848 120.301H79.1048C77.9309 120.301 76.8827 119.898 75.9603 119.093C75.0799 118.331 74.6187 117.398 74.5767 116.297V112.865C74.5767 111.932 74.5558 111.064 74.5139 110.259L74.3881 107.526C74.3881 106.127 74.2833 103.352 74.0736 99.1993C73.864 95.0891 73.7592 92.3137 73.7592 90.873C73.7592 86.0849 73.9059 79.7502 74.1994 71.8688C74.4929 63.9875 74.6396 57.6527 74.6396 52.8646C74.6396 51.9324 74.5348 50.0892 74.3252 47.3349C74.0736 44.9197 73.9478 43.0976 73.9478 41.8688C73.9478 35.7247 75.7507 32.6527 79.3564 32.6527C80.9915 32.6527 83.0459 32.9281 85.5196 33.479C88.0352 33.9875 90.1944 34.6866 91.9973 35.5764Z" fill="white"/>
<path d="M118.76 142.793C120.625 143.65 121.557 144.614 121.557 145.686C121.557 146.586 121.197 147.4 120.476 148.129C119.756 148.814 118.845 149.371 117.743 149.8C113.76 148.471 110.476 147.636 107.891 147.293C108.018 149.136 108.081 151.021 108.081 152.95C108.081 155.521 107.997 158.671 107.827 162.4C107.615 167.029 107.509 170.179 107.509 171.85L107.891 173.907L109.988 173.779C110.709 173.736 111.556 173.714 112.531 173.714C116.726 173.714 118.824 174.914 118.824 177.314C118.824 178.257 118.421 179.093 117.616 179.821C116.853 180.507 115.878 180.85 114.692 180.85C113.421 180.85 112.192 180.764 111.005 180.593H107.7C107.954 183.936 108.081 187.257 108.081 190.557C108.081 193.729 107.997 197.693 107.827 202.45C107.615 208.364 107.509 212.35 107.509 214.407C107.509 219.336 107.594 221.8 107.763 221.8L112.022 221.607L117.362 221.479C120.667 221.479 122.32 222.55 122.32 224.693C122.32 225.936 121.769 226.879 120.667 227.521C119.608 228.164 118.294 228.486 116.726 228.486H105.729C104.543 228.486 103.484 228.079 102.551 227.264C101.661 226.493 101.195 225.55 101.153 224.436V220.964C101.153 220.021 101.132 219.143 101.089 218.329L100.962 215.564C100.962 214.15 100.856 211.343 100.644 207.143C100.432 202.986 100.327 200.179 100.327 198.721C100.327 193.879 100.475 187.471 100.771 179.5C101.068 171.529 101.216 165.121 101.216 160.279C101.216 159.336 101.11 157.471 100.899 154.686C100.644 152.243 100.517 150.4 100.517 149.157C100.517 142.943 102.339 139.836 105.984 139.836C107.636 139.836 109.713 140.114 112.213 140.671C114.756 141.186 116.938 141.893 118.76 142.793Z" fill="white"/>
<path d="M169.484 228.036C168.933 228.679 168.234 229 167.386 229C165.564 229 163.827 226.879 162.174 222.636C160.521 218.564 159.165 213.893 158.106 208.621L157.216 204.186C154.801 191.714 153.212 184.536 152.449 182.65H150.86C150.86 185.221 150.839 187.557 150.796 189.657C150.754 191.757 150.733 194.179 150.733 196.921C150.733 208.536 151.559 217.686 153.212 224.371L151.75 227.907H148.126L146.41 225.979L146.537 217.171C146.537 209.757 146.177 197.779 145.457 181.236C144.694 165.164 144.313 153.164 144.313 145.236C144.313 141.079 145.753 139 148.635 139C151.686 139 154.419 139.557 156.835 140.671C159.292 141.743 161.221 143.329 162.619 145.429C164.017 147.486 164.717 149.971 164.717 152.886V162.143C164.717 163.386 164.483 164.843 164.017 166.514C163.551 168.186 163.064 169.621 162.555 170.821L160.076 175.579L158.042 179.436L160.521 191.971C161.708 198.529 162.873 203.95 164.017 208.236C165.162 212.479 166.539 216.357 168.149 219.871L168.975 221.543C169.441 222.443 169.78 223.214 169.992 223.857C170.204 224.457 170.31 225.057 170.31 225.657C170.31 226.6 170.035 227.393 169.484 228.036ZM157.343 163.879C157.936 160.964 158.233 158.393 158.233 156.164C158.233 154.536 158.169 153.164 158.042 152.05C157.915 150.893 157.661 149.629 157.28 148.257C156.856 146.886 156.135 145.836 155.118 145.107C154.144 144.336 152.894 143.929 151.368 143.886L151.178 144.657C151.008 145.129 150.923 145.493 150.923 145.75C150.923 150.121 151.008 155.307 151.178 161.307C151.347 167.35 151.432 172.3 151.432 176.157C152.703 175.471 153.847 173.971 154.864 171.657C155.924 169.343 156.75 166.75 157.343 163.879Z" fill="white"/>
<path d="M188.553 155.843C188.044 150.057 187.79 146.136 187.79 144.079C187.79 142.964 188.256 141.979 189.189 141.121C190.163 140.221 191.223 139.771 192.367 139.771C195.375 139.771 198.299 140.479 201.139 141.893C203.978 143.264 206.478 145.15 208.639 147.55C210.8 149.95 212.665 152.671 214.233 155.714C215.801 158.714 216.987 161.843 217.792 165.1C218.597 168.314 219 171.55 219 174.807L218.873 177.957L218.746 181.429V188.693C218.746 191.65 218.703 194.05 218.619 195.893C218.576 197.693 218.428 199.707 218.174 201.936C217.919 204.293 217.559 206.371 217.093 208.171C216.627 209.929 215.97 211.793 215.123 213.764C214.275 215.693 213.258 217.429 212.072 218.971C210.927 220.471 209.465 221.993 207.686 223.536C205.863 225.036 203.851 226.364 201.647 227.521H192.24C190.036 227.521 188.934 221.779 188.934 210.293C188.934 205.621 188.998 198.7 189.125 189.529C189.252 180.314 189.316 173.414 189.316 168.829C189.316 166 189.061 161.671 188.553 155.843ZM197.071 188.629C197.706 201.529 198.024 211.214 198.024 217.686V220.836C199.719 220.836 201.308 220.364 202.791 219.421C204.274 218.479 205.524 217.236 206.542 215.693C207.431 214.279 208.237 212.543 208.957 210.486C209.677 208.386 210.249 206.264 210.673 204.121C211.055 202.236 211.351 200.157 211.563 197.886C211.817 195.614 211.987 193.643 212.072 191.971C212.114 190.943 212.135 189.421 212.135 187.407C212.135 160.921 207.092 147.079 197.007 145.879C196.371 149.35 196.054 153.914 196.054 159.571C196.054 166.429 196.392 176.114 197.071 188.629Z" fill="white"/>
<path d="M61.4403 200.579C63.7888 209.263 65.2776 214.461 65.9067 216.171C67.6261 197.136 68.4859 174.351 68.4859 147.816C68.4859 147.202 68.4649 146.61 68.4229 146.039L68.2971 144.197C68.2971 141.522 69.3666 140.184 71.5054 140.184C72.6797 140.184 73.5813 140.689 74.2104 141.697C74.8395 142.706 75.154 143.956 75.154 145.447V155.645C75.0701 163.583 74.8185 172.991 74.3991 183.868C74.0217 194.746 73.4765 204.461 72.7635 213.013C72.0925 221.522 71.3376 226.478 70.4989 227.882C68.1084 228.627 66.5987 229 65.9696 229C64.8792 229 64.0824 228.715 63.5791 228.145C63.0759 227.531 62.6775 226.522 62.3839 225.118C62.0904 223.847 61.8387 222.969 61.629 222.487L61.6919 222.224V221.895C61.6919 219.833 60.2661 214.285 57.4143 205.25C54.5625 196.215 51.2704 186.478 47.5379 176.039C43.8474 165.601 41.0166 158.013 39.0455 153.276V221.105C39.0455 221.105 39.2133 221.412 39.5488 222.026C40.094 222.947 40.3666 223.693 40.3666 224.263C40.3666 225.404 39.9682 226.39 39.1713 227.224C38.4165 228.057 37.5148 228.474 36.4664 228.474C33.6565 228.474 32.2516 225.732 32.2516 220.25L32 174.066C32 171.259 32.1258 167.07 32.3774 161.5C32.6291 155.886 32.7549 151.697 32.7549 148.934C32.7549 144.724 34.3275 141.412 37.4729 139V139.855C37.8084 139.636 38.1229 139.526 38.4165 139.526C40.4295 139.526 42.9458 143.145 45.9653 150.382C48.3138 156.039 50.4946 162.224 52.5076 168.934C54.5625 175.645 56.911 183.89 59.5531 193.671L61.4403 200.579Z" fill="white"/>
</svg>
