<svg version="1.1" xmlns="http://www.w3.org/2000/svg" viewBox="0 0 1732.570674367419 1488.549496059039" width="1732.570674367419" height="1488.549496059039" filter="invert(93%) hue-rotate(180deg)">
  <!-- svg-source:excalidraw -->
  
  <defs>
    <style class="style-fonts">
      @font-face {
        font-family: "Virgil";
        src: url("https://excalidraw.com/Virgil.woff2");
      }
      @font-face {
        font-family: "Cascadia";
        src: url("https://excalidraw.com/Cascadia.woff2");
      }
    </style>
    
  </defs>
  <g stroke-linecap="round" transform="translate(744.9416551563218 281.3654451073831) rotate(0 61.5 24.5)"><path d="M12.25 0 M12.25 0 C40.99 -2.35, 68.2 -1.21, 110.75 0 M12.25 0 C40.57 0.94, 69.44 0.7, 110.75 0 M110.75 0 C119.54 -1.23, 122.83 3.6, 123 12.25 M110.75 0 C119.45 0.41, 122.38 5.31, 123 12.25 M123 12.25 C121.79 16.51, 123.06 22.93, 123 36.75 M123 12.25 C122.69 22.55, 123.13 31.73, 123 36.75 M123 36.75 C122.44 44.09, 118.25 50.96, 110.75 49 M123 36.75 C123.17 44.14, 119.5 50.61, 110.75 49 M110.75 49 C71.1 48.83, 35.49 48.42, 12.25 49 M110.75 49 C86.17 49.19, 62.49 48.62, 12.25 49 M12.25 49 C4.2 48.87, 1.48 44.3, 0 36.75 M12.25 49 C4.34 47.81, 1.28 46.9, 0 36.75 M0 36.75 C1.7 30.72, 0.65 24.96, 0 12.25 M0 36.75 C-0.68 30.94, 0.19 25.97, 0 12.25 M0 12.25 C1.56 4.56, 2.16 -0.19, 12.25 0 M0 12.25 C0.27 6.33, 5.67 -0.56, 12.25 0" stroke="#000000" stroke-width="1" fill="none"></path></g><g transform="translate(785.4416780445054 293.3654451073831) rotate(0 20.999977111816406 12.5)"><text x="20.999977111816406" y="0" font-family="Virgil, Segoe UI Emoji" font-size="20px" fill="#000000" text-anchor="middle" style="white-space: pre;" direction="ltr" dominant-baseline="text-before-edge">body</text></g><g stroke-linecap="round" transform="translate(355.5610467266238 111.35553078192498) rotate(0 105.5 30)"><path d="M15 0 M15 0 C79.1 -1.22, 141.67 -0.32, 196 0 M196 0 C204.21 -0.47, 210.89 6.17, 211 15 M211 15 C209.34 27.01, 209.19 36.83, 211 45 M211 45 C209.39 54.97, 207.81 60.48, 196 60 M196 60 C147.02 59.54, 102.15 59.01, 15 60 M15 60 C6.55 59.14, 1.02 56.61, 0 45 M0 45 C0.31 36.94, -0.78 27.12, 0 15 M0 15 C0.41 6.63, 6.55 1.75, 15 0" stroke="#1e1e1e" stroke-width="1.5" fill="none" stroke-dasharray="1.5 7"></path></g><g transform="translate(382.5611306499636 116.35553078192498) rotate(0 78.49991607666016 25)"><text x="78.49991607666016" y="0" font-family="Virgil, Segoe UI Emoji" font-size="20px" fill="#1e1e1e" text-anchor="middle" style="white-space: pre;" direction="ltr" dominant-baseline="text-before-edge">QwikCityProvider</text><text x="78.49991607666016" y="25" font-family="Virgil, Segoe UI Emoji" font-size="20px" fill="#1e1e1e" text-anchor="middle" style="white-space: pre;" direction="ltr" dominant-baseline="text-before-edge">id = 1</text></g><g stroke-linecap="round" transform="translate(352.9756112329883 10) rotate(0 105.5 30)"><path d="M15 0 M15 0 C65.74 1.32, 119.5 -0.9, 196 0 M196 0 C207.48 -0.76, 212.97 4.1, 211 15 M211 15 C212.47 25.42, 209.18 31.52, 211 45 M211 45 C209.96 53.29, 206.41 58.68, 196 60 M196 60 C143.46 59.1, 96.32 61.87, 15 60 M15 60 C3.07 59.84, 0.21 55.14, 0 45 M0 45 C0.26 37.65, 0.58 29.28, 0 15 M0 15 C-0.21 3.65, 4.96 0.41, 15 0" stroke="#1e1e1e" stroke-width="1.5" fill="none" stroke-dasharray="1.5 7"></path></g><g transform="translate(427.54562618660157 15) rotate(0 30.92998504638672 25)"><text x="30.92998504638672" y="0" font-family="Virgil, Segoe UI Emoji" font-size="20px" fill="#1e1e1e" text-anchor="middle" style="white-space: pre;" direction="ltr" dominant-baseline="text-before-edge">Root</text><text x="30.92998504638672" y="25" font-family="Virgil, Segoe UI Emoji" font-size="20px" fill="#1e1e1e" text-anchor="middle" style="white-space: pre;" direction="ltr" dominant-baseline="text-before-edge">id = 0</text></g><g stroke-linecap="round" transform="translate(57.83781952991285 281.5448115179991) rotate(0 61.5 24.5)"><path d="M12.25 0 M12.25 0 C39.41 -0.6, 64.23 0.3, 110.75 0 M12.25 0 C40.81 0.27, 70.34 1.27, 110.75 0 M110.75 0 C118.1 -0.1, 122.92 6.08, 123 12.25 M110.75 0 C118.4 -0.59, 124.71 5.16, 123 12.25 M123 12.25 C123.8 16.71, 122.18 26.91, 123 36.75 M123 12.25 C122.11 19.16, 123.16 24.19, 123 36.75 M123 36.75 C121.62 46.85, 119.47 48.6, 110.75 49 M123 36.75 C122.86 46.18, 119.82 50.89, 110.75 49 M110.75 49 C73.73 50.69, 40.22 49.95, 12.25 49 M110.75 49 C90.4 48.74, 69.82 49.96, 12.25 49 M12.25 49 C3.56 50.42, 0.44 44.58, 0 36.75 M12.25 49 C2.34 48.39, 1.28 46.26, 0 36.75 M0 36.75 C1.2 29.26, -1.79 24.83, 0 12.25 M0 36.75 C0.02 28.68, 0.27 21.24, 0 12.25 M0 12.25 C1.25 3.17, 2.99 1.26, 12.25 0 M0 12.25 C0.79 5.07, 6.34 -0.32, 12.25 0" stroke="#000000" stroke-width="1" fill="none"></path></g><g transform="translate(96.5678381456355 293.5448115179991) rotate(0 22.769981384277344 12.5)"><text x="22.769981384277344" y="0" font-family="Virgil, Segoe UI Emoji" font-size="20px" fill="#000000" text-anchor="middle" style="white-space: pre;" direction="ltr" dominant-baseline="text-before-edge">head</text></g><g stroke-linecap="round" transform="translate(10 376.63627376556457) rotate(0 105.5 30)"><path d="M15 0 M15 0 C75.34 0.54, 138.26 1.05, 196 0 M196 0 C204.71 1.25, 210.09 3.91, 211 15 M211 15 C213.07 25.61, 212.33 36.57, 211 45 M211 45 C212.1 54.09, 205.43 61.64, 196 60 M196 60 C156.87 59.59, 117.03 57.74, 15 60 M15 60 C4.38 59.64, 0.21 56.52, 0 45 M0 45 C-0.5 38.43, -0.24 31.17, 0 15 M0 15 C1.33 4.05, 5.15 0.79, 15 0" stroke="#1e1e1e" stroke-width="1.5" fill="none" stroke-dasharray="1.5 7"></path></g><g transform="translate(58.74005126953125 381.63627376556457) rotate(0 56.75994873046875 25)"><text x="56.75994873046875" y="0" font-family="Virgil, Segoe UI Emoji" font-size="20px" fill="#1e1e1e" text-anchor="middle" style="white-space: pre;" direction="ltr" dominant-baseline="text-before-edge">RouterHead</text><text x="56.75994873046875" y="25" font-family="Virgil, Segoe UI Emoji" font-size="20px" fill="#1e1e1e" text-anchor="middle" style="white-space: pre;" direction="ltr" dominant-baseline="text-before-edge">id = 2</text></g><g stroke-linecap="round" transform="translate(11.712239191254412 478.0207147316251) rotate(0 105.5 30)"><path d="M15 0 M15 0 C66.25 0.45, 116.45 2.35, 196 0 M196 0 C207.41 0.83, 212.27 4.78, 211 15 M211 15 C212.37 24.86, 211.61 32.02, 211 45 M211 45 C209.6 55.17, 204.06 61.97, 196 60 M196 60 C148.68 58.76, 104 59.77, 15 60 M15 60 C5.04 61.28, 1.6 55.12, 0 45 M0 45 C0.38 38.43, -0.29 30.05, 0 15 M0 15 C-1.98 4.37, 4.02 -1.99, 15 0" stroke="#1e1e1e" stroke-width="1.5" fill="none" stroke-dasharray="1.5 7"></path></g><g transform="translate(54.77228252621535 483.0207147316251) rotate(0 62.43995666503906 25)"><text x="62.43995666503906" y="0" font-family="Virgil, Segoe UI Emoji" font-size="20px" fill="#1e1e1e" text-anchor="middle" style="white-space: pre;" direction="ltr" dominant-baseline="text-before-edge">canonical link</text><text x="62.43995666503906" y="25" font-family="Virgil, Segoe UI Emoji" font-size="20px" fill="#1e1e1e" text-anchor="middle" style="white-space: pre;" direction="ltr" dominant-baseline="text-before-edge">id = 3</text></g><g stroke-linecap="round" transform="translate(707.3926944308146 373.6414093240789) rotate(0 105.5 30)"><path d="M15 0 M15 0 C58.39 2.7, 101.15 1.37, 196 0 M196 0 C204.16 -1.51, 210.73 3.7, 211 15 M211 15 C212.2 23.84, 210.3 33.18, 211 45 M211 45 C210 53.87, 206.87 59.14, 196 60 M196 60 C123.02 61.09, 50.34 62.93, 15 60 M15 60 C4.09 61.28, -1.04 55.28, 0 45 M0 45 C-1.28 37.52, -1.59 33.72, 0 15 M0 15 C1.92 6.44, 6.18 -1.04, 15 0" stroke="#1e1e1e" stroke-width="1.5" fill="none" stroke-dasharray="1.5 7"></path></g><g transform="translate(747.1327609591349 378.6414093240789) rotate(0 65.75993347167969 25)"><text x="65.75993347167969" y="0" font-family="Virgil, Segoe UI Emoji" font-size="20px" fill="#1e1e1e" text-anchor="middle" style="white-space: pre;" direction="ltr" dominant-baseline="text-before-edge">RouterOutlet</text><text x="65.75993347167969" y="25" font-family="Virgil, Segoe UI Emoji" font-size="20px" fill="#1e1e1e" text-anchor="middle" style="white-space: pre;" direction="ltr" dominant-baseline="text-before-edge">id = 4</text></g><g stroke-linecap="round" transform="translate(709.0315536837834 476.01660135061735) rotate(0 105.5 30)"><path d="M15 0 M15 0 C61.5 -1.09, 110.83 0.58, 196 0 M196 0 C205.68 -1.22, 211.27 3.34, 211 15 M211 15 C213.04 25.32, 210.85 36.53, 211 45 M211 45 C212.8 55.66, 205.27 59.37, 196 60 M196 60 C142.58 58.45, 89.1 57.75, 15 60 M15 60 C6.35 59.11, -0.02 54.53, 0 45 M0 45 C-1.51 35.74, 0.17 29.2, 0 15 M0 15 C-0.06 4.73, 5.43 1.75, 15 0" stroke="#1e1e1e" stroke-width="1.5" fill="none" stroke-dasharray="1.5 7"></path></g><g transform="translate(781.1115860324162 481.01660135061735) rotate(0 33.41996765136719 25)"><text x="33.41996765136719" y="0" font-family="Virgil, Segoe UI Emoji" font-size="20px" fill="#1e1e1e" text-anchor="middle" style="white-space: pre;" direction="ltr" dominant-baseline="text-before-edge">Router</text><text x="33.41996765136719" y="25" font-family="Virgil, Segoe UI Emoji" font-size="20px" fill="#1e1e1e" text-anchor="middle" style="white-space: pre;" direction="ltr" dominant-baseline="text-before-edge">id = 5</text></g><g stroke-linecap="round" transform="translate(212.33208787439253 642.2946668523578) rotate(0 33 24.5)"><path d="M12.25 0 M12.25 0 C23.94 -0.96, 38.49 -0.89, 53.75 0 M12.25 0 C22.68 0.71, 32.64 -0.31, 53.75 0 M53.75 0 C61.99 1.48, 66.12 4.35, 66 12.25 M53.75 0 C62.1 -0.23, 67.92 4.24, 66 12.25 M66 12.25 C65.25 18.01, 67.28 21.22, 66 36.75 M66 12.25 C65.28 19.97, 66.88 29.49, 66 36.75 M66 36.75 C66.08 44.46, 62.36 50.68, 53.75 49 M66 36.75 C67.33 43, 63.17 50.82, 53.75 49 M53.75 49 C42.34 48.42, 34.16 49.71, 12.25 49 M53.75 49 C44.8 47.84, 37.32 48.3, 12.25 49 M12.25 49 C5.11 49.77, -1.68 46.45, 0 36.75 M12.25 49 C4.53 47.86, -2.26 44.63, 0 36.75 M0 36.75 C-0.02 30.39, -1.07 23.47, 0 12.25 M0 36.75 C0.01 30.96, -0.54 27.09, 0 12.25 M0 12.25 C-0.84 2.88, 5.55 -1.8, 12.25 0 M0 12.25 C-0.94 6.11, 3.68 -1.25, 12.25 0" stroke="#000000" stroke-width="1" fill="none"></path></g><g transform="translate(237.68209397790815 654.2946668523578) rotate(0 7.649993896484375 12.5)"><text x="7.649993896484375" y="0" font-family="Virgil, Segoe UI Emoji" font-size="20px" fill="#000000" text-anchor="middle" style="white-space: pre;" direction="ltr" dominant-baseline="text-before-edge">h1</text></g><g stroke-linecap="round" transform="translate(144.9216441339231 765.7002810264346) rotate(0 98 30)"><path d="M15 0 M15 0 C77.66 0.06, 137.63 0.1, 181 0 M15 0 C62.15 0.72, 112.07 -0.59, 181 0 M181 0 C191.81 1.07, 195.07 5.72, 196 15 M181 0 C191.04 -1.14, 194.33 3.8, 196 15 M196 15 C195.78 27.06, 197.91 39.39, 196 45 M196 15 C195.52 21.08, 196.73 27.17, 196 45 M196 45 C195.18 54.96, 191.47 58.19, 181 60 M196 45 C196.52 53.44, 190.41 57.98, 181 60 M181 60 C116.26 59.17, 51.52 61.24, 15 60 M181 60 C139.11 59.42, 98.26 59.74, 15 60 M15 60 C5.21 58.83, -0.12 53.03, 0 45 M15 60 C4.59 60.11, -0.08 53.02, 0 45 M0 45 C-1.26 39.21, -1.86 29.67, 0 15 M0 45 C-0.38 33.05, 0.04 22.24, 0 15 M0 15 C1.58 4.89, 6.51 -1.96, 15 0 M0 15 C-1.65 6.8, 7.06 0.57, 15 0" stroke="#000000" stroke-width="1" fill="none"></path></g><g transform="translate(163.6117076104856 783.2002810264346) rotate(0 79.3099365234375 12.5)"><text x="79.3099365234375" y="0" font-family="Virgil, Segoe UI Emoji" font-size="20px" fill="#000000" text-anchor="middle" style="white-space: pre;" direction="ltr" dominant-baseline="text-before-edge">Welcome to Qwik</text></g><g stroke-linecap="round" transform="translate(600.037235247109 640.8007604766337) rotate(0 105.5 30)"><path d="M15 0 M15 0 C66.88 -3.26, 122.28 -2.89, 196 0 M196 0 C206.01 -1.56, 210.22 5.25, 211 15 M211 15 C212.43 24.7, 210.5 31.4, 211 45 M211 45 C212.1 53.89, 205.76 61.3, 196 60 M196 60 C150.41 58.22, 106.62 59.64, 15 60 M15 60 C4.78 59.32, -1.4 53.87, 0 45 M0 45 C0.66 35.9, 1.17 29.73, 0 15 M0 15 C-0.18 6.7, 3.88 0.49, 15 0" stroke="#1e1e1e" stroke-width="1.5" fill="none" stroke-dasharray="1.5 7"></path></g><g transform="translate(667.7872733940817 645.8007604766337) rotate(0 37.749961853027344 25)"><text x="37.749961853027344" y="0" font-family="Virgil, Segoe UI Emoji" font-size="20px" fill="#1e1e1e" text-anchor="middle" style="white-space: pre;" direction="ltr" dominant-baseline="text-before-edge">Counter</text><text x="37.749961853027344" y="25" font-family="Virgil, Segoe UI Emoji" font-size="20px" fill="#1e1e1e" text-anchor="middle" style="white-space: pre;" direction="ltr" dominant-baseline="text-before-edge">id = 6</text></g><g stroke-linecap="round" transform="translate(452.71786711446475 906.094591254548) rotate(0 105.5 30)"><path d="M15 0 M15 0 C52.39 -0.97, 91.59 -2.05, 196 0 M196 0 C204.82 0.08, 210.17 5.63, 211 15 M211 15 C211.5 23.41, 210.09 29.89, 211 45 M211 45 C210.49 56.72, 206.77 60.77, 196 60 M196 60 C139.86 60.85, 81.4 61.11, 15 60 M15 60 C5.57 58.16, 0.03 55.69, 0 45 M0 45 C-2.15 37.19, 0.76 33.92, 0 15 M0 15 C-1.94 3.32, 4.82 1.22, 15 0" stroke="#1e1e1e" stroke-width="1.5" fill="none" stroke-dasharray="1.5 7"></path></g><g transform="translate(520.1579000734491 911.094591254548) rotate(0 38.059967041015625 25)"><text x="38.059967041015625" y="0" font-family="Virgil, Segoe UI Emoji" font-size="20px" fill="#1e1e1e" text-anchor="middle" style="white-space: pre;" direction="ltr" dominant-baseline="text-before-edge">Wrapper</text><text x="38.059967041015625" y="25" font-family="Virgil, Segoe UI Emoji" font-size="20px" fill="#1e1e1e" text-anchor="middle" style="white-space: pre;" direction="ltr" dominant-baseline="text-before-edge">id = 8</text></g><g stroke-linecap="round" transform="translate(644.5778332974564 763.4620710150564) rotate(0 61.5 30)"><path d="M15 0 M15 0 C46.9 1.29, 79.68 -0.23, 108 0 M15 0 C40.68 -0.12, 67.13 -0.4, 108 0 M108 0 C117.87 0.93, 124.46 4.47, 123 15 M108 0 C117.8 -2.2, 120.99 4.39, 123 15 M123 15 C123 22.71, 122.49 26.91, 123 45 M123 15 C123.01 24.65, 122.69 33.92, 123 45 M123 45 C122.43 55.03, 118.01 58.53, 108 60 M123 45 C121.26 56.05, 116.76 60.62, 108 60 M108 60 C82.69 58.4, 59.16 61.46, 15 60 M108 60 C72.47 59.62, 37.9 59.77, 15 60 M15 60 C5.51 58.54, -1.21 54.13, 0 45 M15 60 C6.47 60.84, -0.74 57.03, 0 45 M0 45 C1.67 36.59, -0.55 28.08, 0 15 M0 45 C-0.48 35.36, 0.27 27.02, 0 15 M0 15 C0.23 6.57, 3.74 0.74, 15 0 M0 15 C-1 5.17, 5.75 -0.3, 15 0" stroke="#000000" stroke-width="1" fill="none"></path></g><g transform="translate(676.6478482510697 768.4620710150564) rotate(0 29.42998504638672 25)"><text x="29.42998504638672" y="0" font-family="Virgil, Segoe UI Emoji" font-size="20px" fill="#000000" text-anchor="middle" style="white-space: pre;" direction="ltr" dominant-baseline="text-before-edge">div</text><text x="29.42998504638672" y="25" font-family="Virgil, Segoe UI Emoji" font-size="20px" fill="#000000" text-anchor="middle" style="white-space: pre;" direction="ltr" dominant-baseline="text-before-edge">id = 7</text></g><g stroke-linecap="round" transform="translate(488.66955987587517 1027.3258997145483) rotate(0 61.5 30)"><path d="M15 0 M15 0 C49.44 0.56, 84.09 0.62, 108 0 M15 0 C37.69 0.21, 62.16 0.27, 108 0 M108 0 C116.03 1.34, 122.41 4.09, 123 15 M108 0 C118.07 1.34, 123.05 6.64, 123 15 M123 15 C124.31 23.3, 124.62 36.24, 123 45 M123 15 C123.74 22.84, 123.8 31.63, 123 45 M123 45 C123.19 54.84, 116.42 60.51, 108 60 M123 45 C124.7 52.95, 118.66 61.25, 108 60 M108 60 C79.93 59.54, 53.8 59.59, 15 60 M108 60 C85.79 61.03, 64.79 60.28, 15 60 M15 60 C4.72 61.26, 0.83 55.12, 0 45 M15 60 C4.57 62.17, 1.17 54.32, 0 45 M0 45 C1.27 35.4, -0.32 27.05, 0 15 M0 45 C-0.46 36.23, 1.08 28.45, 0 15 M0 15 C-0.98 5.25, 5.23 1.53, 15 0 M0 15 C1.68 6.84, 7.17 -1.81, 15 0" stroke="#000000" stroke-width="1" fill="none"></path></g><g transform="translate(520.0295757450158 1032.3258997145483) rotate(0 30.139984130859375 25)"><text x="30.139984130859375" y="0" font-family="Virgil, Segoe UI Emoji" font-size="20px" fill="#000000" text-anchor="middle" style="white-space: pre;" direction="ltr" dominant-baseline="text-before-edge">div</text><text x="30.139984130859375" y="25" font-family="Virgil, Segoe UI Emoji" font-size="20px" fill="#000000" text-anchor="middle" style="white-space: pre;" direction="ltr" dominant-baseline="text-before-edge">id = 9</text></g><g stroke-linecap="round" transform="translate(452.2396785797414 1145.888619216711) rotate(0 105.5 30)"><path d="M15 0 M15 0 C58.96 -0.42, 104.94 -0.92, 196 0 M196 0 C205.44 -1.04, 210.28 6.49, 211 15 M211 15 C209.6 24.6, 211.56 33.46, 211 45 M211 45 C209.48 56.41, 206.52 58.73, 196 60 M196 60 C126.82 60.97, 52.32 62.12, 15 60 M15 60 C5.5 60.73, 1.14 54.46, 0 45 M0 45 C0.57 34.44, -0.38 25.09, 0 15 M0 15 C0.39 5.3, 6.46 1.9, 15 0" stroke="#1e1e1e" stroke-width="1.5" fill="none" stroke-dasharray="1.5 7"></path></g><g transform="translate(504.89970513003436 1150.888619216711) rotate(0 52.83997344970703 25)"><text x="52.83997344970703" y="0" font-family="Virgil, Segoe UI Emoji" font-size="20px" fill="#1e1e1e" text-anchor="middle" style="white-space: pre;" direction="ltr" dominant-baseline="text-before-edge">Display</text><text x="52.83997344970703" y="25" font-family="Virgil, Segoe UI Emoji" font-size="20px" fill="#1e1e1e" text-anchor="middle" style="white-space: pre;" direction="ltr" dominant-baseline="text-before-edge">id = a (10)</text></g><g stroke-linecap="round" transform="translate(498.57954784117464 1276.0462847555764) rotate(0 61.5 30)"><path d="M15 0 M15 0 C44.72 -1.04, 74.84 1.49, 108 0 M15 0 C43.22 0.72, 73.01 0.51, 108 0 M108 0 C116.48 1.41, 123.52 3.73, 123 15 M108 0 C120.13 -1.59, 124.95 7.2, 123 15 M123 15 C123.27 23.89, 123.92 30.77, 123 45 M123 15 C123.35 23.24, 122.87 32.08, 123 45 M123 45 C123.39 55.3, 119.46 61.9, 108 60 M123 45 C122.03 53.25, 117.22 59.19, 108 60 M108 60 C83.03 59.22, 60.63 60.84, 15 60 M108 60 C71.59 60.87, 34.41 61.55, 15 60 M15 60 C3.07 58.8, 0.81 55.09, 0 45 M15 60 C3.61 60.55, -1.21 52.98, 0 45 M0 45 C0.71 34.08, 0.27 23.06, 0 15 M0 45 C0.15 36.06, -0.85 28.21, 0 15 M0 15 C-1.87 5.38, 4.52 -1.26, 15 0 M0 15 C1.03 5.28, 3.49 -1.43, 15 0" stroke="#000000" stroke-width="1" fill="none"></path></g><g transform="translate(512.9995765276981 1281.0462847555764) rotate(0 47.07997131347656 25)"><text x="47.07997131347656" y="0" font-family="Virgil, Segoe UI Emoji" font-size="20px" fill="#000000" text-anchor="middle" style="white-space: pre;" direction="ltr" dominant-baseline="text-before-edge">h3</text><text x="47.07997131347656" y="25" font-family="Virgil, Segoe UI Emoji" font-size="20px" fill="#000000" text-anchor="middle" style="white-space: pre;" direction="ltr" dominant-baseline="text-before-edge">id = b (11)</text></g><g stroke-linecap="round" transform="translate(762.7506661478096 903.2427689352896) rotate(0 105.5 30)"><path d="M15 0 M15 0 C83.49 -1.4, 153.31 0.54, 196 0 M196 0 C207.72 1.77, 211.16 4.24, 211 15 M211 15 C211.79 26.59, 210.57 38.55, 211 45 M211 45 C212.24 56.07, 207.24 61.88, 196 60 M196 60 C138.42 63.55, 80.07 61.07, 15 60 M15 60 C6.81 58.67, 0.88 53.46, 0 45 M0 45 C0.03 33.44, 1.5 25.93, 0 15 M0 15 C-0.84 6.58, 3.63 0.19, 15 0" stroke="#1e1e1e" stroke-width="1.5" fill="none" stroke-dasharray="1.5 7"></path></g><g transform="translate(816.4606957498604 908.2427689352896) rotate(0 51.78997039794922 25)"><text x="51.78997039794922" y="0" font-family="Virgil, Segoe UI Emoji" font-size="20px" fill="#1e1e1e" text-anchor="middle" style="white-space: pre;" direction="ltr" dominant-baseline="text-before-edge">Actions</text><text x="51.78997039794922" y="25" font-family="Virgil, Segoe UI Emoji" font-size="20px" fill="#1e1e1e" text-anchor="middle" style="white-space: pre;" direction="ltr" dominant-baseline="text-before-edge">id = d (13)</text></g><g stroke-linecap="round" transform="translate(438.74686261161605 1393.5378964364857) rotate(0 123.5 42.5)"><path d="M21.25 0 M21.25 0 C97 -0.76, 168.5 0.5, 225.75 0 M21.25 0 C87.09 0.66, 152.86 0.24, 225.75 0 M225.75 0 C238.38 0.52, 246.19 8.6, 247 21.25 M225.75 0 C239.81 -2.05, 248.59 7.63, 247 21.25 M247 21.25 C247.53 32.3, 247.63 44.97, 247 63.75 M247 21.25 C247.84 36.26, 247.65 52.38, 247 63.75 M247 63.75 C247.7 76.53, 240.7 85.98, 225.75 85 M247 63.75 C246.4 78.21, 238.28 85.79, 225.75 85 M225.75 85 C181.4 84.84, 136.05 84.6, 21.25 85 M225.75 85 C166.61 86.77, 105.25 86.18, 21.25 85 M21.25 85 C6.97 83.44, 0.22 79.68, 0 63.75 M21.25 85 C9.05 87.02, 1.97 77.32, 0 63.75 M0 63.75 C-1.28 48.32, 0.48 32.47, 0 21.25 M0 63.75 C-0.45 54.09, 0.69 45.73, 0 21.25 M0 21.25 C0.23 9, 6.83 1.9, 21.25 0 M0 21.25 C1.25 9, 9.07 -0.52, 21.25 0" stroke="#000000" stroke-width="1" fill="none"></path></g><g transform="translate(455.3769590471629 1411.0378964364857) rotate(0 106.86990356445312 25)"><text x="106.86990356445312" y="0" font-family="Virgil, Segoe UI Emoji" font-size="20px" fill="#000000" text-anchor="middle" style="white-space: pre;" direction="ltr" dominant-baseline="text-before-edge">{numberToShow.value}</text><text x="106.86990356445312" y="25" font-family="Virgil, Segoe UI Emoji" font-size="20px" fill="#000000" text-anchor="middle" style="white-space: pre;" direction="ltr" dominant-baseline="text-before-edge">id = c (12)</text></g><g stroke-linecap="round" transform="translate(714.8907279536688 1148.5931730330308) rotate(0 71.5 30)"><path d="M15 0 M15 0 C41.63 1.05, 68.27 1.99, 128 0 M15 0 C41.08 -1.28, 67.16 -1.41, 128 0 M128 0 C137.91 1.74, 141.01 6.44, 143 15 M128 0 C136.6 -2.06, 142.58 6.78, 143 15 M143 15 C141.34 26.67, 144.14 34.03, 143 45 M143 15 C143.19 22.14, 142.45 30.52, 143 45 M143 45 C142.86 53.23, 137.04 60.62, 128 60 M143 45 C144.14 54.91, 139.63 59.67, 128 60 M128 60 C91.7 62.16, 55.89 59.72, 15 60 M128 60 C95.71 58.86, 61.73 58.99, 15 60 M15 60 C5.61 60.39, 0.01 53.87, 0 45 M15 60 C3.41 59.09, -1.12 54.43, 0 45 M0 45 C-0.13 34.99, 1.68 25.53, 0 15 M0 45 C-0.82 35.39, -1.05 24.3, 0 15 M0 15 C1.03 5.85, 5.64 -0.91, 15 0 M0 15 C0.5 5.07, 5.56 -1.34, 15 0" stroke="#000000" stroke-width="1" fill="none"></path></g><g transform="translate(736.0607642695868 1153.5931730330308) rotate(0 50.32996368408203 25)"><text x="50.32996368408203" y="0" font-family="Virgil, Segoe UI Emoji" font-size="20px" fill="#000000" text-anchor="middle" style="white-space: pre;" direction="ltr" dominant-baseline="text-before-edge">button</text><text x="50.32996368408203" y="25" font-family="Virgil, Segoe UI Emoji" font-size="20px" fill="#000000" text-anchor="middle" style="white-space: pre;" direction="ltr" dominant-baseline="text-before-edge">id = f (15)</text></g><g stroke-linecap="round" transform="translate(885.1071409256801 1146.4102417625395) rotate(0 73.5 30)"><path d="M15 0 M15 0 C60.92 -1.27, 104.99 1.53, 132 0 M15 0 C45.07 0.59, 73.62 -0.15, 132 0 M132 0 C143.04 -0.14, 145.23 4.04, 147 15 M132 0 C142.71 1.14, 146.91 6.63, 147 15 M147 15 C148.75 23.73, 148.28 32.94, 147 45 M147 15 C146.59 22.71, 146.26 28.73, 147 45 M147 45 C145.85 55.61, 142.39 60.01, 132 60 M147 45 C145.7 53.41, 141.09 58.88, 132 60 M132 60 C101.02 60.61, 66.5 62.42, 15 60 M132 60 C107.23 60.13, 81.17 59.9, 15 60 M15 60 C3.77 61.03, 0.85 55.64, 0 45 M15 60 C3.96 60.5, 0.07 55.56, 0 45 M0 45 C1.7 35.92, 1.89 31.33, 0 15 M0 45 C-0.75 34.3, 0.37 25.43, 0 15 M0 15 C-1.16 6.84, 3.06 -1.42, 15 0 M0 15 C-1.18 4.12, 5.25 2.15, 15 0" stroke="#000000" stroke-width="1" fill="none"></path></g><g transform="translate(907.9071744950161 1151.4102417625395) rotate(0 50.69996643066406 25)"><text x="50.69996643066406" y="0" font-family="Virgil, Segoe UI Emoji" font-size="20px" fill="#000000" text-anchor="middle" style="white-space: pre;" direction="ltr" dominant-baseline="text-before-edge">button</text><text x="50.69996643066406" y="25" font-family="Virgil, Segoe UI Emoji" font-size="20px" fill="#000000" text-anchor="middle" style="white-space: pre;" direction="ltr" dominant-baseline="text-before-edge">id = g (16)</text></g><g stroke-linecap="round" transform="translate(719.8895352614413 1279.8444816421113) rotate(0 66.5 26)"><path d="M13 0 M13 0 C48.34 2.4, 83.08 0.43, 120 0 M13 0 C53.09 1.16, 95.55 -0.28, 120 0 M120 0 C128 -1.65, 131.49 4.64, 133 13 M120 0 C128.64 0.13, 131.58 4.14, 133 13 M133 13 C131.71 18.48, 132.71 22.94, 133 39 M133 13 C133.74 22.57, 133.73 32.95, 133 39 M133 39 C133.5 48.29, 128.72 51.61, 120 52 M133 39 C132.49 45.52, 128.13 53.26, 120 52 M120 52 C95.11 52.89, 68.02 53.19, 13 52 M120 52 C98.8 50.34, 75.76 50.6, 13 52 M13 52 C3.29 51.83, 1.54 46.52, 0 39 M13 52 C6.39 52.53, -1.88 48.62, 0 39 M0 39 C1.11 32.3, -1.82 22.18, 0 13 M0 39 C0.19 33.64, -0.64 28.45, 0 13 M0 13 C-1.63 4.44, 5.08 -0.78, 13 0 M0 13 C-1.4 4.49, 4.19 0.85, 13 0" stroke="#000000" stroke-width="1" fill="none"></path></g><g transform="translate(742.6195767653476 1293.3444816421113) rotate(0 43.76995849609375 12.5)"><text x="43.76995849609375" y="0" font-family="Virgil, Segoe UI Emoji" font-size="20px" fill="#000000" text-anchor="middle" style="white-space: pre;" direction="ltr" dominant-baseline="text-before-edge">increment</text></g><g stroke-linecap="round" transform="translate(901.1177413163009 1277.7154288623078) rotate(0 65.5 26)"><path d="M13 0 M13 0 C49.18 1.73, 90.08 -0.5, 118 0 M13 0 C46.01 0.41, 79.21 0.26, 118 0 M118 0 C127.22 -1.65, 132.94 4.5, 131 13 M118 0 C128.5 0.53, 130.05 4.57, 131 13 M131 13 C132.09 24.11, 130.14 32.52, 131 39 M131 13 C131.67 20.93, 131.85 29.31, 131 39 M131 39 C129.06 49.42, 124.73 51.36, 118 52 M131 39 C129.37 46.55, 127 52.14, 118 52 M118 52 C97.21 52.02, 73.45 50.26, 13 52 M118 52 C90.8 51.25, 63.96 51.64, 13 52 M13 52 C4.11 52.2, -0.85 46.98, 0 39 M13 52 C5.75 50.41, -2.02 45.73, 0 39 M0 39 C2.14 32.85, 0.57 26.92, 0 13 M0 39 C-0.34 33.94, -1.01 27.52, 0 13 M0 13 C0.51 3.31, 2.42 1.43, 13 0 M0 13 C-1.55 6.12, 2.68 0.96, 13 0" stroke="#000000" stroke-width="1" fill="none"></path></g><g transform="translate(918.5477873978439 1291.2154288623078) rotate(0 48.06995391845703 12.5)"><text x="48.06995391845703" y="0" font-family="Virgil, Segoe UI Emoji" font-size="20px" fill="#000000" text-anchor="middle" style="white-space: pre;" direction="ltr" dominant-baseline="text-before-edge">decrement</text></g><g stroke-linecap="round"><g transform="translate(707.7002315188201 705.5685284895469) rotate(0 0.38081951130016023 26.11046568990855)"><path d="M0 0 C0.13 8.7, 0.63 43.52, 0.76 52.22 M0 0 C0.13 8.7, 0.63 43.52, 0.76 52.22" stroke="#1e1e1e" stroke-width="1" fill="none"></path></g><g transform="translate(707.7002315188201 705.5685284895469) rotate(0 0.38081951130016023 26.11046568990855)"><path d="M0.76 52.22 L-5.78 38.72 L6.9 38.54 L0.76 52.22" stroke="none" stroke-width="0" fill="#1e1e1e" fill-rule="evenodd"></path><path d="M0.76 52.22 C-1.05 48.47, -2.87 44.72, -5.78 38.72 M0.76 52.22 C-1.53 47.49, -3.82 42.77, -5.78 38.72 M-5.78 38.72 C-2.35 38.67, 1.08 38.62, 6.9 38.54 M-5.78 38.72 C-2.27 38.67, 1.24 38.62, 6.9 38.54 M6.9 38.54 C4.5 43.89, 2.09 49.25, 0.76 52.22 M6.9 38.54 C5.56 41.52, 4.23 44.5, 0.76 52.22 M0.76 52.22 C0.76 52.22, 0.76 52.22, 0.76 52.22 M0.76 52.22 C0.76 52.22, 0.76 52.22, 0.76 52.22" stroke="#1e1e1e" stroke-width="1" fill="none"></path></g></g><mask></mask><g stroke-linecap="round"><g transform="translate(706.0108030727224 829.423390127796) rotate(0 -77.08533887408885 33.01261862533238)"><path d="M0 0 C-25.7 11, -128.48 55.02, -154.17 66.03 M0 0 C-25.7 11, -128.48 55.02, -154.17 66.03" stroke="#1e1e1e" stroke-width="1" fill="none"></path></g><g transform="translate(706.0108030727224 829.423390127796) rotate(0 -77.08533887408885 33.01261862533238)"><path d="M-154.17 66.03 L-144.17 54.85 L-139.18 66.5 L-154.17 66.03" stroke="none" stroke-width="0" fill="#1e1e1e" fill-rule="evenodd"></path><path d="M-154.17 66.03 C-151.54 63.08, -148.9 60.13, -144.17 54.85 M-154.17 66.03 C-150.57 62, -146.96 57.97, -144.17 54.85 M-144.17 54.85 C-142.21 59.43, -140.24 64.02, -139.18 66.5 M-144.17 54.85 C-142.33 59.15, -140.49 63.44, -139.18 66.5 M-139.18 66.5 C-143.09 66.38, -146.99 66.25, -154.17 66.03 M-139.18 66.5 C-142.24 66.4, -145.3 66.31, -154.17 66.03 M-154.17 66.03 C-154.17 66.03, -154.17 66.03, -154.17 66.03 M-154.17 66.03 C-154.17 66.03, -154.17 66.03, -154.17 66.03" stroke="#1e1e1e" stroke-width="1" fill="none"></path></g></g><mask></mask><g stroke-linecap="round"><g transform="translate(711.4662607317623 829.167392850447) rotate(0 74.58386779637885 32.687647988283516)"><path d="M0 0 C24.86 10.9, 124.31 54.48, 149.17 65.38 M0 0 C24.86 10.9, 124.31 54.48, 149.17 65.38" stroke="#1e1e1e" stroke-width="1" fill="none"></path></g><g transform="translate(711.4662607317623 829.167392850447) rotate(0 74.58386779637885 32.687647988283516)"><path d="M149.17 65.38 L134.17 65.72 L139.26 54.11 L149.17 65.38" stroke="none" stroke-width="0" fill="#1e1e1e" fill-rule="evenodd"></path><path d="M149.17 65.38 C143.53 65.51, 137.89 65.64, 134.17 65.72 M149.17 65.38 C145.13 65.47, 141.09 65.56, 134.17 65.72 M134.17 65.72 C135.86 61.88, 137.54 58.03, 139.26 54.11 M134.17 65.72 C135.62 62.43, 137.06 59.13, 139.26 54.11 M139.26 54.11 C142.95 58.31, 146.64 62.5, 149.17 65.38 M139.26 54.11 C141.62 56.79, 143.97 59.47, 149.17 65.38 M149.17 65.38 C149.17 65.38, 149.17 65.38, 149.17 65.38 M149.17 65.38 C149.17 65.38, 149.17 65.38, 149.17 65.38" stroke="#1e1e1e" stroke-width="1" fill="none"></path></g></g><mask></mask><g stroke-linecap="round"><g transform="translate(548.4542878717389 972.2412483403807) rotate(0 0.4958346626176535 23.099792501213415)"><path d="M0 0 C0.17 7.7, 0.83 38.5, 0.99 46.2 M0 0 C0.17 7.7, 0.83 38.5, 0.99 46.2" stroke="#1e1e1e" stroke-width="1" fill="none"></path></g><g transform="translate(548.4542878717389 972.2412483403807) rotate(0 0.4958346626176535 23.099792501213415)"><path d="M0.99 46.2 L-5.64 32.74 L7.04 32.47 L0.99 46.2" stroke="none" stroke-width="0" fill="#1e1e1e" fill-rule="evenodd"></path><path d="M0.99 46.2 C-0.34 43.5, -1.67 40.79, -5.64 32.74 M0.99 46.2 C-0.66 42.85, -2.31 39.51, -5.64 32.74 M-5.64 32.74 C-2.32 32.67, 1 32.6, 7.04 32.47 M-5.64 32.74 C-3.1 32.69, -0.56 32.64, 7.04 32.47 M7.04 32.47 C5.72 35.46, 4.41 38.44, 0.99 46.2 M7.04 32.47 C5.53 35.89, 4.03 39.3, 0.99 46.2 M0.99 46.2 C0.99 46.2, 0.99 46.2, 0.99 46.2 M0.99 46.2 C0.99 46.2, 0.99 46.2, 0.99 46.2" stroke="#1e1e1e" stroke-width="1" fill="none"></path></g></g><mask></mask><g stroke-linecap="round"><g transform="translate(548.5074833757917 1092.265086638278) rotate(0 0.15672590336748726 22.57104328424043)"><path d="M0 0 C0.05 7.52, 0.26 37.62, 0.31 45.14 M0 0 C0.05 7.52, 0.26 37.62, 0.31 45.14" stroke="#1e1e1e" stroke-width="1" fill="none"></path></g><g transform="translate(548.5074833757917 1092.265086638278) rotate(0 0.15672590336748726 22.57104328424043)"><path d="M0.31 45.14 L-6.12 31.59 L6.56 31.5 L0.31 45.14" stroke="none" stroke-width="0" fill="#1e1e1e" fill-rule="evenodd"></path><path d="M0.31 45.14 C-1.77 40.76, -3.85 36.38, -6.12 31.59 M0.31 45.14 C-1.11 42.14, -2.53 39.15, -6.12 31.59 M-6.12 31.59 C-1.64 31.56, 2.84 31.53, 6.56 31.5 M-6.12 31.59 C-1.12 31.56, 3.89 31.52, 6.56 31.5 M6.56 31.5 C4.61 35.76, 2.66 40.02, 0.31 45.14 M6.56 31.5 C5.15 34.57, 3.75 37.64, 0.31 45.14 M0.31 45.14 C0.31 45.14, 0.31 45.14, 0.31 45.14 M0.31 45.14 C0.31 45.14, 0.31 45.14, 0.31 45.14" stroke="#1e1e1e" stroke-width="1" fill="none"></path></g></g><mask></mask><g stroke-linecap="round"><g transform="translate(550.9269962305384 1212.7322951866363) rotate(0 0.1271260000141865 27.159726414902366)"><path d="M0 0 C0.04 9.05, 0.21 45.27, 0.25 54.32 M0 0 C0.04 9.05, 0.21 45.27, 0.25 54.32" stroke="#1e1e1e" stroke-width="1" fill="none"></path></g><g transform="translate(550.9269962305384 1212.7322951866363) rotate(0 0.1271260000141865 27.159726414902366)"><path d="M0.25 54.32 L-6.15 40.75 L6.53 40.7 L0.25 54.32" stroke="none" stroke-width="0" fill="#1e1e1e" fill-rule="evenodd"></path><path d="M0.25 54.32 C-1.49 50.63, -3.23 46.95, -6.15 40.75 M0.25 54.32 C-1.99 49.56, -4.24 44.81, -6.15 40.75 M-6.15 40.75 C-3.47 40.74, -0.78 40.73, 6.53 40.7 M-6.15 40.75 C-3.27 40.74, -0.4 40.73, 6.53 40.7 M6.53 40.7 C4.21 45.73, 1.9 50.76, 0.25 54.32 M6.53 40.7 C4.25 45.64, 1.97 50.59, 0.25 54.32 M0.25 54.32 C0.25 54.32, 0.25 54.32, 0.25 54.32 M0.25 54.32 C0.25 54.32, 0.25 54.32, 0.25 54.32" stroke="#1e1e1e" stroke-width="1" fill="none"></path></g></g><mask></mask><g stroke-linecap="round"><g transform="translate(552.7803411225636 1342.121850074269) rotate(0 0.12454298958004983 21.226272203364942)"><path d="M0 0 C0.04 7.08, 0.21 35.38, 0.25 42.45 M0 0 C0.04 7.08, 0.21 35.38, 0.25 42.45" stroke="#1e1e1e" stroke-width="1" fill="none"></path></g><g transform="translate(552.7803411225636 1342.121850074269) rotate(0 0.12454298958004983 21.226272203364942)"><path d="M0.25 42.45 L-6.17 28.9 L6.51 28.82 L0.25 42.45" stroke="none" stroke-width="0" fill="#1e1e1e" fill-rule="evenodd"></path><path d="M0.25 42.45 C-2.2 37.28, -4.65 32.11, -6.17 28.9 M0.25 42.45 C-2 37.7, -4.26 32.94, -6.17 28.9 M-6.17 28.9 C-2.05 28.87, 2.07 28.85, 6.51 28.82 M-6.17 28.9 C-3.39 28.88, -0.6 28.86, 6.51 28.82 M6.51 28.82 C4.89 32.34, 3.27 35.87, 0.25 42.45 M6.51 28.82 C4.16 33.95, 1.8 39.07, 0.25 42.45 M0.25 42.45 C0.25 42.45, 0.25 42.45, 0.25 42.45 M0.25 42.45 C0.25 42.45, 0.25 42.45, 0.25 42.45" stroke="#1e1e1e" stroke-width="1" fill="none"></path></g></g><mask></mask><g stroke-linecap="round"><g transform="translate(956.3993335260066 1213.6387210184525) rotate(0 0.8316318936961125 28.542990536540742)"><path d="M0 0 C0.28 9.51, 1.39 47.57, 1.66 57.09 M0 0 C0.28 9.51, 1.39 47.57, 1.66 57.09" stroke="#1e1e1e" stroke-width="1" fill="none"></path></g><g transform="translate(956.3993335260066 1213.6387210184525) rotate(0 0.8316318936961125 28.542990536540742)"><path d="M1.66 57.09 L-5.07 43.68 L7.6 43.31 L1.66 57.09" stroke="none" stroke-width="0" fill="#1e1e1e" fill-rule="evenodd"></path><path d="M1.66 57.09 C-0.8 52.19, -3.26 47.29, -5.07 43.68 M1.66 57.09 C-0.17 53.44, -2 49.79, -5.07 43.68 M-5.07 43.68 C-0.44 43.55, 4.19 43.41, 7.6 43.31 M-5.07 43.68 C-1.19 43.57, 2.7 43.46, 7.6 43.31 M7.6 43.31 C5.78 47.53, 3.97 51.75, 1.66 57.09 M7.6 43.31 C5.68 47.78, 3.75 52.25, 1.66 57.09 M1.66 57.09 C1.66 57.09, 1.66 57.09, 1.66 57.09 M1.66 57.09 C1.66 57.09, 1.66 57.09, 1.66 57.09" stroke="#1e1e1e" stroke-width="1" fill="none"></path></g></g><mask></mask><g stroke-linecap="round"><g transform="translate(242.9092849604708 700.6118012775703) rotate(0 -0.21173704450461628 28.0970799581155)"><path d="M0 0 C-0.07 9.37, -0.35 46.83, -0.42 56.19 M0 0 C-0.07 9.37, -0.35 46.83, -0.42 56.19" stroke="#1e1e1e" stroke-width="1" fill="none"></path></g><g transform="translate(242.9092849604708 700.6118012775703) rotate(0 -0.21173704450461628 28.0970799581155)"><path d="M-0.42 56.19 L-6.66 42.55 L6.02 42.65 L-0.42 56.19" stroke="none" stroke-width="0" fill="#1e1e1e" fill-rule="evenodd"></path><path d="M-0.42 56.19 C-2.3 52.08, -4.19 47.96, -6.66 42.55 M-0.42 56.19 C-1.96 52.83, -3.5 49.47, -6.66 42.55 M-6.66 42.55 C-1.85 42.59, 2.97 42.62, 6.02 42.65 M-6.66 42.55 C-1.96 42.59, 2.74 42.62, 6.02 42.65 M6.02 42.65 C4.06 46.77, 2.1 50.89, -0.42 56.19 M6.02 42.65 C4.22 46.42, 2.43 50.2, -0.42 56.19 M-0.42 56.19 C-0.42 56.19, -0.42 56.19, -0.42 56.19 M-0.42 56.19 C-0.42 56.19, -0.42 56.19, -0.42 56.19" stroke="#1e1e1e" stroke-width="1" fill="none"></path></g></g><mask></mask><g stroke-linecap="round"><g transform="translate(114.56857193127462 334.2638502733475) rotate(0 0 18.04662126451359)"><path d="M0 0 C0 6.02, 0 30.08, 0 36.09 M0 0 C0 6.02, 0 30.08, 0 36.09" stroke="#1e1e1e" stroke-width="1" fill="none"></path></g><g transform="translate(114.56857193127462 334.2638502733475) rotate(0 0 18.04662126451359)"><path d="M0 36.09 L-6.34 22.5 L6.34 22.5 L0 36.09" stroke="none" stroke-width="0" fill="#1e1e1e" fill-rule="evenodd"></path><path d="M0 36.09 C-2.21 31.36, -4.42 26.62, -6.34 22.5 M0 36.09 C-2.23 31.31, -4.47 26.52, -6.34 22.5 M-6.34 22.5 C-1.34 22.5, 3.67 22.5, 6.34 22.5 M-6.34 22.5 C-3.15 22.5, 0.04 22.5, 6.34 22.5 M6.34 22.5 C3.91 27.71, 1.48 32.92, 0 36.09 M6.34 22.5 C3.87 27.8, 1.4 33.1, 0 36.09 M0 36.09 C0 36.09, 0 36.09, 0 36.09 M0 36.09 C0 36.09, 0 36.09, 0 36.09" stroke="#1e1e1e" stroke-width="1" fill="none"></path></g></g><mask></mask><g stroke-linecap="round"><g transform="translate(115.56156491546062 440.97506222708483) rotate(0 0 13.958797819245433)"><path d="M0 0 C0 4.65, 0 23.26, 0 27.92 M0 0 C0 4.65, 0 23.26, 0 27.92" stroke="#1e1e1e" stroke-width="1" fill="none"></path></g><g transform="translate(115.56156491546062 440.97506222708483) rotate(0 0 13.958797819245433)"><path d="M0 27.92 L-5.9 15.27 L5.9 15.27 L0 27.92" stroke="none" stroke-width="0" fill="#1e1e1e" fill-rule="evenodd"></path><path d="M0 27.92 C-1.64 24.39, -3.29 20.86, -5.9 15.27 M0 27.92 C-1.84 23.97, -3.68 20.03, -5.9 15.27 M-5.9 15.27 C-3.42 15.27, -0.94 15.27, 5.9 15.27 M-5.9 15.27 C-3.5 15.27, -1.11 15.27, 5.9 15.27 M5.9 15.27 C3.57 20.27, 1.23 25.27, 0 27.92 M5.9 15.27 C4.38 18.53, 2.85 21.8, 0 27.92 M0 27.92 C0 27.92, 0 27.92, 0 27.92 M0 27.92 C0 27.92, 0 27.92, 0 27.92" stroke="#1e1e1e" stroke-width="1" fill="none"></path></g></g><mask></mask><g stroke-linecap="round"><g transform="translate(458.96973044319975 74.0252697917129) rotate(0 0 14.896011740272854)"><path d="M0 0 C0 4.97, 0 24.83, 0 29.79 M0 0 C0 4.97, 0 24.83, 0 29.79" stroke="#1e1e1e" stroke-width="1" fill="none"></path></g><g transform="translate(458.96973044319975 74.0252697917129) rotate(0 0 14.896011740272854)"><path d="M0 29.79 L-6.3 16.29 L6.3 16.29 L0 29.79" stroke="none" stroke-width="0" fill="#1e1e1e" fill-rule="evenodd"></path><path d="M0 29.79 C-1.69 26.18, -3.37 22.56, -6.3 16.29 M0 29.79 C-1.83 25.86, -3.66 21.94, -6.3 16.29 M-6.3 16.29 C-2.39 16.29, 1.51 16.29, 6.3 16.29 M-6.3 16.29 C-2.52 16.29, 1.25 16.29, 6.3 16.29 M6.3 16.29 C4.47 20.2, 2.65 24.11, 0 29.79 M6.3 16.29 C4.04 21.12, 1.79 25.95, 0 29.79 M0 29.79 C0 29.79, 0 29.79, 0 29.79 M0 29.79 C0 29.79, 0 29.79, 0 29.79" stroke="#1e1e1e" stroke-width="1" fill="none"></path></g></g><mask></mask><g stroke-linecap="round"><g transform="translate(462.4849982107544 177.53243182966054) rotate(0 -174.2424140985854 47.94276798999141)"><path d="M0 0 C-58.08 15.98, -290.4 79.9, -348.48 95.89 M0 0 C-58.08 15.98, -290.4 79.9, -348.48 95.89" stroke="#1e1e1e" stroke-width="1" fill="none"></path></g><g transform="translate(462.4849982107544 177.53243182966054) rotate(0 -174.2424140985854 47.94276798999141)"><path d="M-348.48 95.89 L-337.06 86.17 L-333.7 98.39 L-348.48 95.89" stroke="none" stroke-width="0" fill="#1e1e1e" fill-rule="evenodd"></path><path d="M-348.48 95.89 C-344.44 92.45, -340.4 89.01, -337.06 86.17 M-348.48 95.89 C-343.92 92, -339.35 88.11, -337.06 86.17 M-337.06 86.17 C-336.2 89.3, -335.34 92.43, -333.7 98.39 M-337.06 86.17 C-336.24 89.15, -335.42 92.13, -333.7 98.39 M-333.7 98.39 C-337.79 97.7, -341.89 97, -348.48 95.89 M-333.7 98.39 C-337.37 97.77, -341.05 97.14, -348.48 95.89 M-348.48 95.89 C-348.48 95.89, -348.48 95.89, -348.48 95.89 M-348.48 95.89 C-348.48 95.89, -348.48 95.89, -348.48 95.89" stroke="#1e1e1e" stroke-width="1" fill="none"></path></g></g><mask></mask><g stroke-linecap="round"><g transform="translate(461.03320672459495 175.7715866356138) rotate(0 171.61786606424425 47.702931980629046)"><path d="M0 0 C57.21 15.9, 286.03 79.5, 343.24 95.41 M0 0 C57.21 15.9, 286.03 79.5, 343.24 95.41" stroke="#1e1e1e" stroke-width="1" fill="none"></path></g><g transform="translate(461.03320672459495 175.7715866356138) rotate(0 171.61786606424425 47.702931980629046)"><path d="M343.24 95.41 L328.44 97.87 L331.84 85.66 L343.24 95.41" stroke="none" stroke-width="0" fill="#1e1e1e" fill-rule="evenodd"></path><path d="M343.24 95.41 C337.37 96.38, 331.51 97.36, 328.44 97.87 M343.24 95.41 C337.75 96.32, 332.27 97.23, 328.44 97.87 M328.44 97.87 C329.31 94.74, 330.18 91.61, 331.84 85.66 M328.44 97.87 C329.28 94.85, 330.12 91.83, 331.84 85.66 M331.84 85.66 C336.02 89.24, 340.21 92.81, 343.24 95.41 M331.84 85.66 C334.65 88.07, 337.47 90.48, 343.24 95.41 M343.24 95.41 C343.24 95.41, 343.24 95.41, 343.24 95.41 M343.24 95.41 C343.24 95.41, 343.24 95.41, 343.24 95.41" stroke="#1e1e1e" stroke-width="1" fill="none"></path></g></g><mask></mask><g stroke-linecap="round"><g transform="translate(807.3061402570479 331.5120366168065) rotate(0 0.3127536958065775 16.168493434539414)"><path d="M0 0 C0.1 5.39, 0.52 26.95, 0.63 32.34 M0 0 C0.1 5.39, 0.52 26.95, 0.63 32.34" stroke="#1e1e1e" stroke-width="1" fill="none"></path></g><g transform="translate(807.3061402570479 331.5120366168065) rotate(0 0.3127536958065775 16.168493434539414)"><path d="M0.63 32.34 L-5.98 18.87 L6.7 18.62 L0.63 32.34" stroke="none" stroke-width="0" fill="#1e1e1e" fill-rule="evenodd"></path><path d="M0.63 32.34 C-1.42 28.15, -3.47 23.97, -5.98 18.87 M0.63 32.34 C-1.49 28.03, -3.6 23.71, -5.98 18.87 M-5.98 18.87 C-2.08 18.79, 1.81 18.72, 6.7 18.62 M-5.98 18.87 C-1.65 18.78, 2.68 18.7, 6.7 18.62 M6.7 18.62 C4.72 23.08, 2.75 27.54, 0.63 32.34 M6.7 18.62 C4.86 22.77, 3.03 26.92, 0.63 32.34 M0.63 32.34 C0.63 32.34, 0.63 32.34, 0.63 32.34 M0.63 32.34 C0.63 32.34, 0.63 32.34, 0.63 32.34" stroke="#1e1e1e" stroke-width="1" fill="none"></path></g></g><mask></mask><g stroke-linecap="round"><g transform="translate(810.4184583968799 440.9895131232973) rotate(0 0.13229202088245984 12.823215677987037)"><path d="M0 0 C0.04 4.27, 0.22 21.37, 0.26 25.65 M0 0 C0.04 4.27, 0.22 21.37, 0.26 25.65" stroke="#1e1e1e" stroke-width="1" fill="none"></path></g><g transform="translate(810.4184583968799 440.9895131232973) rotate(0 0.13229202088245984 12.823215677987037)"><path d="M0.26 25.65 L-5.27 14.08 L5.56 13.97 L0.26 25.65" stroke="none" stroke-width="0" fill="#1e1e1e" fill-rule="evenodd"></path><path d="M0.26 25.65 C-1.72 21.5, -3.71 17.35, -5.27 14.08 M0.26 25.65 C-1.53 21.9, -3.32 18.16, -5.27 14.08 M-5.27 14.08 C-2.48 14.05, 0.31 14.02, 5.56 13.97 M-5.27 14.08 C-2.13 14.05, 1.01 14.02, 5.56 13.97 M5.56 13.97 C4.14 17.11, 2.71 20.26, 0.26 25.65 M5.56 13.97 C3.7 18.07, 1.84 22.17, 0.26 25.65 M0.26 25.65 C0.26 25.65, 0.26 25.65, 0.26 25.65 M0.26 25.65 C0.26 25.65, 0.26 25.65, 0.26 25.65" stroke="#1e1e1e" stroke-width="1" fill="none"></path></g></g><mask></mask><g stroke-linecap="round"><g transform="translate(812.4406065113294 542.1094150313786) rotate(0 -53.3743502552893 42.616286324925)"><path d="M0 0 C-17.79 14.21, -88.96 71.03, -106.75 85.23 M0 0 C-17.79 14.21, -88.96 71.03, -106.75 85.23" stroke="#1e1e1e" stroke-width="1" fill="none"></path></g><g transform="translate(812.4406065113294 542.1094150313786) rotate(0 -53.3743502552893 42.616286324925)"><path d="M-106.75 85.23 L-100.08 71.8 L-92.17 81.7 L-106.75 85.23" stroke="none" stroke-width="0" fill="#1e1e1e" fill-rule="evenodd"></path><path d="M-106.75 85.23 C-104.77 81.25, -102.79 77.26, -100.08 71.8 M-106.75 85.23 C-105.16 82.04, -103.58 78.85, -100.08 71.8 M-100.08 71.8 C-97.93 74.49, -95.78 77.18, -92.17 81.7 M-100.08 71.8 C-97.42 75.13, -94.76 78.46, -92.17 81.7 M-92.17 81.7 C-96.48 82.75, -100.79 83.79, -106.75 85.23 M-92.17 81.7 C-97.72 83.05, -103.28 84.39, -106.75 85.23 M-106.75 85.23 C-106.75 85.23, -106.75 85.23, -106.75 85.23 M-106.75 85.23 C-106.75 85.23, -106.75 85.23, -106.75 85.23" stroke="#1e1e1e" stroke-width="1" fill="none"></path></g></g><mask></mask><g stroke-linecap="round"><g transform="translate(825.5550391629913 542.1889996771865) rotate(0 284.5721225506388 44.49013170794234)"><path d="M0 0 C94.86 14.83, 474.29 74.15, 569.14 88.98 M0 0 C94.86 14.83, 474.29 74.15, 569.14 88.98" stroke="#1e1e1e" stroke-width="1" fill="none"></path></g><g transform="translate(825.5550391629913 542.1889996771865) rotate(0 284.5721225506388 44.49013170794234)"><path d="M569.14 88.98 L554.73 93.14 L556.69 80.62 L569.14 88.98" stroke="none" stroke-width="0" fill="#1e1e1e" fill-rule="evenodd"></path><path d="M569.14 88.98 C564.95 90.19, 560.76 91.4, 554.73 93.14 M569.14 88.98 C564.26 90.39, 559.38 91.8, 554.73 93.14 M554.73 93.14 C555.41 88.81, 556.09 84.47, 556.69 80.62 M554.73 93.14 C555.29 89.57, 555.85 86, 556.69 80.62 M556.69 80.62 C561.57 83.9, 566.46 87.17, 569.14 88.98 M556.69 80.62 C560.8 83.37, 564.9 86.13, 569.14 88.98 M569.14 88.98 C569.14 88.98, 569.14 88.98, 569.14 88.98 M569.14 88.98 C569.14 88.98, 569.14 88.98, 569.14 88.98" stroke="#1e1e1e" stroke-width="1" fill="none"></path></g></g><mask></mask><g stroke-linecap="round"><g transform="translate(795.6916687455923 540.1734138054617) rotate(0 -275.8151805657508 45.14159789083101)"><path d="M0 0 C-91.94 15.05, -459.69 75.24, -551.63 90.28 M0 0 C-91.94 15.05, -459.69 75.24, -551.63 90.28" stroke="#1e1e1e" stroke-width="1" fill="none"></path></g><g transform="translate(795.6916687455923 540.1734138054617) rotate(0 -275.8151805657508 45.14159789083101)"><path d="M-551.63 90.28 L-539.24 81.83 L-537.19 94.34 L-551.63 90.28" stroke="none" stroke-width="0" fill="#1e1e1e" fill-rule="evenodd"></path><path d="M-551.63 90.28 C-548.06 87.85, -544.49 85.41, -539.24 81.83 M-551.63 90.28 C-547.88 87.72, -544.12 85.16, -539.24 81.83 M-539.24 81.83 C-538.55 86.01, -537.87 90.2, -537.19 94.34 M-539.24 81.83 C-538.82 84.39, -538.4 86.95, -537.19 94.34 M-537.19 94.34 C-541.04 93.26, -544.89 92.18, -551.63 90.28 M-537.19 94.34 C-542.84 92.76, -548.48 91.17, -551.63 90.28 M-551.63 90.28 C-551.63 90.28, -551.63 90.28, -551.63 90.28 M-551.63 90.28 C-551.63 90.28, -551.63 90.28, -551.63 90.28" stroke="#1e1e1e" stroke-width="1" fill="none"></path></g></g><mask></mask><g stroke-linecap="round" transform="translate(808.6952245527345 1025.7023916793648) rotate(0 61.5 30)"><path d="M15 0 M15 0 C51.56 1.42, 87.65 -0.62, 108 0 M15 0 C52.01 1.13, 87.2 1.18, 108 0 M108 0 C118.13 1, 123.63 4.06, 123 15 M108 0 C119.46 2.01, 123.59 3.88, 123 15 M123 15 C122.56 26.82, 123.66 36.75, 123 45 M123 15 C122.44 20.43, 123.26 26.33, 123 45 M123 45 C122.15 56.35, 119.33 59.9, 108 60 M123 45 C123.78 54.78, 117.76 60.36, 108 60 M108 60 C75.66 59.91, 43.59 60.99, 15 60 M108 60 C82.36 59.83, 55.4 61.23, 15 60 M15 60 C5.43 58.52, -0.51 53.15, 0 45 M15 60 C3.88 57.78, 0.41 56.38, 0 45 M0 45 C-1.64 38.03, -0.67 33.66, 0 15 M0 45 C1.19 36.34, -0.39 29.17, 0 15 M0 15 C0.11 5.93, 4.4 -1.77, 15 0 M0 15 C-1.16 6.98, 4.36 -1.76, 15 0" stroke="#000000" stroke-width="1" fill="none"></path></g><g transform="translate(819.0352590375978 1030.7023916793648) rotate(0 51.15996551513672 25)"><text x="51.15996551513672" y="0" font-family="Virgil, Segoe UI Emoji" font-size="20px" fill="#000000" text-anchor="middle" style="white-space: pre;" direction="ltr" dominant-baseline="text-before-edge">div</text><text x="51.15996551513672" y="25" font-family="Virgil, Segoe UI Emoji" font-size="20px" fill="#000000" text-anchor="middle" style="white-space: pre;" direction="ltr" dominant-baseline="text-before-edge">id = e (14)</text></g><g stroke-linecap="round"><g transform="translate(783.4889024327085 1217.1459028975469) rotate(0 0.45698156966045644 27.016278889449723)"><path d="M0 0 C0.15 9.01, 0.76 45.03, 0.91 54.03 M0 0 C0.15 9.01, 0.76 45.03, 0.91 54.03" stroke="#1e1e1e" stroke-width="1" fill="none"></path></g><g transform="translate(783.4889024327085 1217.1459028975469) rotate(0 0.45698156966045644 27.016278889449723)"><path d="M0.91 54.03 L-5.65 40.55 L7.02 40.33 L0.91 54.03" stroke="none" stroke-width="0" fill="#1e1e1e" fill-rule="evenodd"></path><path d="M0.91 54.03 C-1.59 48.88, -4.1 43.74, -5.65 40.55 M0.91 54.03 C-0.53 51.06, -1.98 48.09, -5.65 40.55 M-5.65 40.55 C-1.69 40.48, 2.27 40.41, 7.02 40.33 M-5.65 40.55 C-1.64 40.48, 2.38 40.41, 7.02 40.33 M7.02 40.33 C4.74 45.45, 2.46 50.57, 0.91 54.03 M7.02 40.33 C5.24 44.33, 3.46 48.32, 0.91 54.03 M0.91 54.03 C0.91 54.03, 0.91 54.03, 0.91 54.03 M0.91 54.03 C0.91 54.03, 0.91 54.03, 0.91 54.03" stroke="#1e1e1e" stroke-width="1" fill="none"></path></g></g><mask></mask><g stroke-linecap="round"><g transform="translate(863.1795713190841 1090.0924597122212) rotate(0 -38.564874280397134 25.530011096043722)"><path d="M0 0 C-12.85 8.51, -64.27 42.55, -77.13 51.06 M0 0 C-12.85 8.51, -64.27 42.55, -77.13 51.06" stroke="#1e1e1e" stroke-width="1" fill="none"></path></g><g transform="translate(863.1795713190841 1090.0924597122212) rotate(0 -38.564874280397134 25.530011096043722)"><path d="M-77.13 51.06 L-69.29 38.27 L-62.29 48.84 L-77.13 51.06" stroke="none" stroke-width="0" fill="#1e1e1e" fill-rule="evenodd"></path><path d="M-77.13 51.06 C-74.86 47.35, -72.59 43.65, -69.29 38.27 M-77.13 51.06 C-75.14 47.81, -73.15 44.56, -69.29 38.27 M-69.29 38.27 C-67.87 40.42, -66.45 42.57, -62.29 48.84 M-69.29 38.27 C-67.48 41.01, -65.67 43.74, -62.29 48.84 M-62.29 48.84 C-66.16 49.42, -70.03 50, -77.13 51.06 M-62.29 48.84 C-66.96 49.54, -71.63 50.24, -77.13 51.06 M-77.13 51.06 C-77.13 51.06, -77.13 51.06, -77.13 51.06 M-77.13 51.06 C-77.13 51.06, -77.13 51.06, -77.13 51.06" stroke="#1e1e1e" stroke-width="1" fill="none"></path></g></g><mask></mask><g stroke-linecap="round"><g transform="translate(880.5414058017882 1091.0022950190173) rotate(0 40.74725171708337 22.933262155148782)"><path d="M0 0 C13.58 7.64, 67.91 38.22, 81.49 45.87 M0 0 C13.58 7.64, 67.91 38.22, 81.49 45.87" stroke="#1e1e1e" stroke-width="1" fill="none"></path></g><g transform="translate(880.5414058017882 1091.0022950190173) rotate(0 40.74725171708337 22.933262155148782)"><path d="M81.49 45.87 L66.54 44.72 L72.76 33.67 L81.49 45.87" stroke="none" stroke-width="0" fill="#1e1e1e" fill-rule="evenodd"></path><path d="M81.49 45.87 C76.04 45.45, 70.58 45.03, 66.54 44.72 M81.49 45.87 C76.02 45.45, 70.55 45.03, 66.54 44.72 M66.54 44.72 C68.66 40.96, 70.78 37.19, 72.76 33.67 M66.54 44.72 C67.79 42.5, 69.04 40.27, 72.76 33.67 M72.76 33.67 C76.01 38.21, 79.26 42.75, 81.49 45.87 M72.76 33.67 C75.3 37.22, 77.84 40.76, 81.49 45.87 M81.49 45.87 C81.49 45.87, 81.49 45.87, 81.49 45.87 M81.49 45.87 C81.49 45.87, 81.49 45.87, 81.49 45.87" stroke="#1e1e1e" stroke-width="1" fill="none"></path></g></g><mask></mask><g stroke-linecap="round"><g transform="translate(868.6879672673795 969.3502515674863) rotate(0 0.126808918718325 23.184077241434807)"><path d="M0 0 C0.04 7.73, 0.21 38.64, 0.25 46.37 M0 0 C0.04 7.73, 0.21 38.64, 0.25 46.37" stroke="#1e1e1e" stroke-width="1" fill="none"></path></g><g transform="translate(868.6879672673795 969.3502515674863) rotate(0 0.126808918718325 23.184077241434807)"><path d="M0.25 46.37 L-6.16 32.81 L6.52 32.74 L0.25 46.37" stroke="none" stroke-width="0" fill="#1e1e1e" fill-rule="evenodd"></path><path d="M0.25 46.37 C-1.35 42.98, -2.95 39.59, -6.16 32.81 M0.25 46.37 C-2.3 40.96, -4.86 35.56, -6.16 32.81 M-6.16 32.81 C-2 32.79, 2.15 32.76, 6.52 32.74 M-6.16 32.81 C-1.89 32.79, 2.38 32.76, 6.52 32.74 M6.52 32.74 C4.6 36.92, 2.68 41.1, 0.25 46.37 M6.52 32.74 C4.14 37.92, 1.76 43.1, 0.25 46.37 M0.25 46.37 C0.25 46.37, 0.25 46.37, 0.25 46.37 M0.25 46.37 C0.25 46.37, 0.25 46.37, 0.25 46.37" stroke="#1e1e1e" stroke-width="1" fill="none"></path></g></g><mask></mask><g stroke-linecap="round" transform="translate(1290.4901682982281 640.8123600991869) rotate(0 105.5 29.999999999999943)"><path d="M15 0 M15 0 C82.23 1.83, 152.85 2.89, 196 0 M196 0 C205.98 -0.73, 210.35 4.81, 211 15 M211 15 C210.19 25.26, 210.77 32.7, 211 45 M211 45 C210.35 56.13, 207.71 61.91, 196 60 M196 60 C141.9 57.76, 85.08 58.43, 15 60 M15 60 C5.34 61.95, -0.55 54.13, 0 45 M0 45 C0.98 40.14, 0.18 33.81, 0 15 M0 15 C-1.38 4.14, 3.9 -1.11, 15 0" stroke="#1e1e1e" stroke-width="1.5" fill="none" stroke-dasharray="1.5 7"></path></g><g transform="translate(1346.3801982054547 645.8123600991869) rotate(0 49.60997009277344 24.999999999999943)"><text x="49.60997009277344" y="0" font-family="Virgil, Segoe UI Emoji" font-size="20px" fill="#1e1e1e" text-anchor="middle" style="white-space: pre;" direction="ltr" dominant-baseline="text-before-edge">Counter</text><text x="49.60997009277344" y="25" font-family="Virgil, Segoe UI Emoji" font-size="20px" fill="#1e1e1e" text-anchor="middle" style="white-space: pre;" direction="ltr" dominant-baseline="text-before-edge">id = h (17)</text></g><g stroke-linecap="round" transform="translate(1143.1708001655834 906.1061908771017) rotate(0 105.5 30)"><path d="M15 0 M15 0 C77.1 -2.47, 138.58 -1.92, 196 0 M196 0 C206.28 1.22, 210.93 4, 211 15 M211 15 C210.29 26.39, 212.65 37.43, 211 45 M211 45 C211.18 55.64, 205.41 61.81, 196 60 M196 60 C157.53 61.01, 117.83 58.19, 15 60 M15 60 C3.34 60.89, -0.12 56.12, 0 45 M0 45 C-1.43 32.68, -1.15 20.97, 0 15 M0 15 C-0.21 5.75, 3.78 0.8, 15 0" stroke="#1e1e1e" stroke-width="1.5" fill="none" stroke-dasharray="1.5 7"></path></g><g transform="translate(1200.0108270210521 911.1061908771017) rotate(0 48.65997314453125 25)"><text x="48.65997314453125" y="0" font-family="Virgil, Segoe UI Emoji" font-size="20px" fill="#1e1e1e" text-anchor="middle" style="white-space: pre;" direction="ltr" dominant-baseline="text-before-edge">Wrapper</text><text x="48.65997314453125" y="25" font-family="Virgil, Segoe UI Emoji" font-size="20px" fill="#1e1e1e" text-anchor="middle" style="white-space: pre;" direction="ltr" dominant-baseline="text-before-edge">id = j (19)</text></g><g stroke-linecap="round" transform="translate(1335.0307663485755 763.4736706376098) rotate(0 61.5 30)"><path d="M15 0 M15 0 C39.79 1.31, 63.94 -0.91, 108 0 M15 0 C46.48 1.09, 79.47 1.48, 108 0 M108 0 C118.18 0.64, 122.41 6.81, 123 15 M108 0 C116.03 1.03, 121.81 5.39, 123 15 M123 15 C121.25 27.81, 122.8 39.96, 123 45 M123 15 C122.36 26.04, 122.5 37.37, 123 45 M123 45 C122.79 55.75, 116.78 60.8, 108 60 M123 45 C124.45 54.33, 117.51 59.13, 108 60 M108 60 C90.82 62.09, 68.55 61.84, 15 60 M108 60 C85.74 59.05, 63.45 60.16, 15 60 M15 60 C4.45 59.69, -0.26 56.77, 0 45 M15 60 C3.09 59.5, -1.88 55.39, 0 45 M0 45 C-0.68 36.29, 1.48 32.45, 0 15 M0 45 C0.43 36.1, 0.07 26.63, 0 15 M0 15 C0.97 4.14, 6.85 1.84, 15 0 M0 15 C-1.11 5.78, 6.1 -2.28, 15 0" stroke="#000000" stroke-width="1" fill="none"></path></g><g transform="translate(1347.4007996127357 768.4736706376098) rotate(0 49.129966735839844 25)"><text x="49.129966735839844" y="0" font-family="Virgil, Segoe UI Emoji" font-size="20px" fill="#000000" text-anchor="middle" style="white-space: pre;" direction="ltr" dominant-baseline="text-before-edge">div</text><text x="49.129966735839844" y="25" font-family="Virgil, Segoe UI Emoji" font-size="20px" fill="#000000" text-anchor="middle" style="white-space: pre;" direction="ltr" dominant-baseline="text-before-edge">id = i (18)</text></g><g stroke-linecap="round" transform="translate(1162.0545011095578 1027.5909303244616) rotate(0 77.5 30)"><path d="M15 0 M15 0 C60.96 0.21, 104.11 -0.03, 140 0 M15 0 C59.66 -0.87, 103.84 -0.29, 140 0 M140 0 C148.29 0.9, 153.97 5.34, 155 15 M140 0 C152.24 -0.64, 154 3.09, 155 15 M155 15 C156.62 25.64, 156.79 34.28, 155 45 M155 15 C154.73 23.09, 154.23 30.83, 155 45 M155 45 C156.26 54.42, 149.58 59.24, 140 60 M155 45 C152.83 56.27, 150.41 62.26, 140 60 M140 60 C89.19 59.77, 39.54 60.59, 15 60 M140 60 C106.19 60.83, 72.79 61.88, 15 60 M15 60 C3.34 59.56, -1.63 55.34, 0 45 M15 60 C3.44 61.03, -1.39 54.37, 0 45 M0 45 C0.06 39.14, 1.44 33.25, 0 15 M0 45 C0.44 33.9, 0.88 24.58, 0 15 M0 15 C-0.97 5.68, 5.96 -1.98, 15 0 M0 15 C1.68 3.9, 3.69 1.95, 15 0" stroke="#000000" stroke-width="1" fill="none"></path></g><g transform="translate(1184.1045346788937 1032.5909303244616) rotate(0 55.44996643066406 25)"><text x="55.44996643066406" y="0" font-family="Virgil, Segoe UI Emoji" font-size="20px" fill="#000000" text-anchor="middle" style="white-space: pre;" direction="ltr" dominant-baseline="text-before-edge">div</text><text x="55.44996643066406" y="25" font-family="Virgil, Segoe UI Emoji" font-size="20px" fill="#000000" text-anchor="middle" style="white-space: pre;" direction="ltr" dominant-baseline="text-before-edge">id = k (20)</text></g><g stroke-linecap="round" transform="translate(1142.6926116308596 1145.9002188392642) rotate(0 105.5 30)"><path d="M15 0 M15 0 C66.67 2.3, 117.99 0.77, 196 0 M196 0 C206.64 -0.59, 212.81 3.29, 211 15 M211 15 C212.79 24.79, 209.97 34.02, 211 45 M211 45 C211.89 54.88, 207.12 61.64, 196 60 M196 60 C138.01 57.65, 80.62 58.54, 15 60 M15 60 C5.75 58.78, 0.8 56.26, 0 45 M0 45 C-1.82 37.98, 0.42 30.72, 0 15 M0 15 C1.93 3.83, 6.67 -1.26, 15 0" stroke="#1e1e1e" stroke-width="1.5" fill="none" stroke-dasharray="1.5 7"></path></g><g transform="translate(1199.1526412329104 1150.9002188392642) rotate(0 49.03997039794922 25)"><text x="49.03997039794922" y="0" font-family="Virgil, Segoe UI Emoji" font-size="20px" fill="#1e1e1e" text-anchor="middle" style="white-space: pre;" direction="ltr" dominant-baseline="text-before-edge">Display</text><text x="49.03997039794922" y="25" font-family="Virgil, Segoe UI Emoji" font-size="20px" fill="#1e1e1e" text-anchor="middle" style="white-space: pre;" direction="ltr" dominant-baseline="text-before-edge">id = l (21)</text></g><g stroke-linecap="round" transform="translate(1174.2350263754324 1276.0578843781295) rotate(0 76.5 30)"><path d="M15 0 M15 0 C63.06 -0.7, 111.64 -1.82, 138 0 M15 0 C58.38 -0.49, 99.38 -1.04, 138 0 M138 0 C148.89 -0.12, 154.12 6.64, 153 15 M138 0 C148.36 2.08, 151.41 4.02, 153 15 M153 15 C153.59 21.13, 153.63 30.95, 153 45 M153 15 C151.99 23.68, 153.11 32.23, 153 45 M153 45 C154.93 53.83, 149.67 58.74, 138 60 M153 45 C151.53 53.43, 147.47 59.27, 138 60 M138 60 C106.92 59.4, 78.23 58, 15 60 M138 60 C103.1 60.66, 68.96 59.94, 15 60 M15 60 C3.26 61.62, 1.39 55.3, 0 45 M15 60 C5.61 61.93, 1.17 56.28, 0 45 M0 45 C-1.02 37.41, 1.68 25.15, 0 15 M0 45 C0.59 34.5, -0.72 25.81, 0 15 M0 15 C0.98 5.59, 5.25 0.99, 15 0 M0 15 C-1.43 3.5, 4.21 -2.25, 15 0" stroke="#000000" stroke-width="1" fill="none"></path></g><g transform="translate(1193.5850629965262 1281.0578843781295) rotate(0 57.14996337890625 25)"><text x="57.14996337890625" y="0" font-family="Virgil, Segoe UI Emoji" font-size="20px" fill="#000000" text-anchor="middle" style="white-space: pre;" direction="ltr" dominant-baseline="text-before-edge">h3</text><text x="57.14996337890625" y="25" font-family="Virgil, Segoe UI Emoji" font-size="20px" fill="#000000" text-anchor="middle" style="white-space: pre;" direction="ltr" dominant-baseline="text-before-edge">id = m (22)</text></g><g stroke-linecap="round" transform="translate(1453.2035991989278 903.254368557843) rotate(0 105.5 30)"><path d="M15 0 M15 0 C64.86 0.52, 113.28 3.5, 196 0 M196 0 C205.45 -0.87, 209.34 5.89, 211 15 M211 15 C211.48 25.63, 209.79 31.78, 211 45 M211 45 C209.9 53.89, 205.79 60.75, 196 60 M196 60 C152.14 60.72, 108.68 59.26, 15 60 M15 60 C6.11 60.36, 1.96 56.93, 0 45 M0 45 C-1.53 36.39, -0.71 29.87, 0 15 M0 15 C-1 6.58, 4.45 -0.31, 15 0" stroke="#1e1e1e" stroke-width="1.5" fill="none" stroke-dasharray="1.5 7"></path></g><g transform="translate(1503.063637956252 908.254368557843) rotate(0 55.63996124267578 25)"><text x="55.63996124267578" y="0" font-family="Virgil, Segoe UI Emoji" font-size="20px" fill="#1e1e1e" text-anchor="middle" style="white-space: pre;" direction="ltr" dominant-baseline="text-before-edge">Actions</text><text x="55.63996124267578" y="25" font-family="Virgil, Segoe UI Emoji" font-size="20px" fill="#1e1e1e" text-anchor="middle" style="white-space: pre;" direction="ltr" dominant-baseline="text-before-edge">id = o (24)</text></g><g stroke-linecap="round" transform="translate(1129.1997956627347 1393.549496059039) rotate(0 123.5 42.5)"><path d="M21.25 0 M21.25 0 C71.54 -2.55, 121.34 -0.98, 225.75 0 M21.25 0 C81.51 -0.69, 140.87 -1.88, 225.75 0 M225.75 0 C238.81 -1.11, 246.79 7.84, 247 21.25 M225.75 0 C238.52 0.92, 248.45 6.41, 247 21.25 M247 21.25 C247.95 33.46, 248.8 46.87, 247 63.75 M247 21.25 C246.72 30.84, 247.13 41.47, 247 63.75 M247 63.75 C246 79.5, 239.36 84.69, 225.75 85 M247 63.75 C246.7 79.96, 238.01 84.5, 225.75 85 M225.75 85 C181.91 82.69, 135.98 82.21, 21.25 85 M225.75 85 C148.1 86.03, 70.43 85.77, 21.25 85 M21.25 85 C7.38 86.08, 0.97 77.06, 0 63.75 M21.25 85 C9.21 87.12, -1.11 78.7, 0 63.75 M0 63.75 C-0.53 47.82, 2.12 35.16, 0 21.25 M0 63.75 C-0.67 49.09, -0.4 34.75, 0 21.25 M0 21.25 C-1.53 6.87, 8.76 -0.95, 21.25 0 M0 21.25 C0.28 8.56, 5.31 0.23, 21.25 0" stroke="#000000" stroke-width="1" fill="none"></path></g><g transform="translate(1145.8298920982816 1411.049496059039) rotate(0 106.86990356445312 25)"><text x="106.86990356445312" y="0" font-family="Virgil, Segoe UI Emoji" font-size="20px" fill="#000000" text-anchor="middle" style="white-space: pre;" direction="ltr" dominant-baseline="text-before-edge">{numberToShow.value}</text><text x="106.86990356445312" y="25" font-family="Virgil, Segoe UI Emoji" font-size="20px" fill="#000000" text-anchor="middle" style="white-space: pre;" direction="ltr" dominant-baseline="text-before-edge">id = n (23)</text></g><g stroke-linecap="round" transform="translate(1405.3436610047875 1148.6047726555844) rotate(0 71.5 30)"><path d="M15 0 M15 0 C43.86 0.62, 74.61 -0.19, 128 0 M15 0 C58.59 -0.07, 103.17 0.86, 128 0 M128 0 C136.78 0.8, 144.26 4.42, 143 15 M128 0 C137.51 -0.87, 140.83 6.27, 143 15 M143 15 C142.13 26.21, 142.03 32.79, 143 45 M143 15 C142.43 22.74, 142.65 28.75, 143 45 M143 45 C142.74 56.77, 136.34 59.56, 128 60 M143 45 C141.12 55.39, 136.44 61.03, 128 60 M128 60 C102.54 60.41, 74.14 59.54, 15 60 M128 60 C84.75 61.17, 41.68 60.2, 15 60 M15 60 C6.85 61.84, -0.97 55.68, 0 45 M15 60 C6.1 57.72, 1.68 53.9, 0 45 M0 45 C0.34 37.96, 0.73 29.19, 0 15 M0 45 C-0.66 37.84, 0.94 30.42, 0 15 M0 15 C0.24 6.28, 3.46 0.2, 15 0 M0 15 C-1.55 6.93, 5.27 2.01, 15 0" stroke="#000000" stroke-width="1" fill="none"></path></g><g transform="translate(1421.2836939637718 1153.6047726555844) rotate(0 55.559967041015625 25)"><text x="55.559967041015625" y="0" font-family="Virgil, Segoe UI Emoji" font-size="20px" fill="#000000" text-anchor="middle" style="white-space: pre;" direction="ltr" dominant-baseline="text-before-edge">button</text><text x="55.559967041015625" y="25" font-family="Virgil, Segoe UI Emoji" font-size="20px" fill="#000000" text-anchor="middle" style="white-space: pre;" direction="ltr" dominant-baseline="text-before-edge">id = q (26)</text></g><g stroke-linecap="round" transform="translate(1575.5600739767988 1146.421841385093) rotate(0 73.5 30)"><path d="M15 0 M15 0 C58.45 -1.56, 97.42 -1.29, 132 0 M15 0 C43.01 -0.04, 72.87 -0.73, 132 0 M132 0 C141.58 -0.76, 145.12 6.11, 147 15 M132 0 C142.41 2.26, 149.22 3.66, 147 15 M147 15 C145.45 26.05, 146.18 37.02, 147 45 M147 15 C146.79 27.26, 146.09 37.53, 147 45 M147 45 C145.37 55.34, 140.65 60.9, 132 60 M147 45 C145.61 54.37, 139.99 61.86, 132 60 M132 60 C90.43 61.32, 46.6 60.6, 15 60 M132 60 C91.49 60.42, 48.65 59.84, 15 60 M15 60 C5.96 58.02, 1.46 54.05, 0 45 M15 60 C3.69 61.95, 1.12 55.68, 0 45 M0 45 C-1.45 34.93, -2.1 24.72, 0 15 M0 45 C-0.13 36.97, -1.02 27.75, 0 15 M0 15 C-1.35 6.68, 5.24 1.75, 15 0 M0 15 C0.9 3.26, 3.92 2.26, 15 0" stroke="#000000" stroke-width="1" fill="none"></path></g><g transform="translate(1595.680107240959 1151.421841385093) rotate(0 53.379966735839844 25)"><text x="53.379966735839844" y="0" font-family="Virgil, Segoe UI Emoji" font-size="20px" fill="#000000" text-anchor="middle" style="white-space: pre;" direction="ltr" dominant-baseline="text-before-edge">button</text><text x="53.379966735839844" y="25" font-family="Virgil, Segoe UI Emoji" font-size="20px" fill="#000000" text-anchor="middle" style="white-space: pre;" direction="ltr" dominant-baseline="text-before-edge">id = r (27)</text></g><g stroke-linecap="round" transform="translate(1410.3424683125604 1279.8560812646647) rotate(0 66.5 26)"><path d="M13 0 M13 0 C36.61 0.38, 63.18 -0.63, 120 0 M13 0 C49.16 -0.07, 84.8 0.87, 120 0 M120 0 C129.02 1.96, 134.93 3.17, 133 13 M120 0 C130.59 -1.45, 131.53 2.76, 133 13 M133 13 C134.5 19.65, 132.6 27.15, 133 39 M133 13 C131.97 23.28, 132.11 33.66, 133 39 M133 39 C131.79 47.12, 126.92 53.62, 120 52 M133 39 C134.6 48.01, 129.28 53.93, 120 52 M120 52 C83.56 53.12, 44.09 54.01, 13 52 M120 52 C78.51 51.37, 36.79 51.89, 13 52 M13 52 C3.19 53.7, 0.98 48.26, 0 39 M13 52 C4.62 53.14, -1.43 46.17, 0 39 M0 39 C0.04 33.77, -0.7 25.44, 0 13 M0 39 C-0.47 30.37, 0.32 20.94, 0 13 M0 13 C0.78 2.82, 3.39 1.97, 13 0 M0 13 C0.17 2.29, 2.54 -0.97, 13 0" stroke="#000000" stroke-width="1" fill="none"></path></g><g transform="translate(1433.0725098164667 1293.3560812646647) rotate(0 43.76995849609375 12.5)"><text x="43.76995849609375" y="0" font-family="Virgil, Segoe UI Emoji" font-size="20px" fill="#000000" text-anchor="middle" style="white-space: pre;" direction="ltr" dominant-baseline="text-before-edge">increment</text></g><g stroke-linecap="round" transform="translate(1591.570674367419 1277.727028484861) rotate(0 65.5 26)"><path d="M13 0 M13 0 C44.2 1.9, 73.22 0.22, 118 0 M13 0 C40.7 0.4, 69 -1.16, 118 0 M118 0 C128.34 -1.26, 129.72 2.97, 131 13 M118 0 C126.14 -0.73, 129.85 6.15, 131 13 M131 13 C132.73 18.42, 130.52 25.53, 131 39 M131 13 C130.22 20.97, 129.95 30.3, 131 39 M131 39 C132.39 47.97, 127.2 53.68, 118 52 M131 39 C132.17 48.95, 127 53.25, 118 52 M118 52 C83.27 52, 45.53 53.93, 13 52 M118 52 C96.32 52.35, 76.27 51.8, 13 52 M13 52 C4.58 52.99, -1.24 46.37, 0 39 M13 52 C3.54 49.75, -1.76 47.42, 0 39 M0 39 C1.41 27.48, 0.32 17.7, 0 13 M0 39 C0.36 28.25, -0.5 20.01, 0 13 M0 13 C0.15 2.56, 2.78 -0.84, 13 0 M0 13 C-1.43 2.59, 3.61 1.91, 13 0" stroke="#000000" stroke-width="1" fill="none"></path></g><g transform="translate(1609.000720448962 1291.227028484861) rotate(0 48.06995391845703 12.5)"><text x="48.06995391845703" y="0" font-family="Virgil, Segoe UI Emoji" font-size="20px" fill="#000000" text-anchor="middle" style="white-space: pre;" direction="ltr" dominant-baseline="text-before-edge">decrement</text></g><g stroke-linecap="round"><g transform="translate(1398.1531645699388 705.5801281121003) rotate(0 0.38081951130016023 26.11046568990855)"><path d="M0 0 C0.13 8.7, 0.63 43.52, 0.76 52.22 M0 0 C0.13 8.7, 0.63 43.52, 0.76 52.22" stroke="#1e1e1e" stroke-width="1" fill="none"></path></g><g transform="translate(1398.1531645699388 705.5801281121003) rotate(0 0.38081951130016023 26.11046568990855)"><path d="M0.76 52.22 L-5.78 38.72 L6.9 38.54 L0.76 52.22" stroke="none" stroke-width="0" fill="#1e1e1e" fill-rule="evenodd"></path><path d="M0.76 52.22 C-1.61 47.32, -3.98 42.42, -5.78 38.72 M0.76 52.22 C-0.79 49.02, -2.33 45.83, -5.78 38.72 M-5.78 38.72 C-3.02 38.68, -0.27 38.64, 6.9 38.54 M-5.78 38.72 C-1.78 38.66, 2.21 38.6, 6.9 38.54 M6.9 38.54 C5.36 41.98, 3.81 45.42, 0.76 52.22 M6.9 38.54 C4.76 43.32, 2.61 48.1, 0.76 52.22 M0.76 52.22 C0.76 52.22, 0.76 52.22, 0.76 52.22 M0.76 52.22 C0.76 52.22, 0.76 52.22, 0.76 52.22" stroke="#1e1e1e" stroke-width="1" fill="none"></path></g></g><mask></mask><g stroke-linecap="round"><g transform="translate(1396.463736123841 829.4349897503494) rotate(0 -77.08533887408885 33.01261862533238)"><path d="M0 0 C-25.7 11, -128.48 55.02, -154.17 66.03 M0 0 C-25.7 11, -128.48 55.02, -154.17 66.03" stroke="#1e1e1e" stroke-width="1" fill="none"></path></g><g transform="translate(1396.463736123841 829.4349897503494) rotate(0 -77.08533887408885 33.01261862533238)"><path d="M-154.17 66.03 L-144.17 54.85 L-139.18 66.5 L-154.17 66.03" stroke="none" stroke-width="0" fill="#1e1e1e" fill-rule="evenodd"></path><path d="M-154.17 66.03 C-151.38 62.91, -148.59 59.79, -144.17 54.85 M-154.17 66.03 C-151.85 63.43, -149.53 60.84, -144.17 54.85 M-144.17 54.85 C-143.08 57.39, -141.99 59.93, -139.18 66.5 M-144.17 54.85 C-142.25 59.32, -140.34 63.8, -139.18 66.5 M-139.18 66.5 C-144.39 66.34, -149.61 66.17, -154.17 66.03 M-139.18 66.5 C-142.7 66.39, -146.22 66.28, -154.17 66.03 M-154.17 66.03 C-154.17 66.03, -154.17 66.03, -154.17 66.03 M-154.17 66.03 C-154.17 66.03, -154.17 66.03, -154.17 66.03" stroke="#1e1e1e" stroke-width="1" fill="none"></path></g></g><mask></mask><g stroke-linecap="round"><g transform="translate(1401.919193782881 829.1789924730001) rotate(0 74.58386779637885 32.687647988283516)"><path d="M0 0 C24.86 10.9, 124.31 54.48, 149.17 65.38 M0 0 C24.86 10.9, 124.31 54.48, 149.17 65.38" stroke="#1e1e1e" stroke-width="1" fill="none"></path></g><g transform="translate(1401.919193782881 829.1789924730001) rotate(0 74.58386779637885 32.687647988283516)"><path d="M149.17 65.38 L134.17 65.72 L139.26 54.11 L149.17 65.38" stroke="none" stroke-width="0" fill="#1e1e1e" fill-rule="evenodd"></path><path d="M149.17 65.38 C146.08 65.45, 142.99 65.52, 134.17 65.72 M149.17 65.38 C145.14 65.47, 141.12 65.56, 134.17 65.72 M134.17 65.72 C135.35 63.03, 136.54 60.33, 139.26 54.11 M134.17 65.72 C135.98 61.59, 137.79 57.46, 139.26 54.11 M139.26 54.11 C142.96 58.31, 146.65 62.52, 149.17 65.38 M139.26 54.11 C141.26 56.39, 143.27 58.67, 149.17 65.38 M149.17 65.38 C149.17 65.38, 149.17 65.38, 149.17 65.38 M149.17 65.38 C149.17 65.38, 149.17 65.38, 149.17 65.38" stroke="#1e1e1e" stroke-width="1" fill="none"></path></g></g><mask></mask><g stroke-linecap="round"><g transform="translate(1238.666256048241 972.2528479629341) rotate(0 0.27962675112439683 23.22650799489338)"><path d="M0 0 C0.09 7.74, 0.47 38.71, 0.56 46.45 M0 0 C0.09 7.74, 0.47 38.71, 0.56 46.45" stroke="#1e1e1e" stroke-width="1" fill="none"></path></g><g transform="translate(1238.666256048241 972.2528479629341) rotate(0 0.27962675112439683 23.22650799489338)"><path d="M0.56 46.45 L-5.94 32.94 L6.73 32.78 L0.56 46.45" stroke="none" stroke-width="0" fill="#1e1e1e" fill-rule="evenodd"></path><path d="M0.56 46.45 C-1.51 42.16, -3.57 37.86, -5.94 32.94 M0.56 46.45 C-1.91 41.33, -4.37 36.2, -5.94 32.94 M-5.94 32.94 C-2.91 32.9, 0.13 32.86, 6.73 32.78 M-5.94 32.94 C-1.45 32.88, 3.04 32.83, 6.73 32.78 M6.73 32.78 C5.23 36.1, 3.74 39.42, 0.56 46.45 M6.73 32.78 C4.95 36.74, 3.16 40.69, 0.56 46.45 M0.56 46.45 C0.56 46.45, 0.56 46.45, 0.56 46.45 M0.56 46.45 C0.56 46.45, 0.56 46.45, 0.56 46.45" stroke="#1e1e1e" stroke-width="1" fill="none"></path></g></g><mask></mask><g stroke-linecap="round"><g transform="translate(1237.8705761672318 1092.5301172481913) rotate(0 0.44131194521060024 22.444327790560465)"><path d="M0 0 C0.15 7.48, 0.74 37.41, 0.88 44.89 M0 0 C0.15 7.48, 0.74 37.41, 0.88 44.89" stroke="#1e1e1e" stroke-width="1" fill="none"></path></g><g transform="translate(1237.8705761672318 1092.5301172481913) rotate(0 0.44131194521060024 22.444327790560465)"><path d="M0.88 44.89 L-5.72 31.42 L6.95 31.17 L0.88 44.89" stroke="none" stroke-width="0" fill="#1e1e1e" fill-rule="evenodd"></path><path d="M0.88 44.89 C-1.74 39.55, -4.35 34.21, -5.72 31.42 M0.88 44.89 C-1 41.06, -2.87 37.23, -5.72 31.42 M-5.72 31.42 C-3.02 31.37, -0.33 31.32, 6.95 31.17 M-5.72 31.42 C-2.46 31.36, 0.8 31.29, 6.95 31.17 M6.95 31.17 C4.84 35.96, 2.72 40.74, 0.88 44.89 M6.95 31.17 C5.42 34.63, 3.89 38.09, 0.88 44.89 M0.88 44.89 C0.88 44.89, 0.88 44.89, 0.88 44.89 M0.88 44.89 C0.88 44.89, 0.88 44.89, 0.88 44.89" stroke="#1e1e1e" stroke-width="1" fill="none"></path></g></g><mask></mask><g stroke-linecap="round"><g transform="translate(1240.9563027853424 1206.9002188392642) rotate(0 -0.3727429618822953 34.07883276943278)"><path d="M0 0 C-0.12 11.36, -0.62 56.8, -0.75 68.16 M0 0 C-0.12 11.36, -0.62 56.8, -0.75 68.16" stroke="#1e1e1e" stroke-width="1" fill="none"></path></g><g transform="translate(1240.9563027853424 1206.9002188392642) rotate(0 -0.3727429618822953 34.07883276943278)"><path d="M-0.75 68.16 L-6.94 54.49 L5.74 54.63 L-0.75 68.16" stroke="none" stroke-width="0" fill="#1e1e1e" fill-rule="evenodd"></path><path d="M-0.75 68.16 C-3.12 62.92, -5.5 57.67, -6.94 54.49 M-0.75 68.16 C-3.15 62.85, -5.56 57.54, -6.94 54.49 M-6.94 54.49 C-2.25 54.55, 2.44 54.6, 5.74 54.63 M-6.94 54.49 C-1.96 54.55, 3.01 54.6, 5.74 54.63 M5.74 54.63 C3.71 58.86, 1.69 63.09, -0.75 68.16 M5.74 54.63 C3.38 59.56, 1.02 64.48, -0.75 68.16 M-0.75 68.16 C-0.75 68.16, -0.75 68.16, -0.75 68.16 M-0.75 68.16 C-0.75 68.16, -0.75 68.16, -0.75 68.16" stroke="#1e1e1e" stroke-width="1" fill="none"></path></g></g><mask></mask><g stroke-linecap="round"><g transform="translate(1241.9599292621378 1337.0578843781298) rotate(0 0.5008898993582989 27.745805840454636)"><path d="M0 0 C0.17 9.25, 0.83 46.24, 1 55.49 M0 0 C0.17 9.25, 0.83 46.24, 1 55.49" stroke="#1e1e1e" stroke-width="1" fill="none"></path></g><g transform="translate(1241.9599292621378 1337.0578843781298) rotate(0 0.5008898993582989 27.745805840454636)"><path d="M1 55.49 L-5.58 42.01 L7.09 41.78 L1 55.49" stroke="none" stroke-width="0" fill="#1e1e1e" fill-rule="evenodd"></path><path d="M1 55.49 C-0.55 52.31, -2.11 49.13, -5.58 42.01 M1 55.49 C-0.83 51.74, -2.66 47.99, -5.58 42.01 M-5.58 42.01 C-1.44 41.94, 2.7 41.86, 7.09 41.78 M-5.58 42.01 C-1.35 41.94, 2.89 41.86, 7.09 41.78 M7.09 41.78 C5.64 45.05, 4.19 48.31, 1 55.49 M7.09 41.78 C5.21 46.03, 3.32 50.28, 1 55.49 M1 55.49 C1 55.49, 1 55.49, 1 55.49 M1 55.49 C1 55.49, 1 55.49, 1 55.49" stroke="#1e1e1e" stroke-width="1" fill="none"></path></g></g><mask></mask><g stroke-linecap="round"><g transform="translate(1646.8522665771252 1213.6503206410061) rotate(0 0.8316318936961125 28.542990536540742)"><path d="M0 0 C0.28 9.51, 1.39 47.57, 1.66 57.09 M0 0 C0.28 9.51, 1.39 47.57, 1.66 57.09" stroke="#1e1e1e" stroke-width="1" fill="none"></path></g><g transform="translate(1646.8522665771252 1213.6503206410061) rotate(0 0.8316318936961125 28.542990536540742)"><path d="M1.66 57.09 L-5.07 43.68 L7.6 43.31 L1.66 57.09" stroke="none" stroke-width="0" fill="#1e1e1e" fill-rule="evenodd"></path><path d="M1.66 57.09 C-0.2 53.37, -2.07 49.66, -5.07 43.68 M1.66 57.09 C-0.47 52.83, -2.61 48.58, -5.07 43.68 M-5.07 43.68 C-0.62 43.55, 3.82 43.42, 7.6 43.31 M-5.07 43.68 C-2.52 43.61, 0.03 43.53, 7.6 43.31 M7.6 43.31 C6.03 46.97, 4.45 50.62, 1.66 57.09 M7.6 43.31 C5.32 48.6, 3.04 53.89, 1.66 57.09 M1.66 57.09 C1.66 57.09, 1.66 57.09, 1.66 57.09 M1.66 57.09 C1.66 57.09, 1.66 57.09, 1.66 57.09" stroke="#1e1e1e" stroke-width="1" fill="none"></path></g></g><mask></mask><g stroke-linecap="round" transform="translate(1499.1481576038532 1025.7139913019182) rotate(0 61.5 30)"><path d="M15 0 M15 0 C37.95 0, 63.31 -1.4, 108 0 M15 0 C40.2 0.29, 66.14 -0.43, 108 0 M108 0 C116.26 1.62, 124.39 5.3, 123 15 M108 0 C118.61 1.93, 124.17 6.28, 123 15 M123 15 C122.31 26.29, 125.01 32.91, 123 45 M123 15 C123.87 24.55, 122.57 35.89, 123 45 M123 45 C123.98 55.59, 118.25 60.99, 108 60 M123 45 C121.57 53.5, 117.21 57.75, 108 60 M108 60 C86.24 61.02, 67.68 59.24, 15 60 M108 60 C79.29 61.66, 50.73 60.02, 15 60 M15 60 C4.06 61.97, 0.15 53.23, 0 45 M15 60 C3.21 59.03, -1.43 53.25, 0 45 M0 45 C1.6 35.24, 1.59 28.95, 0 15 M0 45 C-0.63 33.8, 0.47 21.53, 0 15 M0 15 C-1.95 3.11, 6.61 -1.45, 15 0 M0 15 C-0.82 3.35, 5.51 -0.33, 15 0" stroke="#000000" stroke-width="1" fill="none"></path></g><g transform="translate(1505.838198192232 1030.7139913019182) rotate(0 54.809959411621094 25)"><text x="54.809959411621094" y="0" font-family="Virgil, Segoe UI Emoji" font-size="20px" fill="#000000" text-anchor="middle" style="white-space: pre;" direction="ltr" dominant-baseline="text-before-edge">div</text><text x="54.809959411621094" y="25" font-family="Virgil, Segoe UI Emoji" font-size="20px" fill="#000000" text-anchor="middle" style="white-space: pre;" direction="ltr" dominant-baseline="text-before-edge">id = p (25)</text></g><g stroke-linecap="round"><g transform="translate(1473.9418354838272 1217.1575025201) rotate(0 0.45698156966045644 27.016278889449723)"><path d="M0 0 C0.15 9.01, 0.76 45.03, 0.91 54.03 M0 0 C0.15 9.01, 0.76 45.03, 0.91 54.03" stroke="#1e1e1e" stroke-width="1" fill="none"></path></g><g transform="translate(1473.9418354838272 1217.1575025201) rotate(0 0.45698156966045644 27.016278889449723)"><path d="M0.91 54.03 L-5.65 40.55 L7.02 40.33 L0.91 54.03" stroke="none" stroke-width="0" fill="#1e1e1e" fill-rule="evenodd"></path><path d="M0.91 54.03 C-0.97 50.16, -2.86 46.29, -5.65 40.55 M0.91 54.03 C-1.59 48.9, -4.09 43.76, -5.65 40.55 M-5.65 40.55 C-0.68 40.46, 4.29 40.38, 7.02 40.33 M-5.65 40.55 C-1.48 40.48, 2.7 40.41, 7.02 40.33 M7.02 40.33 C5.12 44.61, 3.21 48.88, 0.91 54.03 M7.02 40.33 C4.59 45.79, 2.15 51.25, 0.91 54.03 M0.91 54.03 C0.91 54.03, 0.91 54.03, 0.91 54.03 M0.91 54.03 C0.91 54.03, 0.91 54.03, 0.91 54.03" stroke="#1e1e1e" stroke-width="1" fill="none"></path></g></g><mask></mask><g stroke-linecap="round"><g transform="translate(1553.6325043702027 1090.1040593347743) rotate(0 -38.564874280397134 25.530011096043722)"><path d="M0 0 C-12.85 8.51, -64.27 42.55, -77.13 51.06 M0 0 C-12.85 8.51, -64.27 42.55, -77.13 51.06" stroke="#1e1e1e" stroke-width="1" fill="none"></path></g><g transform="translate(1553.6325043702027 1090.1040593347743) rotate(0 -38.564874280397134 25.530011096043722)"><path d="M-77.13 51.06 L-69.29 38.27 L-62.29 48.84 L-77.13 51.06" stroke="none" stroke-width="0" fill="#1e1e1e" fill-rule="evenodd"></path><path d="M-77.13 51.06 C-75.43 48.28, -73.73 45.51, -69.29 38.27 M-77.13 51.06 C-74.66 47.03, -72.19 43, -69.29 38.27 M-69.29 38.27 C-67.53 40.93, -65.77 43.59, -62.29 48.84 M-69.29 38.27 C-66.85 41.96, -64.4 45.66, -62.29 48.84 M-62.29 48.84 C-65.6 49.34, -68.91 49.83, -77.13 51.06 M-62.29 48.84 C-65.43 49.31, -68.57 49.78, -77.13 51.06 M-77.13 51.06 C-77.13 51.06, -77.13 51.06, -77.13 51.06 M-77.13 51.06 C-77.13 51.06, -77.13 51.06, -77.13 51.06" stroke="#1e1e1e" stroke-width="1" fill="none"></path></g></g><mask></mask><g stroke-linecap="round"><g transform="translate(1570.9943388529073 1091.013894641571) rotate(0 40.74725171708337 22.933262155148782)"><path d="M0 0 C13.58 7.64, 67.91 38.22, 81.49 45.87 M0 0 C13.58 7.64, 67.91 38.22, 81.49 45.87" stroke="#1e1e1e" stroke-width="1" fill="none"></path></g><g transform="translate(1570.9943388529073 1091.013894641571) rotate(0 40.74725171708337 22.933262155148782)"><path d="M81.49 45.87 L66.54 44.72 L72.76 33.67 L81.49 45.87" stroke="none" stroke-width="0" fill="#1e1e1e" fill-rule="evenodd"></path><path d="M81.49 45.87 C78.23 45.62, 74.96 45.37, 66.54 44.72 M81.49 45.87 C75.75 45.43, 70.01 44.99, 66.54 44.72 M66.54 44.72 C68.7 40.88, 70.86 37.04, 72.76 33.67 M66.54 44.72 C68 42.13, 69.46 39.53, 72.76 33.67 M72.76 33.67 C74.79 36.51, 76.82 39.35, 81.49 45.87 M72.76 33.67 C75.01 36.82, 77.27 39.97, 81.49 45.87 M81.49 45.87 C81.49 45.87, 81.49 45.87, 81.49 45.87 M81.49 45.87 C81.49 45.87, 81.49 45.87, 81.49 45.87" stroke="#1e1e1e" stroke-width="1" fill="none"></path></g></g><mask></mask><g stroke-linecap="round"><g transform="translate(1559.140900318498 969.3618511900395) rotate(0 0.126808918718325 23.184077241434807)"><path d="M0 0 C0.04 7.73, 0.21 38.64, 0.25 46.37 M0 0 C0.04 7.73, 0.21 38.64, 0.25 46.37" stroke="#1e1e1e" stroke-width="1" fill="none"></path></g><g transform="translate(1559.140900318498 969.3618511900395) rotate(0 0.126808918718325 23.184077241434807)"><path d="M0.25 46.37 L-6.16 32.81 L6.52 32.74 L0.25 46.37" stroke="none" stroke-width="0" fill="#1e1e1e" fill-rule="evenodd"></path><path d="M0.25 46.37 C-1.24 43.22, -2.73 40.07, -6.16 32.81 M0.25 46.37 C-2.03 41.55, -4.31 36.72, -6.16 32.81 M-6.16 32.81 C-1.43 32.78, 3.3 32.76, 6.52 32.74 M-6.16 32.81 C-3.6 32.79, -1.03 32.78, 6.52 32.74 M6.52 32.74 C4.56 36.99, 2.61 41.24, 0.25 46.37 M6.52 32.74 C5.11 35.79, 3.71 38.85, 0.25 46.37 M0.25 46.37 C0.25 46.37, 0.25 46.37, 0.25 46.37 M0.25 46.37 C0.25 46.37, 0.25 46.37, 0.25 46.37" stroke="#1e1e1e" stroke-width="1" fill="none"></path></g></g><mask></mask></svg>