<svg version="1.1" xmlns="http://www.w3.org/2000/svg" viewBox="0 0 1515.6485222837714 679.7993673199876" width="1515.6485222837714" height="679.7993673199876" filter="invert(93%) hue-rotate(180deg)">
  <!-- svg-source:excalidraw -->
  
  <defs>
    <style class="style-fonts">
      @font-face {
        font-family: "Virgil";
        src: url("https://excalidraw.com/Virgil.woff2");
      }
      @font-face {
        font-family: "Cascadia";
        src: url("https://excalidraw.com/Cascadia.woff2");
      }
    </style>
    
  </defs>
  <g stroke-linecap="round" transform="translate(595.9441245592999 10) rotate(0 103.5 33)"><path d="M16.5 0 M16.5 0 C61.55 0, 106.6 0, 190.5 0 M16.5 0 C71.57 0, 126.63 0, 190.5 0 M190.5 0 C201.5 0, 207 5.5, 207 16.5 M190.5 0 C201.5 0, 207 5.5, 207 16.5 M207 16.5 C207 25.54, 207 34.58, 207 49.5 M207 16.5 C207 25.56, 207 34.62, 207 49.5 M207 49.5 C207 60.5, 201.5 66, 190.5 66 M207 49.5 C207 60.5, 201.5 66, 190.5 66 M190.5 66 C125.42 66, 60.34 66, 16.5 66 M190.5 66 C135.36 66, 80.21 66, 16.5 66 M16.5 66 C5.5 66, 0 60.5, 0 49.5 M16.5 66 C5.5 66, 0 60.5, 0 49.5 M0 49.5 C0 39.65, 0 29.79, 0 16.5 M0 49.5 C0 40.69, 0 31.87, 0 16.5 M0 16.5 C0 5.5, 5.5 0, 16.5 0 M0 16.5 C0 5.5, 5.5 0, 16.5 0" stroke="#1e1e1e" stroke-width="1" fill="none"></path></g><g transform="translate(675.934145311253 30.5) rotate(0 23.509979248046875 12.5)"><text x="23.509979248046875" y="0" font-family="Virgil, Segoe UI Emoji" font-size="20px" fill="#1e1e1e" text-anchor="middle" style="white-space: pre;" direction="ltr" dominant-baseline="text-before-edge">Root</text></g><g stroke-linecap="round" transform="translate(210.53014512164225 170.19917939904224) rotate(0 103.5 33)"><path d="M16.5 0 M16.5 0 C77.35 0, 138.19 0, 190.5 0 M16.5 0 C64.68 0, 112.85 0, 190.5 0 M190.5 0 C201.5 0, 207 5.5, 207 16.5 M190.5 0 C201.5 0, 207 5.5, 207 16.5 M207 16.5 C207 26.89, 207 37.27, 207 49.5 M207 16.5 C207 29.23, 207 41.96, 207 49.5 M207 49.5 C207 60.5, 201.5 66, 190.5 66 M207 49.5 C207 60.5, 201.5 66, 190.5 66 M190.5 66 C150.84 66, 111.19 66, 16.5 66 M190.5 66 C127.73 66, 64.96 66, 16.5 66 M16.5 66 C5.5 66, 0 60.5, 0 49.5 M16.5 66 C5.5 66, 0 60.5, 0 49.5 M0 49.5 C0 40.22, 0 30.94, 0 16.5 M0 49.5 C0 41.95, 0 34.4, 0 16.5 M0 16.5 C0 5.5, 5.5 0, 16.5 0 M0 16.5 C0 5.5, 5.5 0, 16.5 0" stroke="#1e1e1e" stroke-width="1" fill="none"></path></g><g transform="translate(276.2801832686149 190.69917939904224) rotate(0 37.749961853027344 12.5)"><text x="37.749961853027344" y="0" font-family="Virgil, Segoe UI Emoji" font-size="20px" fill="#1e1e1e" text-anchor="middle" style="white-space: pre;" direction="ltr" dominant-baseline="text-before-edge">Counter</text></g><g mask="url(#mask-Q_noQOFY2Wp8xIi8cAhxt)" stroke-linecap="round"><g transform="translate(683.1092493076483 86.85413159694275) rotate(0 -159.0029164444876 38.1025412942283)"><path d="M0 0 C-53 12.7, -265 63.5, -318.01 76.21 M0 0 C-53 12.7, -265 63.5, -318.01 76.21" stroke="#1e1e1e" stroke-width="1" fill="none"></path></g><g transform="translate(683.1092493076483 86.85413159694275) rotate(0 -159.0029164444876 38.1025412942283)"><path d="M-318.01 76.21 L-306.26 66.87 L-303.31 79.2 L-318.01 76.21" stroke="none" stroke-width="0" fill="#1e1e1e" fill-rule="evenodd"></path><path d="M-318.01 76.21 C-315.58 74.27, -313.15 72.34, -306.26 66.87 M-318.01 76.21 C-314.55 73.46, -311.1 70.72, -306.26 66.87 M-306.26 66.87 C-305.31 70.85, -304.36 74.83, -303.31 79.2 M-306.26 66.87 C-305.31 70.86, -304.35 74.84, -303.31 79.2 M-303.31 79.2 C-306.25 78.6, -309.19 78, -318.01 76.21 M-303.31 79.2 C-306.89 78.47, -310.48 77.74, -318.01 76.21 M-318.01 76.21 C-318.01 76.21, -318.01 76.21, -318.01 76.21 M-318.01 76.21 C-318.01 76.21, -318.01 76.21, -318.01 76.21" stroke="#1e1e1e" stroke-width="1" fill="none"></path></g></g><mask id="mask-Q_noQOFY2Wp8xIi8cAhxt"><rect x="0" y="0" fill="#fff" width="1101.1150821966235" height="263.05921418539936"></rect><rect x="452.92639359314114" y="99.95667289117097" fill="#000" width="142.35987854003906" height="50" opacity="1"></rect></mask><g transform="translate(452.92639359314126 99.95667289117102) rotate(0 71.17993927001953 25.00000000000003)"><text x="71.17993927001953" y="0" font-family="Virgil, Segoe UI Emoji" font-size="20px" fill="#1e1e1e" text-anchor="middle" style="white-space: pre;" direction="ltr" dominant-baseline="text-before-edge">initialCount: 10</text><text x="71.17993927001953" y="25" font-family="Virgil, Segoe UI Emoji" font-size="20px" fill="#1e1e1e" text-anchor="middle" style="white-space: pre;" direction="ltr" dominant-baseline="text-before-edge">identifier: 'leo'</text></g><g mask="url(#mask-i6VHPpiHvZTsoZYGeJB6L)" stroke-linecap="round"><g transform="translate(711.9794557641109 86.23102159262118) rotate(0 170.93032141114088 32.422453475669016)"><path d="M0 0 C56.98 10.81, 284.88 54.04, 341.86 64.84 M0 0 C56.98 10.81, 284.88 54.04, 341.86 64.84" stroke="#1e1e1e" stroke-width="1" fill="none"></path></g><g transform="translate(711.9794557641109 86.23102159262118) rotate(0 170.93032141114088 32.422453475669016)"><path d="M341.86 64.84 L327.32 68.54 L329.69 56.08 L341.86 64.84" stroke="none" stroke-width="0" fill="#1e1e1e" fill-rule="evenodd"></path><path d="M341.86 64.84 C338.55 65.69, 335.24 66.53, 327.32 68.54 M341.86 64.84 C336.89 66.11, 331.91 67.37, 327.32 68.54 M327.32 68.54 C328.04 64.75, 328.76 60.95, 329.69 56.08 M327.32 68.54 C328.17 64.06, 329.02 59.58, 329.69 56.08 M329.69 56.08 C333.6 58.9, 337.51 61.71, 341.86 64.84 M329.69 56.08 C333.66 58.94, 337.63 61.8, 341.86 64.84 M341.86 64.84 C341.86 64.84, 341.86 64.84, 341.86 64.84 M341.86 64.84 C341.86 64.84, 341.86 64.84, 341.86 64.84" stroke="#1e1e1e" stroke-width="1" fill="none"></path></g></g><mask id="mask-i6VHPpiHvZTsoZYGeJB6L"><rect x="0" y="0" fill="#fff" width="1153.8400985863927" height="251.0759285439592"></rect><rect x="810.4698510277906" y="93.6534750682901" fill="#000" width="144.87985229492188" height="50" opacity="1"></rect></mask><g transform="translate(810.4698510277908 93.65347506829016) rotate(0 72.43992614746105 25.00000000000003)"><text x="72.43992614746094" y="0" font-family="Virgil, Segoe UI Emoji" font-size="20px" fill="#1e1e1e" text-anchor="middle" style="white-space: pre;" direction="ltr" dominant-baseline="text-before-edge">initialCount: 5</text><text x="72.43992614746094" y="25" font-family="Virgil, Segoe UI Emoji" font-size="20px" fill="#1e1e1e" text-anchor="middle" style="white-space: pre;" direction="ltr" dominant-baseline="text-before-edge">identifier: 'una'</text></g><g stroke-linecap="round" transform="translate(10.22739918981506 374.0238738285864) rotate(0 103.5 33)"><path d="M16.5 0 M16.5 0 C63.71 0, 110.91 0, 190.5 0 M16.5 0 C80.95 0, 145.39 0, 190.5 0 M190.5 0 C201.5 0, 207 5.5, 207 16.5 M190.5 0 C201.5 0, 207 5.5, 207 16.5 M207 16.5 C207 25.52, 207 34.53, 207 49.5 M207 16.5 C207 27.17, 207 37.83, 207 49.5 M207 49.5 C207 60.5, 201.5 66, 190.5 66 M207 49.5 C207 60.5, 201.5 66, 190.5 66 M190.5 66 C141.95 66, 93.41 66, 16.5 66 M190.5 66 C134 66, 77.5 66, 16.5 66 M16.5 66 C5.5 66, 0 60.5, 0 49.5 M16.5 66 C5.5 66, 0 60.5, 0 49.5 M0 49.5 C0 40.27, 0 31.05, 0 16.5 M0 49.5 C0 36.74, 0 23.97, 0 16.5 M0 16.5 C0 5.5, 5.5 0, 16.5 0 M0 16.5 C0 5.5, 5.5 0, 16.5 0" stroke="#1e1e1e" stroke-width="1" fill="none"></path></g><g transform="translate(75.66743214879943 394.5238738285864) rotate(0 38.059967041015625 12.5)"><text x="38.059967041015625" y="0" font-family="Virgil, Segoe UI Emoji" font-size="20px" fill="#1e1e1e" text-anchor="middle" style="white-space: pre;" direction="ltr" dominant-baseline="text-before-edge">Wrapper</text></g><g stroke-linecap="round" transform="translate(378.5805513215597 370.0438535786493) rotate(0 103.5 33)"><path d="M16.5 0 M16.5 0 C54.54 0, 92.58 0, 190.5 0 M16.5 0 C68.51 0, 120.52 0, 190.5 0 M190.5 0 C201.5 0, 207 5.5, 207 16.5 M190.5 0 C201.5 0, 207 5.5, 207 16.5 M207 16.5 C207 24.3, 207 32.11, 207 49.5 M207 16.5 C207 24.52, 207 32.55, 207 49.5 M207 49.5 C207 60.5, 201.5 66, 190.5 66 M207 49.5 C207 60.5, 201.5 66, 190.5 66 M190.5 66 C122.43 66, 54.35 66, 16.5 66 M190.5 66 C135.41 66, 80.31 66, 16.5 66 M16.5 66 C5.5 66, 0 60.5, 0 49.5 M16.5 66 C5.5 66, 0 60.5, 0 49.5 M0 49.5 C0 38.37, 0 27.24, 0 16.5 M0 49.5 C0 41.07, 0 32.64, 0 16.5 M0 16.5 C0 5.5, 5.5 0, 16.5 0 M0 16.5 C0 5.5, 5.5 0, 16.5 0" stroke="#1e1e1e" stroke-width="1" fill="none"></path></g><g transform="translate(447.0205842805441 390.5438535786493) rotate(0 35.059967041015625 12.5)"><text x="35.059967041015625" y="0" font-family="Virgil, Segoe UI Emoji" font-size="20px" fill="#1e1e1e" text-anchor="middle" style="white-space: pre;" direction="ltr" dominant-baseline="text-before-edge">Actions</text></g><g mask="url(#mask-pHloGoDoGG43GX7Pl2Aoc)" stroke-linecap="round"><g transform="translate(299.9639838964248 244.34821181660698) rotate(0 -93.05737737834352 58.97077588407518)"><path d="M0 0 C-31.02 19.66, -155.1 98.28, -186.11 117.94 M0 0 C-31.02 19.66, -155.1 98.28, -186.11 117.94" stroke="#1e1e1e" stroke-width="1" fill="none"></path></g><g transform="translate(299.9639838964248 244.34821181660698) rotate(0 -93.05737737834352 58.97077588407518)"><path d="M-186.11 117.94 L-178.02 105.31 L-171.24 116.02 L-186.11 117.94" stroke="none" stroke-width="0" fill="#1e1e1e" fill-rule="evenodd"></path><path d="M-186.11 117.94 C-184.26 115.05, -182.41 112.16, -178.02 105.31 M-186.11 117.94 C-183.66 114.11, -181.21 110.28, -178.02 105.31 M-178.02 105.31 C-175.43 109.4, -172.84 113.49, -171.24 116.02 M-178.02 105.31 C-175.31 109.59, -172.6 113.87, -171.24 116.02 M-171.24 116.02 C-176.35 116.68, -181.45 117.34, -186.11 117.94 M-171.24 116.02 C-176.71 116.73, -182.19 117.43, -186.11 117.94 M-186.11 117.94 C-186.11 117.94, -186.11 117.94, -186.11 117.94 M-186.11 117.94 C-186.11 117.94, -186.11 117.94, -186.11 117.94" stroke="#1e1e1e" stroke-width="1" fill="none"></path></g></g><mask id="mask-pHloGoDoGG43GX7Pl2Aoc"><rect x="0" y="0" fill="#fff" width="586.0787386531118" height="462.28976358475734"></rect><rect x="122.13667853956565" y="278.3189877006821" fill="#000" width="169.53985595703125" height="50" opacity="1"></rect></mask><g transform="translate(122.13667853956565 278.3189877006821) rotate(0 84.76992797851562 25.000000000000057)"><text x="84.76992797851562" y="0" font-family="Virgil, Segoe UI Emoji" font-size="20px" fill="#1e1e1e" text-anchor="middle" style="white-space: pre;" direction="ltr" dominant-baseline="text-before-edge">numberToShow: 10</text><text x="84.76992797851562" y="25" font-family="Virgil, Segoe UI Emoji" font-size="20px" fill="#1e1e1e" text-anchor="middle" style="white-space: pre;" direction="ltr" dominant-baseline="text-before-edge">identifier: 'leo'</text></g><g mask="url(#mask-6xuO2JQHP5utSFKQ9Gi5e)" stroke-linecap="round"><g transform="translate(326.6748646898101 242.5279494417323) rotate(0 78.22290764848356 57.5958925921899)"><path d="M0 0 C26.07 19.2, 130.37 95.99, 156.45 115.19 M0 0 C26.07 19.2, 130.37 95.99, 156.45 115.19" stroke="#1e1e1e" stroke-width="1" fill="none"></path></g><g transform="translate(326.6748646898101 242.5279494417323) rotate(0 78.22290764848356 57.5958925921899)"><path d="M156.45 115.19 L141.74 112.24 L149.26 102.03 L156.45 115.19" stroke="none" stroke-width="0" fill="#1e1e1e" fill-rule="evenodd"></path><path d="M156.45 115.19 C153.44 114.59, 150.44 113.98, 141.74 112.24 M156.45 115.19 C151.62 114.22, 146.8 113.25, 141.74 112.24 M141.74 112.24 C144.22 108.86, 146.71 105.49, 149.26 102.03 M141.74 112.24 C144.16 108.95, 146.58 105.67, 149.26 102.03 M149.26 102.03 C150.7 104.67, 152.14 107.31, 156.45 115.19 M149.26 102.03 C151.69 106.48, 154.12 110.93, 156.45 115.19 M156.45 115.19 C156.45 115.19, 156.45 115.19, 156.45 115.19 M156.45 115.19 C156.45 115.19, 156.45 115.19, 156.45 115.19" stroke="#1e1e1e" stroke-width="1" fill="none"></path></g></g><mask id="mask-6xuO2JQHP5utSFKQ9Gi5e"><rect x="0" y="0" fill="#fff" width="583.1206799867772" height="457.7197346261121"></rect><rect x="335.8378510736452" y="275.1238420339222" fill="#000" width="138.11984252929688" height="50" opacity="1"></rect></mask><g transform="translate(335.8378510736452 275.1238420339222) rotate(0 69.05992126464844 25)"><text x="69.05992126464844" y="0" font-family="Virgil, Segoe UI Emoji" font-size="20px" fill="#1e1e1e" text-anchor="middle" style="white-space: pre;" direction="ltr" dominant-baseline="text-before-edge">count: 10</text><text x="69.05992126464844" y="25" font-family="Virgil, Segoe UI Emoji" font-size="20px" fill="#1e1e1e" text-anchor="middle" style="white-space: pre;" direction="ltr" dominant-baseline="text-before-edge">identifier: 'leo'</text></g><g stroke-linecap="round" transform="translate(10 566.4796108202261) rotate(0 103.5 33)"><path d="M16.5 0 M16.5 0 C82.92 0, 149.34 0, 190.5 0 M16.5 0 C71.36 0, 126.22 0, 190.5 0 M190.5 0 C201.5 0, 207 5.5, 207 16.5 M190.5 0 C201.5 0, 207 5.5, 207 16.5 M207 16.5 C207 23.95, 207 31.39, 207 49.5 M207 16.5 C207 23.76, 207 31.02, 207 49.5 M207 49.5 C207 60.5, 201.5 66, 190.5 66 M207 49.5 C207 60.5, 201.5 66, 190.5 66 M190.5 66 C134.92 66, 79.35 66, 16.5 66 M190.5 66 C150.37 66, 110.25 66, 16.5 66 M16.5 66 C5.5 66, 0 60.5, 0 49.5 M16.5 66 C5.5 66, 0 60.5, 0 49.5 M0 49.5 C0 38.91, 0 28.32, 0 16.5 M0 49.5 C0 38.82, 0 28.15, 0 16.5 M0 16.5 C0 5.5, 5.5 0, 16.5 0 M0 16.5 C0 5.5, 5.5 0, 16.5 0" stroke="#1e1e1e" stroke-width="1" fill="none"></path></g><g transform="translate(79.1600341796875 586.9796108202261) rotate(0 34.3399658203125 12.5)"><text x="34.3399658203125" y="0" font-family="Virgil, Segoe UI Emoji" font-size="20px" fill="#1e1e1e" text-anchor="middle" style="white-space: pre;" direction="ltr" dominant-baseline="text-before-edge">Display</text></g><g mask="url(#mask-8t8olEl_OEjAWYhsUoQsv)" stroke-linecap="round"><g transform="translate(113.8501172602289 442.81078792392395) rotate(0 -1.0429031879534136 58.541596655237186)"><path d="M0 0 C-0.35 19.51, -1.74 97.57, -2.09 117.08 M0 0 C-0.35 19.51, -1.74 97.57, -2.09 117.08" stroke="#1e1e1e" stroke-width="1" fill="none"></path></g><g transform="translate(113.8501172602289 442.81078792392395) rotate(0 -1.0429031879534136 58.541596655237186)"><path d="M-2.09 117.08 L-8.18 103.38 L4.49 103.6 L-2.09 117.08" stroke="none" stroke-width="0" fill="#1e1e1e" fill-rule="evenodd"></path><path d="M-2.09 117.08 C-4.48 111.7, -6.88 106.32, -8.18 103.38 M-2.09 117.08 C-3.71 113.44, -5.33 109.79, -8.18 103.38 M-8.18 103.38 C-3.85 103.45, 0.48 103.53, 4.49 103.6 M-8.18 103.38 C-3.36 103.46, 1.45 103.55, 4.49 103.6 M4.49 103.6 C3.08 106.51, 1.66 109.41, -2.09 117.08 M4.49 103.6 C2.22 108.27, -0.06 112.94, -2.09 117.08 M-2.09 117.08 C-2.09 117.08, -2.09 117.08, -2.09 117.08 M-2.09 117.08 C-2.09 117.08, -2.09 117.08, -2.09 117.08" stroke="#1e1e1e" stroke-width="1" fill="none"></path></g></g><mask id="mask-8t8olEl_OEjAWYhsUoQsv"><rect x="0" y="0" fill="#fff" width="215.93592363613573" height="659.8939812343983"></rect><rect x="28.03728609375986" y="476.352384579161" fill="#000" width="169.53985595703125" height="50" opacity="1"></rect></mask><g transform="translate(28.03728609375986 476.35238457916114) rotate(0 84.76992797851562 25)"><text x="84.76992797851562" y="0" font-family="Virgil, Segoe UI Emoji" font-size="20px" fill="#1e1e1e" text-anchor="middle" style="white-space: pre;" direction="ltr" dominant-baseline="text-before-edge">numberToShow: 10</text><text x="84.76992797851562" y="25" font-family="Virgil, Segoe UI Emoji" font-size="20px" fill="#1e1e1e" text-anchor="middle" style="white-space: pre;" direction="ltr" dominant-baseline="text-before-edge">identifier: 'leo'</text></g><g stroke-linecap="round" transform="translate(259.04880850923985 563.4606260416981) rotate(0 103.5 33)"><path d="M16.5 0 M16.5 0 C84.96 0, 153.41 0, 190.5 0 M16.5 0 C85.68 0, 154.87 0, 190.5 0 M190.5 0 C201.5 0, 207 5.5, 207 16.5 M190.5 0 C201.5 0, 207 5.5, 207 16.5 M207 16.5 C207 27.24, 207 37.98, 207 49.5 M207 16.5 C207 27.46, 207 38.42, 207 49.5 M207 49.5 C207 60.5, 201.5 66, 190.5 66 M207 49.5 C207 60.5, 201.5 66, 190.5 66 M190.5 66 C151.51 66, 112.53 66, 16.5 66 M190.5 66 C152.58 66, 114.65 66, 16.5 66 M16.5 66 C5.5 66, 0 60.5, 0 49.5 M16.5 66 C5.5 66, 0 60.5, 0 49.5 M0 49.5 C0 41.98, 0 34.46, 0 16.5 M0 49.5 C0 37.73, 0 25.96, 0 16.5 M0 16.5 C0 5.5, 5.5 0, 16.5 0 M0 16.5 C0 5.5, 5.5 0, 16.5 0" stroke="#1e1e1e" stroke-width="1" fill="none"></path></g><g transform="translate(276.0588793100211 583.9606260416981) rotate(0 86.48992919921875 12.5)"><text x="86.48992919921875" y="0" font-family="Virgil, Segoe UI Emoji" font-size="20px" fill="#1e1e1e" text-anchor="middle" style="white-space: pre;" direction="ltr" dominant-baseline="text-before-edge">Increment Button</text></g><g stroke-linecap="round" transform="translate(523.0451723409864 558.911306174957) rotate(0 103.5 33)"><path d="M16.5 0 M16.5 0 C52.11 0, 87.72 0, 190.5 0 M16.5 0 C71.28 0, 126.06 0, 190.5 0 M190.5 0 C201.5 0, 207 5.5, 207 16.5 M190.5 0 C201.5 0, 207 5.5, 207 16.5 M207 16.5 C207 25.83, 207 35.16, 207 49.5 M207 16.5 C207 26.2, 207 35.91, 207 49.5 M207 49.5 C207 60.5, 201.5 66, 190.5 66 M207 49.5 C207 60.5, 201.5 66, 190.5 66 M190.5 66 C127.66 66, 64.82 66, 16.5 66 M190.5 66 C140.77 66, 91.04 66, 16.5 66 M16.5 66 C5.5 66, 0 60.5, 0 49.5 M16.5 66 C5.5 66, 0 60.5, 0 49.5 M0 49.5 C0 38.7, 0 27.9, 0 16.5 M0 49.5 C0 37.56, 0 25.62, 0 16.5 M0 16.5 C0 5.5, 5.5 0, 16.5 0 M0 16.5 C0 5.5, 5.5 0, 16.5 0" stroke="#1e1e1e" stroke-width="1" fill="none"></path></g><g transform="translate(536.9052492452832 579.411306174957) rotate(0 89.63992309570312 12.5)"><text x="89.63992309570312" y="0" font-family="Virgil, Segoe UI Emoji" font-size="20px" fill="#1e1e1e" text-anchor="middle" style="white-space: pre;" direction="ltr" dominant-baseline="text-before-edge">Decrement Button</text></g><g stroke-linecap="round"><g transform="translate(471.6313447782994 443.33392630683807) rotate(0 -57.38432583715371 55.20733265334536)"><path d="M0 0 C-19.13 18.4, -95.64 92.01, -114.77 110.41 M0 0 C-19.13 18.4, -95.64 92.01, -114.77 110.41" stroke="#1e1e1e" stroke-width="1" fill="none"></path></g><g transform="translate(471.6313447782994 443.33392630683807) rotate(0 -57.38432583715371 55.20733265334536)"><path d="M-114.77 110.41 L-109.37 96.42 L-100.58 105.56 L-114.77 110.41" stroke="none" stroke-width="0" fill="#1e1e1e" fill-rule="evenodd"></path><path d="M-114.77 110.41 C-113.66 107.55, -112.56 104.69, -109.37 96.42 M-114.77 110.41 C-113.04 105.93, -111.31 101.45, -109.37 96.42 M-109.37 96.42 C-106.23 99.69, -103.08 102.95, -100.58 105.56 M-109.37 96.42 C-107.36 98.51, -105.34 100.6, -100.58 105.56 M-100.58 105.56 C-106.15 107.46, -111.72 109.37, -114.77 110.41 M-100.58 105.56 C-104.92 107.05, -109.27 108.53, -114.77 110.41 M-114.77 110.41 C-114.77 110.41, -114.77 110.41, -114.77 110.41 M-114.77 110.41 C-114.77 110.41, -114.77 110.41, -114.77 110.41" stroke="#1e1e1e" stroke-width="1" fill="none"></path></g></g><mask></mask><g stroke-linecap="round"><g transform="translate(506.96483391392405 444.3692250826854) rotate(0 58.21193599984929 50.41312218011848)"><path d="M0 0 C19.4 16.8, 97.02 84.02, 116.42 100.83 M0 0 C19.4 16.8, 97.02 84.02, 116.42 100.83" stroke="#1e1e1e" stroke-width="1" fill="none"></path></g><g transform="translate(506.96483391392405 444.3692250826854) rotate(0 58.21193599984929 50.41312218011848)"><path d="M116.42 100.83 L102 96.72 L110.3 87.13 L116.42 100.83" stroke="none" stroke-width="0" fill="#1e1e1e" fill-rule="evenodd"></path><path d="M116.42 100.83 C110.66 99.19, 104.9 97.54, 102 96.72 M116.42 100.83 C112.81 99.8, 109.2 98.77, 102 96.72 M102 96.72 C103.7 94.75, 105.41 92.78, 110.3 87.13 M102 96.72 C105.17 93.06, 108.34 89.39, 110.3 87.13 M110.3 87.13 C112.69 92.49, 115.09 97.84, 116.42 100.83 M110.3 87.13 C111.82 90.54, 113.34 93.94, 116.42 100.83 M116.42 100.83 C116.42 100.83, 116.42 100.83, 116.42 100.83 M116.42 100.83 C116.42 100.83, 116.42 100.83, 116.42 100.83" stroke="#1e1e1e" stroke-width="1" fill="none"></path></g></g><mask></mask><g transform="translate(265.628417731734 641.4155955665083) rotate(0 95.34991455078125 12.5)"><text x="95.34991455078125" y="0" font-family="Virgil, Segoe UI Emoji" font-size="20px" fill="#1e1e1e" text-anchor="middle" style="white-space: pre;" direction="ltr" dominant-baseline="text-before-edge">props.count.value++</text></g><g transform="translate(535.0034274985636 637.6535462780073) rotate(0 91.06990051269531 12.5)"><text x="91.06990051269531" y="0" font-family="Virgil, Segoe UI Emoji" font-size="20px" fill="#1e1e1e" text-anchor="middle" style="white-space: pre;" direction="ltr" dominant-baseline="text-before-edge">props.count.value--</text></g><g transform="translate(17.900408461021584 644.7993673199876) rotate(0 94.7599105834961 12.5)"><text x="94.7599105834961" y="0" font-family="Virgil, Segoe UI Emoji" font-size="20px" fill="#1e1e1e" text-anchor="middle" style="white-space: pre;" direction="ltr" dominant-baseline="text-before-edge">show numberToShow</text></g><g stroke-linecap="round" transform="translate(986.1334950644272 163.58786494398237) rotate(0 103.5 33)"><path d="M16.5 0 M16.5 0 C69.17 0, 121.84 0, 190.5 0 M16.5 0 C62.64 0, 108.78 0, 190.5 0 M190.5 0 C201.5 0, 207 5.5, 207 16.5 M190.5 0 C201.5 0, 207 5.5, 207 16.5 M207 16.5 C207 25.27, 207 34.04, 207 49.5 M207 16.5 C207 28.04, 207 39.58, 207 49.5 M207 49.5 C207 60.5, 201.5 66, 190.5 66 M207 49.5 C207 60.5, 201.5 66, 190.5 66 M190.5 66 C136.36 66, 82.22 66, 16.5 66 M190.5 66 C134.79 66, 79.08 66, 16.5 66 M16.5 66 C5.5 66, 0 60.5, 0 49.5 M16.5 66 C5.5 66, 0 60.5, 0 49.5 M0 49.5 C0 38.38, 0 27.26, 0 16.5 M0 49.5 C0 40.43, 0 31.35, 0 16.5 M0 16.5 C0 5.5, 5.5 0, 16.5 0 M0 16.5 C0 5.5, 5.5 0, 16.5 0" stroke="#1e1e1e" stroke-width="1" fill="none"></path></g><g transform="translate(1051.8835332114 184.08786494398237) rotate(0 37.749961853027344 12.5)"><text x="37.749961853027344" y="0" font-family="Virgil, Segoe UI Emoji" font-size="20px" fill="#1e1e1e" text-anchor="middle" style="white-space: pre;" direction="ltr" dominant-baseline="text-before-edge">Counter</text></g><g stroke-linecap="round" transform="translate(785.8307491326003 367.4125593735264) rotate(0 103.5 33)"><path d="M16.5 0 M16.5 0 C71.6 0, 126.7 0, 190.5 0 M16.5 0 C54.47 0, 92.45 0, 190.5 0 M190.5 0 C201.5 0, 207 5.5, 207 16.5 M190.5 0 C201.5 0, 207 5.5, 207 16.5 M207 16.5 C207 27.68, 207 38.85, 207 49.5 M207 16.5 C207 28.88, 207 41.25, 207 49.5 M207 49.5 C207 60.5, 201.5 66, 190.5 66 M207 49.5 C207 60.5, 201.5 66, 190.5 66 M190.5 66 C152.62 66, 114.74 66, 16.5 66 M190.5 66 C145.33 66, 100.16 66, 16.5 66 M16.5 66 C5.5 66, 0 60.5, 0 49.5 M16.5 66 C5.5 66, 0 60.5, 0 49.5 M0 49.5 C0 40, 0 30.5, 0 16.5 M0 49.5 C0 37.65, 0 25.8, 0 16.5 M0 16.5 C0 5.5, 5.5 0, 16.5 0 M0 16.5 C0 5.5, 5.5 0, 16.5 0" stroke="#1e1e1e" stroke-width="1" fill="none"></path></g><g transform="translate(851.2707820915847 387.9125593735264) rotate(0 38.059967041015625 12.5)"><text x="38.059967041015625" y="0" font-family="Virgil, Segoe UI Emoji" font-size="20px" fill="#1e1e1e" text-anchor="middle" style="white-space: pre;" direction="ltr" dominant-baseline="text-before-edge">Wrapper</text></g><g stroke-linecap="round" transform="translate(1154.183901264345 363.4325391235893) rotate(0 103.5 33)"><path d="M16.5 0 M16.5 0 C53.39 0, 90.27 0, 190.5 0 M16.5 0 C58.96 0, 101.41 0, 190.5 0 M190.5 0 C201.5 0, 207 5.5, 207 16.5 M190.5 0 C201.5 0, 207 5.5, 207 16.5 M207 16.5 C207 25.65, 207 34.81, 207 49.5 M207 16.5 C207 23.5, 207 30.5, 207 49.5 M207 49.5 C207 60.5, 201.5 66, 190.5 66 M207 49.5 C207 60.5, 201.5 66, 190.5 66 M190.5 66 C131.31 66, 72.12 66, 16.5 66 M190.5 66 C132.37 66, 74.25 66, 16.5 66 M16.5 66 C5.5 66, 0 60.5, 0 49.5 M16.5 66 C5.5 66, 0 60.5, 0 49.5 M0 49.5 C0 40.57, 0 31.65, 0 16.5 M0 49.5 C0 36.76, 0 24.02, 0 16.5 M0 16.5 C0 5.5, 5.5 0, 16.5 0 M0 16.5 C0 5.5, 5.5 0, 16.5 0" stroke="#1e1e1e" stroke-width="1" fill="none"></path></g><g transform="translate(1222.6239342233293 383.9325391235893) rotate(0 35.059967041015625 12.5)"><text x="35.059967041015625" y="0" font-family="Virgil, Segoe UI Emoji" font-size="20px" fill="#1e1e1e" text-anchor="middle" style="white-space: pre;" direction="ltr" dominant-baseline="text-before-edge">Actions</text></g><g mask="url(#mask-SK7cLKsOIdy_AseGo_4ts)" stroke-linecap="round"><g transform="translate(1075.5673338392098 237.7368973615471) rotate(0 -93.05737737834352 58.97077588407518)"><path d="M0 0 C-31.02 19.66, -155.1 98.28, -186.11 117.94 M0 0 C-31.02 19.66, -155.1 98.28, -186.11 117.94" stroke="#1e1e1e" stroke-width="1" fill="none"></path></g><g transform="translate(1075.5673338392098 237.7368973615471) rotate(0 -93.05737737834352 58.97077588407518)"><path d="M-186.11 117.94 L-178.02 105.31 L-171.24 116.02 L-186.11 117.94" stroke="none" stroke-width="0" fill="#1e1e1e" fill-rule="evenodd"></path><path d="M-186.11 117.94 C-184 114.64, -181.89 111.35, -178.02 105.31 M-186.11 117.94 C-184.3 115.11, -182.49 112.29, -178.02 105.31 M-178.02 105.31 C-176.34 107.97, -174.66 110.62, -171.24 116.02 M-178.02 105.31 C-176.28 108.06, -174.54 110.81, -171.24 116.02 M-171.24 116.02 C-176.27 116.67, -181.31 117.32, -186.11 117.94 M-171.24 116.02 C-174.93 116.5, -178.62 116.97, -186.11 117.94 M-186.11 117.94 C-186.11 117.94, -186.11 117.94, -186.11 117.94 M-186.11 117.94 C-186.11 117.94, -186.11 117.94, -186.11 117.94" stroke="#1e1e1e" stroke-width="1" fill="none"></path></g></g><mask id="mask-SK7cLKsOIdy_AseGo_4ts"><rect x="0" y="0" fill="#fff" width="1361.6820885958969" height="455.67844912969747"></rect><rect x="901.15003214446" y="271.70767324562235" fill="#000" width="162.7198486328125" height="50" opacity="1"></rect></mask><g transform="translate(901.15003214446 271.70767324562235) rotate(0 81.35992431640625 24.999999999999943)"><text x="81.35992431640625" y="0" font-family="Virgil, Segoe UI Emoji" font-size="20px" fill="#1e1e1e" text-anchor="middle" style="white-space: pre;" direction="ltr" dominant-baseline="text-before-edge">numberToShow: 5</text><text x="81.35992431640625" y="25" font-family="Virgil, Segoe UI Emoji" font-size="20px" fill="#1e1e1e" text-anchor="middle" style="white-space: pre;" direction="ltr" dominant-baseline="text-before-edge">identifier: 'una'</text></g><g mask="url(#mask-7iqlM-c6OnqmBWUz6sEag)" stroke-linecap="round"><g transform="translate(1102.2782146325953 235.9166349866723) rotate(0 78.22290764848356 57.5958925921899)"><path d="M0 0 C26.07 19.2, 130.37 95.99, 156.45 115.19 M0 0 C26.07 19.2, 130.37 95.99, 156.45 115.19" stroke="#1e1e1e" stroke-width="1" fill="none"></path></g><g transform="translate(1102.2782146325953 235.9166349866723) rotate(0 78.22290764848356 57.5958925921899)"><path d="M156.45 115.19 L141.74 112.24 L149.26 102.03 L156.45 115.19" stroke="none" stroke-width="0" fill="#1e1e1e" fill-rule="evenodd"></path><path d="M156.45 115.19 C152.05 114.31, 147.65 113.42, 141.74 112.24 M156.45 115.19 C151.64 114.23, 146.84 113.26, 141.74 112.24 M141.74 112.24 C144.59 108.36, 147.45 104.49, 149.26 102.03 M141.74 112.24 C143.43 109.94, 145.13 107.64, 149.26 102.03 M149.26 102.03 C150.95 105.12, 152.64 108.22, 156.45 115.19 M149.26 102.03 C151.14 105.47, 153.02 108.92, 156.45 115.19 M156.45 115.19 C156.45 115.19, 156.45 115.19, 156.45 115.19 M156.45 115.19 C156.45 115.19, 156.45 115.19, 156.45 115.19" stroke="#1e1e1e" stroke-width="1" fill="none"></path></g></g><mask id="mask-7iqlM-c6OnqmBWUz6sEag"><rect x="0" y="0" fill="#fff" width="1358.7240299295624" height="451.1084201710521"></rect><rect x="1108.061196133618" y="268.5125275788622" fill="#000" width="144.87985229492188" height="50" opacity="1"></rect></mask><g transform="translate(1108.061196133618 268.5125275788622) rotate(0 72.43992614746082 25)"><text x="72.43992614746094" y="0" font-family="Virgil, Segoe UI Emoji" font-size="20px" fill="#1e1e1e" text-anchor="middle" style="white-space: pre;" direction="ltr" dominant-baseline="text-before-edge">count: 5</text><text x="72.43992614746094" y="25" font-family="Virgil, Segoe UI Emoji" font-size="20px" fill="#1e1e1e" text-anchor="middle" style="white-space: pre;" direction="ltr" dominant-baseline="text-before-edge">identifier: 'una'</text></g><g stroke-linecap="round" transform="translate(785.6033499427853 559.8682963651661) rotate(0 103.5 33)"><path d="M16.5 0 M16.5 0 C72.72 0, 128.94 0, 190.5 0 M16.5 0 C73.35 0, 130.21 0, 190.5 0 M190.5 0 C201.5 0, 207 5.5, 207 16.5 M190.5 0 C201.5 0, 207 5.5, 207 16.5 M207 16.5 C207 28.48, 207 40.46, 207 49.5 M207 16.5 C207 23.93, 207 31.36, 207 49.5 M207 49.5 C207 60.5, 201.5 66, 190.5 66 M207 49.5 C207 60.5, 201.5 66, 190.5 66 M190.5 66 C153.07 66, 115.63 66, 16.5 66 M190.5 66 C144.97 66, 99.43 66, 16.5 66 M16.5 66 C5.5 66, 0 60.5, 0 49.5 M16.5 66 C5.5 66, 0 60.5, 0 49.5 M0 49.5 C0 37.7, 0 25.9, 0 16.5 M0 49.5 C0 40.27, 0 31.04, 0 16.5 M0 16.5 C0 5.5, 5.5 0, 16.5 0 M0 16.5 C0 5.5, 5.5 0, 16.5 0" stroke="#1e1e1e" stroke-width="1" fill="none"></path></g><g transform="translate(854.7633841224728 580.3682963651661) rotate(0 34.3399658203125 12.5)"><text x="34.3399658203125" y="0" font-family="Virgil, Segoe UI Emoji" font-size="20px" fill="#1e1e1e" text-anchor="middle" style="white-space: pre;" direction="ltr" dominant-baseline="text-before-edge">Display</text></g><g mask="url(#mask-ei7h69Wxd-djNlF1PCvor)" stroke-linecap="round"><g transform="translate(889.4534672030139 436.19947346886397) rotate(0 -1.0429031879534705 58.541596655237186)"><path d="M0 0 C-0.35 19.51, -1.74 97.57, -2.09 117.08 M0 0 C-0.35 19.51, -1.74 97.57, -2.09 117.08" stroke="#1e1e1e" stroke-width="1" fill="none"></path></g><g transform="translate(889.4534672030139 436.19947346886397) rotate(0 -1.0429031879534705 58.541596655237186)"><path d="M-2.09 117.08 L-8.18 103.38 L4.49 103.6 L-2.09 117.08" stroke="none" stroke-width="0" fill="#1e1e1e" fill-rule="evenodd"></path><path d="M-2.09 117.08 C-3.87 113.06, -5.66 109.04, -8.18 103.38 M-2.09 117.08 C-3.38 114.18, -4.67 111.28, -8.18 103.38 M-8.18 103.38 C-4.99 103.43, -1.79 103.49, 4.49 103.6 M-8.18 103.38 C-3.87 103.45, 0.43 103.53, 4.49 103.6 M4.49 103.6 C3.01 106.65, 1.52 109.69, -2.09 117.08 M4.49 103.6 C2.41 107.88, 0.32 112.16, -2.09 117.08 M-2.09 117.08 C-2.09 117.08, -2.09 117.08, -2.09 117.08 M-2.09 117.08 C-2.09 117.08, -2.09 117.08, -2.09 117.08" stroke="#1e1e1e" stroke-width="1" fill="none"></path></g></g><mask id="mask-ei7h69Wxd-djNlF1PCvor"><rect x="0" y="0" fill="#fff" width="991.5392735789208" height="653.2826667793383"></rect><rect x="807.0506396986543" y="469.74107012410104" fill="#000" width="162.7198486328125" height="50" opacity="1"></rect></mask><g transform="translate(807.0506396986543 469.74107012410116) rotate(0 81.35992431640625 25)"><text x="81.35992431640625" y="0" font-family="Virgil, Segoe UI Emoji" font-size="20px" fill="#1e1e1e" text-anchor="middle" style="white-space: pre;" direction="ltr" dominant-baseline="text-before-edge">numberToShow: 5</text><text x="81.35992431640625" y="25" font-family="Virgil, Segoe UI Emoji" font-size="20px" fill="#1e1e1e" text-anchor="middle" style="white-space: pre;" direction="ltr" dominant-baseline="text-before-edge">identifier: 'una'</text></g><g stroke-linecap="round" transform="translate(1034.652158452025 556.8493115866381) rotate(0 103.5 33)"><path d="M16.5 0 M16.5 0 C75.43 0, 134.37 0, 190.5 0 M16.5 0 C81.76 0, 147.02 0, 190.5 0 M190.5 0 C201.5 0, 207 5.5, 207 16.5 M190.5 0 C201.5 0, 207 5.5, 207 16.5 M207 16.5 C207 23.68, 207 30.87, 207 49.5 M207 16.5 C207 25.07, 207 33.63, 207 49.5 M207 49.5 C207 60.5, 201.5 66, 190.5 66 M207 49.5 C207 60.5, 201.5 66, 190.5 66 M190.5 66 C140.4 66, 90.3 66, 16.5 66 M190.5 66 C128.01 66, 65.52 66, 16.5 66 M16.5 66 C5.5 66, 0 60.5, 0 49.5 M16.5 66 C5.5 66, 0 60.5, 0 49.5 M0 49.5 C0 40.63, 0 31.76, 0 16.5 M0 49.5 C0 42.46, 0 35.42, 0 16.5 M0 16.5 C0 5.5, 5.5 0, 16.5 0 M0 16.5 C0 5.5, 5.5 0, 16.5 0" stroke="#1e1e1e" stroke-width="1" fill="none"></path></g><g transform="translate(1051.6622292528064 577.3493115866381) rotate(0 86.48992919921875 12.5)"><text x="86.48992919921875" y="0" font-family="Virgil, Segoe UI Emoji" font-size="20px" fill="#1e1e1e" text-anchor="middle" style="white-space: pre;" direction="ltr" dominant-baseline="text-before-edge">Increment Button</text></g><g stroke-linecap="round" transform="translate(1298.6485222837714 552.299991719897) rotate(0 103.5 33)"><path d="M16.5 0 M16.5 0 C64.77 0, 113.03 0, 190.5 0 M16.5 0 C53.42 0, 90.33 0, 190.5 0 M190.5 0 C201.5 0, 207 5.5, 207 16.5 M190.5 0 C201.5 0, 207 5.5, 207 16.5 M207 16.5 C207 27.73, 207 38.95, 207 49.5 M207 16.5 C207 27.52, 207 38.55, 207 49.5 M207 49.5 C207 60.5, 201.5 66, 190.5 66 M207 49.5 C207 60.5, 201.5 66, 190.5 66 M190.5 66 C143.44 66, 96.37 66, 16.5 66 M190.5 66 C123.33 66, 56.16 66, 16.5 66 M16.5 66 C5.5 66, 0 60.5, 0 49.5 M16.5 66 C5.5 66, 0 60.5, 0 49.5 M0 49.5 C0 40.47, 0 31.44, 0 16.5 M0 49.5 C0 41.36, 0 33.21, 0 16.5 M0 16.5 C0 5.5, 5.5 0, 16.5 0 M0 16.5 C0 5.5, 5.5 0, 16.5 0" stroke="#1e1e1e" stroke-width="1" fill="none"></path></g><g transform="translate(1312.5085991880683 572.799991719897) rotate(0 89.63992309570312 12.5)"><text x="89.63992309570312" y="0" font-family="Virgil, Segoe UI Emoji" font-size="20px" fill="#1e1e1e" text-anchor="middle" style="white-space: pre;" direction="ltr" dominant-baseline="text-before-edge">Decrement Button</text></g><g stroke-linecap="round"><g transform="translate(1247.2346947210845 436.7226118517781) rotate(0 -57.38432583715371 55.20733265334536)"><path d="M0 0 C-19.13 18.4, -95.64 92.01, -114.77 110.41 M0 0 C-19.13 18.4, -95.64 92.01, -114.77 110.41" stroke="#1e1e1e" stroke-width="1" fill="none"></path></g><g transform="translate(1247.2346947210845 436.7226118517781) rotate(0 -57.38432583715371 55.20733265334536)"><path d="M-114.77 110.41 L-109.37 96.42 L-100.58 105.56 L-114.77 110.41" stroke="none" stroke-width="0" fill="#1e1e1e" fill-rule="evenodd"></path><path d="M-114.77 110.41 C-113.43 106.94, -112.09 103.47, -109.37 96.42 M-114.77 110.41 C-113.38 106.82, -112 103.23, -109.37 96.42 M-109.37 96.42 C-106.39 99.51, -103.42 102.61, -100.58 105.56 M-109.37 96.42 C-107.19 98.69, -105 100.96, -100.58 105.56 M-100.58 105.56 C-103.96 106.72, -107.34 107.87, -114.77 110.41 M-100.58 105.56 C-104.17 106.79, -107.76 108.02, -114.77 110.41 M-114.77 110.41 C-114.77 110.41, -114.77 110.41, -114.77 110.41 M-114.77 110.41 C-114.77 110.41, -114.77 110.41, -114.77 110.41" stroke="#1e1e1e" stroke-width="1" fill="none"></path></g></g><mask></mask><g stroke-linecap="round"><g transform="translate(1286.011022349489 438.7917173471169) rotate(0 56.49051675345936 49.89621882037278)"><path d="M0 0 C18.83 16.63, 94.15 83.16, 112.98 99.79 M0 0 C18.83 16.63, 94.15 83.16, 112.98 99.79" stroke="#1e1e1e" stroke-width="1" fill="none"></path></g><g transform="translate(1286.011022349489 438.7917173471169) rotate(0 56.49051675345936 49.89621882037278)"><path d="M112.98 99.79 L98.6 95.54 L106.99 86.04 L112.98 99.79" stroke="none" stroke-width="0" fill="#1e1e1e" fill-rule="evenodd"></path><path d="M112.98 99.79 C108.4 98.44, 103.82 97.09, 98.6 95.54 M112.98 99.79 C108.34 98.42, 103.7 97.05, 98.6 95.54 M98.6 95.54 C101.35 92.43, 104.1 89.32, 106.99 86.04 M98.6 95.54 C101.4 92.37, 104.2 89.19, 106.99 86.04 M106.99 86.04 C109.11 90.92, 111.24 95.79, 112.98 99.79 M106.99 86.04 C109.06 90.79, 111.12 95.53, 112.98 99.79 M112.98 99.79 C112.98 99.79, 112.98 99.79, 112.98 99.79 M112.98 99.79 C112.98 99.79, 112.98 99.79, 112.98 99.79" stroke="#1e1e1e" stroke-width="1" fill="none"></path></g></g><mask></mask><g transform="translate(1041.2317676745192 634.8042811114483) rotate(0 95.34991455078125 12.5)"><text x="95.34991455078125" y="0" font-family="Virgil, Segoe UI Emoji" font-size="20px" fill="#1e1e1e" text-anchor="middle" style="white-space: pre;" direction="ltr" dominant-baseline="text-before-edge">props.count.value++</text></g><g transform="translate(1310.6067774413486 631.0422318229473) rotate(0 91.06990051269531 12.5)"><text x="91.06990051269531" y="0" font-family="Virgil, Segoe UI Emoji" font-size="20px" fill="#1e1e1e" text-anchor="middle" style="white-space: pre;" direction="ltr" dominant-baseline="text-before-edge">props.count.value--</text></g><g transform="translate(793.5037584038067 638.1880528649273) rotate(0 94.7599105834961 12.500000000000057)"><text x="94.7599105834961" y="0" font-family="Virgil, Segoe UI Emoji" font-size="20px" fill="#1e1e1e" text-anchor="middle" style="white-space: pre;" direction="ltr" dominant-baseline="text-before-edge">show numberToShow</text></g></svg>