<svg version="1.1" xmlns="http://www.w3.org/2000/svg" viewBox="0 0 1555.5989764293336 1741.2244785562743" width="1555.5989764293336" height="1741.2244785562743">
  <!-- svg-source:excalidraw -->
  
  <defs>
    <style class="style-fonts">
      @font-face {
        font-family: "Virgil";
        src: url("https://excalidraw.com/Virgil.woff2");
      }
      @font-face {
        font-family: "Cascadia";
        src: url("https://excalidraw.com/Cascadia.woff2");
      }
    </style>
    
  </defs>
  <g transform="translate(451.90602989586023 10) rotate(0 166.77987670898438 12.5)"><text x="0" y="0" font-family="Virgil, Segoe UI Emoji" font-size="20px" fill="#1e1e1e" text-anchor="start" style="white-space: pre;" direction="ltr" dominant-baseline="text-before-edge">get refMap "a!" -&gt; getObject("a!")</text></g><g transform="translate(649.0367620570969 93.44660964831678) rotate(0 183.76986694335938 12.5)"><text x="0" y="0" font-family="Virgil, Segoe UI Emoji" font-size="20px" fill="#1e1e1e" text-anchor="start" style="white-space: pre;" direction="ltr" dominant-baseline="text-before-edge">Proxy { count: '0', $$identifier: '9' }</text></g><g stroke-linecap="round"><g transform="translate(703.8217925261451 41.63135515271074) rotate(0 0.13901692960507717 22.53426077223594)"><path d="M0 0 C0.05 7.51, 0.23 37.56, 0.28 45.07 M0 0 C0.05 7.51, 0.23 37.56, 0.28 45.07" stroke="#1e1e1e" stroke-width="1" fill="none"></path></g><g transform="translate(703.8217925261451 41.63135515271074) rotate(0 0.13901692960507717 22.53426077223594)"><path d="M0.28 45.07 L-6.14 31.51 L6.53 31.44 L0.28 45.07" stroke="none" stroke-width="0" fill="#1e1e1e" fill-rule="evenodd"></path><path d="M0.28 45.07 C-2.16 39.92, -4.6 34.77, -6.14 31.51 M0.28 45.07 C-2.15 39.95, -4.58 34.82, -6.14 31.51 M-6.14 31.51 C-3.2 31.5, -0.26 31.48, 6.53 31.44 M-6.14 31.51 C-3.17 31.49, -0.2 31.48, 6.53 31.44 M6.53 31.44 C4.34 36.21, 2.15 40.98, 0.28 45.07 M6.53 31.44 C5.1 34.56, 3.67 37.68, 0.28 45.07 M0.28 45.07 C0.28 45.07, 0.28 45.07, 0.28 45.07 M0.28 45.07 C0.28 45.07, 0.28 45.07, 0.28 45.07" stroke="#1e1e1e" stroke-width="1" fill="none"></path></g></g><mask></mask><g transform="translate(582.6399820514935 231.81911717068033) rotate(0 67.61993408203125 12.5)"><text x="0" y="0" font-family="Virgil, Segoe UI Emoji" font-size="20px" fill="#1e1e1e" text-anchor="start" style="white-space: pre;" direction="ltr" dominant-baseline="text-before-edge">getObject('0')</text></g><g transform="translate(962.6982287383898 222.48300029624772) rotate(0 66.8299331665039 12.5)"><text x="0" y="0" font-family="Virgil, Segoe UI Emoji" font-size="20px" fill="#1e1e1e" text-anchor="start" style="white-space: pre;" direction="ltr" dominant-baseline="text-before-edge">getObject('9')</text></g><g stroke-linecap="round"><g transform="translate(758.5948626022282 128.6489282450417) rotate(0 -49.75853777814382 47.06484016218445)"><path d="M0 0 C-16.59 15.69, -82.93 78.44, -99.52 94.13 M0 0 C-16.59 15.69, -82.93 78.44, -99.52 94.13" stroke="#1e1e1e" stroke-width="1" fill="none"></path></g><g transform="translate(758.5948626022282 128.6489282450417) rotate(0 -49.75853777814382 47.06484016218445)"><path d="M-99.52 94.13 L-94 80.18 L-85.28 89.39 L-99.52 94.13" stroke="none" stroke-width="0" fill="#1e1e1e" fill-rule="evenodd"></path><path d="M-99.52 94.13 C-97.67 89.46, -95.82 84.79, -94 80.18 M-99.52 94.13 C-98.04 90.41, -96.57 86.68, -94 80.18 M-94 80.18 C-92.01 82.28, -90.02 84.39, -85.28 89.39 M-94 80.18 C-91.56 82.76, -89.12 85.34, -85.28 89.39 M-85.28 89.39 C-90.61 91.17, -95.94 92.94, -99.52 94.13 M-85.28 89.39 C-90.71 91.2, -96.13 93, -99.52 94.13 M-99.52 94.13 C-99.52 94.13, -99.52 94.13, -99.52 94.13 M-99.52 94.13 C-99.52 94.13, -99.52 94.13, -99.52 94.13" stroke="#1e1e1e" stroke-width="1" fill="none"></path></g></g><mask></mask><g stroke-linecap="round"><g transform="translate(947.0273087568476 126.13792236495624) rotate(0 38.885521160304506 42.90678705732506)"><path d="M0 0 C12.96 14.3, 64.81 71.51, 77.77 85.81 M0 0 C12.96 14.3, 64.81 71.51, 77.77 85.81" stroke="#1e1e1e" stroke-width="1" fill="none"></path></g><g transform="translate(947.0273087568476 126.13792236495624) rotate(0 38.885521160304506 42.90678705732506)"><path d="M77.77 85.81 L63.94 80 L73.34 71.48 L77.77 85.81" stroke="none" stroke-width="0" fill="#1e1e1e" fill-rule="evenodd"></path><path d="M77.77 85.81 C73.35 83.96, 68.94 82.1, 63.94 80 M77.77 85.81 C73.36 83.96, 68.94 82.1, 63.94 80 M63.94 80 C67.53 76.75, 71.11 73.51, 73.34 71.48 M63.94 80 C67.01 77.22, 70.07 74.45, 73.34 71.48 M73.34 71.48 C74.64 75.69, 75.94 79.9, 77.77 85.81 M73.34 71.48 C74.87 76.43, 76.4 81.38, 77.77 85.81 M77.77 85.81 C77.77 85.81, 77.77 85.81, 77.77 85.81 M77.77 85.81 C77.77 85.81, 77.77 85.81, 77.77 85.81" stroke="#1e1e1e" stroke-width="1" fill="none"></path></g></g><mask></mask><g transform="translate(749.8356019148405 159.65830633486166) rotate(0 99.22989654541016 12.5)"><text x="0" y="0" font-family="Virgil, Segoe UI Emoji" font-size="20px" fill="#1e1e1e" text-anchor="start" style="white-space: pre;" direction="ltr" dominant-baseline="text-before-edge">reviveNestedObjects</text></g><g transform="translate(489.92251292331457 345.90964581114554) rotate(0 165.77987670898438 12.5)"><text x="0" y="0" font-family="Virgil, Segoe UI Emoji" font-size="20px" fill="#1e1e1e" text-anchor="start" style="white-space: pre;" direction="ltr" dominant-baseline="text-before-edge">SignalImpl { untrackedValue: '2' }</text></g><g stroke-linecap="round"><g transform="translate(652.9105500716078 264.7251791218911) rotate(0 0 33.59601722362538)"><path d="M0 0 C0 11.2, 0 55.99, 0 67.19 M0 0 C0 11.2, 0 55.99, 0 67.19" stroke="#1e1e1e" stroke-width="1" fill="none"></path></g><g transform="translate(652.9105500716078 264.7251791218911) rotate(0 0 33.59601722362538)"><path d="M0 67.19 L-6.34 53.6 L6.34 53.6 L0 67.19" stroke="none" stroke-width="0" fill="#1e1e1e" fill-rule="evenodd"></path><path d="M0 67.19 C-1.47 64.04, -2.94 60.9, -6.34 53.6 M0 67.19 C-1.8 63.33, -3.6 59.46, -6.34 53.6 M-6.34 53.6 C-1.85 53.6, 2.64 53.6, 6.34 53.6 M-6.34 53.6 C-1.62 53.6, 3.1 53.6, 6.34 53.6 M6.34 53.6 C4.65 57.23, 2.95 60.86, 0 67.19 M6.34 53.6 C4.77 56.97, 3.2 60.33, 0 67.19 M0 67.19 C0 67.19, 0 67.19, 0 67.19 M0 67.19 C0 67.19, 0 67.19, 0 67.19" stroke="#1e1e1e" stroke-width="1" fill="none"></path></g></g><mask></mask><g transform="translate(351.4954235026298 481.9584626044847) rotate(0 69.63996887207031 12.5)"><text x="0" y="0" font-family="Virgil, Segoe UI Emoji" font-size="20px" fill="#1e1e1e" text-anchor="start" style="white-space: pre;" direction="ltr" dominant-baseline="text-before-edge">["3 #c 7 #c"]</text></g><g mask="url(#mask-zSdjM9eNKVbwP0ck7gEYA)" stroke-linecap="round"><g transform="translate(654.1126877552915 382.53953869083307) rotate(0 -116.5108350548935 43.28382706138308)"><path d="M0 0 C-38.84 14.43, -194.18 72.14, -233.02 86.57 M0 0 C-38.84 14.43, -194.18 72.14, -233.02 86.57" stroke="#1e1e1e" stroke-width="1" fill="none"></path></g><g transform="translate(654.1126877552915 382.53953869083307) rotate(0 -116.5108350548935 43.28382706138308)"><path d="M-233.02 86.57 L-222.49 75.89 L-218.07 87.78 L-233.02 86.57" stroke="none" stroke-width="0" fill="#1e1e1e" fill-rule="evenodd"></path><path d="M-233.02 86.57 C-229.25 82.75, -225.48 78.93, -222.49 75.89 M-233.02 86.57 C-230.67 84.19, -228.32 81.81, -222.49 75.89 M-222.49 75.89 C-221.1 79.63, -219.71 83.36, -218.07 87.78 M-222.49 75.89 C-221.51 78.52, -220.53 81.15, -218.07 87.78 M-218.07 87.78 C-222.2 87.44, -226.32 87.11, -233.02 86.57 M-218.07 87.78 C-221.93 87.46, -225.78 87.15, -233.02 86.57 M-233.02 86.57 C-233.02 86.57, -233.02 86.57, -233.02 86.57 M-233.02 86.57 C-233.02 86.57, -233.02 86.57, -233.02 86.57" stroke="#1e1e1e" stroke-width="1" fill="none"></path></g></g><mask id="mask-zSdjM9eNKVbwP0ck7gEYA"><rect x="0" y="0" fill="#fff" width="987.1343578650785" height="569.1071928135992"></rect><rect x="447.52195768086676" y="413.3233657522161" fill="#000" width="180.1597900390625" height="25" opacity="1"></rect></mask><g transform="translate(447.52195768086676 413.3233657522162) rotate(0 90.07989501953125 12.500000000000057)"><text x="90.07989501953125" y="0" font-family="Virgil, Segoe UI Emoji" font-size="20px" fill="#1e1e1e" text-anchor="middle" style="white-space: pre;" direction="ltr" dominant-baseline="text-before-edge">reviveSubscriptions</text></g><g transform="translate(813.285240280461 483.9831456789749) rotate(0 67.85993194580078 25)"><text x="67.85993194580078" y="0" font-family="Virgil, Segoe UI Emoji" font-size="20px" fill="#2f9e44" text-anchor="middle" style="white-space: pre;" direction="ltr" dominant-baseline="text-before-edge">getObject('2')</text><text x="67.85993194580078" y="25" font-family="Virgil, Segoe UI Emoji" font-size="20px" fill="#2f9e44" text-anchor="middle" style="white-space: pre;" direction="ltr" dominant-baseline="text-before-edge">cache hit</text></g><g mask="url(#mask-TvsqHshPkEx_5mqr5nC9M)" stroke-linecap="round"><g transform="translate(671.7090085764112 382.43247419796955) rotate(0 94.48656158904441 47.01863162326367)"><path d="M0 0 C31.5 15.67, 157.48 78.36, 188.97 94.04 M0 0 C31.5 15.67, 157.48 78.36, 188.97 94.04" stroke="#1e1e1e" stroke-width="1" fill="none"></path></g><g transform="translate(671.7090085764112 382.43247419796955) rotate(0 94.48656158904441 47.01863162326367)"><path d="M188.97 94.04 L173.98 93.66 L179.63 82.31 L188.97 94.04" stroke="none" stroke-width="0" fill="#1e1e1e" fill-rule="evenodd"></path><path d="M188.97 94.04 C184.26 93.92, 179.55 93.8, 173.98 93.66 M188.97 94.04 C184.77 93.93, 180.56 93.82, 173.98 93.66 M173.98 93.66 C175.19 91.22, 176.4 88.78, 179.63 82.31 M173.98 93.66 C175.99 89.6, 178.01 85.55, 179.63 82.31 M179.63 82.31 C182.03 85.32, 184.43 88.33, 188.97 94.04 M179.63 82.31 C182.22 85.56, 184.81 88.81, 188.97 94.04 M188.97 94.04 C188.97 94.04, 188.97 94.04, 188.97 94.04 M188.97 94.04 C188.97 94.04, 188.97 94.04, 188.97 94.04" stroke="#1e1e1e" stroke-width="1" fill="none"></path></g></g><mask id="mask-TvsqHshPkEx_5mqr5nC9M"><rect x="0" y="0" fill="#fff" width="960.6821317545" height="576.4697374444969"></rect><rect x="666.9656736200459" y="416.9511058212331" fill="#000" width="198.4597930908203" height="25" opacity="1"></rect></mask><g transform="translate(666.9656736200459 416.95110582123334) rotate(0 99.2298965454097 12.5)"><text x="99.22989654541016" y="0" font-family="Virgil, Segoe UI Emoji" font-size="20px" fill="#1e1e1e" text-anchor="middle" style="white-space: pre;" direction="ltr" dominant-baseline="text-before-edge">reviveNestedObjects</text></g><g transform="translate(132.07485632536827 625.4107604524644) rotate(0 253.009765625 12.5)"><text x="0" y="0" font-family="Virgil, Segoe UI Emoji" font-size="20px" fill="#1e1e1e" text-anchor="start" style="white-space: pre;" direction="ltr" dominant-baseline="text-before-edge">[3, getObject('#c'), getObject('7'), getObject('#c')]</text></g><g mask="url(#mask-9LgpSnSfWQZAwaDlL3BxK)" stroke-linecap="round"><g transform="translate(416.30060253053034 517.4057317833677) rotate(0 -1.207621323506828 49.0620891531637)"><path d="M0 0 C-0.4 16.35, -2.01 81.77, -2.42 98.12 M0 0 C-0.4 16.35, -2.01 81.77, -2.42 98.12" stroke="#1e1e1e" stroke-width="1" fill="none"></path></g><g transform="translate(416.30060253053034 517.4057317833677) rotate(0 -1.207621323506828 49.0620891531637)"><path d="M-2.42 98.12 L-8.42 84.38 L4.26 84.69 L-2.42 98.12" stroke="none" stroke-width="0" fill="#1e1e1e" fill-rule="evenodd"></path><path d="M-2.42 98.12 C-4.22 93.99, -6.03 89.85, -8.42 84.38 M-2.42 98.12 C-4.14 94.18, -5.86 90.24, -8.42 84.38 M-8.42 84.38 C-3.55 84.5, 1.33 84.62, 4.26 84.69 M-8.42 84.38 C-4.22 84.48, -0.02 84.58, 4.26 84.69 M4.26 84.69 C2.08 89.08, -0.11 93.47, -2.42 98.12 M4.26 84.69 C2.43 88.37, 0.6 92.06, -2.42 98.12 M-2.42 98.12 C-2.42 98.12, -2.42 98.12, -2.42 98.12 M-2.42 98.12 C-2.42 98.12, -2.42 98.12, -2.42 98.12" stroke="#1e1e1e" stroke-width="1" fill="none"></path></g></g><mask id="mask-9LgpSnSfWQZAwaDlL3BxK"><rect x="0" y="0" fill="#fff" width="518.715845177544" height="715.5299100896951"></rect><rect x="331.53307520116414" y="553.9678209365313" fill="#000" width="167.11981201171875" height="25" opacity="1"></rect></mask><g transform="translate(331.53307520116414 553.9678209365316) rotate(0 83.55990600585938 12.5)"><text x="83.55990600585938" y="0" font-family="Virgil, Segoe UI Emoji" font-size="20px" fill="#1e1e1e" text-anchor="middle" style="white-space: pre;" direction="ltr" dominant-baseline="text-before-edge">parseSubscription</text></g><g transform="translate(191.41068663536043 778.9906266658021) rotate(0 225.92987060546875 12.5)"><text x="0" y="0" font-family="Virgil, Segoe UI Emoji" font-size="20px" fill="#1e1e1e" text-anchor="start" style="white-space: pre;" direction="ltr" dominant-baseline="text-before-edge">SignalDerived { $args$: ['6!'], $func$: '@1' }</text></g><g mask="url(#mask-fbJDQN7ca4C-439ror3cF)" stroke-linecap="round"><g transform="translate(413.42052587964645 658.8333010056934) rotate(0 -0.7742118644860057 54.398134135260534)"><path d="M0 0 C-0.26 18.13, -1.29 90.66, -1.55 108.8 M0 0 C-0.26 18.13, -1.29 90.66, -1.55 108.8" stroke="#1e1e1e" stroke-width="1" fill="none"></path></g><g transform="translate(413.42052587964645 658.8333010056934) rotate(0 -0.7742118644860057 54.398134135260534)"><path d="M-1.55 108.8 L-7.69 95.11 L4.98 95.29 L-1.55 108.8" stroke="none" stroke-width="0" fill="#1e1e1e" fill-rule="evenodd"></path><path d="M-1.55 108.8 C-3.75 103.9, -5.94 99.01, -7.69 95.11 M-1.55 108.8 C-3.49 104.47, -5.43 100.15, -7.69 95.11 M-7.69 95.11 C-4.44 95.16, -1.19 95.21, 4.98 95.29 M-7.69 95.11 C-2.8 95.18, 2.1 95.25, 4.98 95.29 M4.98 95.29 C2.59 100.24, 0.2 105.19, -1.55 108.8 M4.98 95.29 C3.22 98.94, 1.46 102.59, -1.55 108.8 M-1.55 108.8 C-1.55 108.8, -1.55 108.8, -1.55 108.8 M-1.55 108.8 C-1.55 108.8, -1.55 108.8, -1.55 108.8" stroke="#1e1e1e" stroke-width="1" fill="none"></path></g></g><mask id="mask-fbJDQN7ca4C-439ror3cF"><rect x="0" y="0" fill="#fff" width="514.9689496086185" height="867.6295692762145"></rect><rect x="351.10634361721077" y="700.7314351409541" fill="#000" width="123.07994079589844" height="25" opacity="1"></rect></mask><g transform="translate(351.10634361721077 700.7314351409541) rotate(0 61.53997039794967 12.5)"><text x="61.53997039794922" y="0" font-family="Virgil, Segoe UI Emoji" font-size="20px" fill="#1e1e1e" text-anchor="middle" style="white-space: pre;" direction="ltr" dominant-baseline="text-before-edge">"\u00116! @1"</text></g><g transform="translate(240.71726747177036 914.3015015724558) rotate(0 70.09992980957031 12.5)"><text x="0" y="0" font-family="Virgil, Segoe UI Emoji" font-size="20px" fill="#1e1e1e" text-anchor="start" style="white-space: pre;" direction="ltr" dominant-baseline="text-before-edge">getObject('6!')</text></g><g transform="translate(563.7714257646121 906.3697765247038) rotate(0 71.49993133544922 12.5)"><text x="0" y="0" font-family="Virgil, Segoe UI Emoji" font-size="20px" fill="#1e1e1e" text-anchor="start" style="white-space: pre;" direction="ltr" dominant-baseline="text-before-edge">getObject('@1')</text></g><g stroke-linecap="round"><g transform="translate(364.6021911907965 814.6056861591293) rotate(0 -26.86207422508005 42.47895735047996)"><path d="M0 0 C-8.95 14.16, -44.77 70.8, -53.72 84.96 M0 0 C-8.95 14.16, -44.77 70.8, -53.72 84.96" stroke="#1e1e1e" stroke-width="1" fill="none"></path></g><g transform="translate(364.6021911907965 814.6056861591293) rotate(0 -26.86207422508005 42.47895735047996)"><path d="M-53.72 84.96 L-51.82 70.08 L-41.1 76.86 L-53.72 84.96" stroke="none" stroke-width="0" fill="#1e1e1e" fill-rule="evenodd"></path><path d="M-53.72 84.96 C-53.07 79.88, -52.42 74.8, -51.82 70.08 M-53.72 84.96 C-53.26 81.36, -52.8 77.76, -51.82 70.08 M-51.82 70.08 C-49.61 71.47, -47.41 72.87, -41.1 76.86 M-51.82 70.08 C-49.65 71.45, -47.49 72.82, -41.1 76.86 M-41.1 76.86 C-45.7 79.81, -50.3 82.76, -53.72 84.96 M-41.1 76.86 C-44.2 78.85, -47.3 80.84, -53.72 84.96 M-53.72 84.96 C-53.72 84.96, -53.72 84.96, -53.72 84.96 M-53.72 84.96 C-53.72 84.96, -53.72 84.96, -53.72 84.96" stroke="#1e1e1e" stroke-width="1" fill="none"></path></g></g><mask></mask><g stroke-linecap="round"><g transform="translate(595.8147920057327 812.8535295795372) rotate(0 17.176869113477096 41.86664232779799)"><path d="M0 0 C5.73 13.96, 28.63 69.78, 34.35 83.73 M0 0 C5.73 13.96, 28.63 69.78, 34.35 83.73" stroke="#1e1e1e" stroke-width="1" fill="none"></path></g><g transform="translate(595.8147920057327 812.8535295795372) rotate(0 17.176869113477096 41.86664232779799)"><path d="M34.35 83.73 L23.33 73.56 L35.06 68.75 L34.35 83.73" stroke="none" stroke-width="0" fill="#1e1e1e" fill-rule="evenodd"></path><path d="M34.35 83.73 C30.93 80.58, 27.51 77.42, 23.33 73.56 M34.35 83.73 C30.4 80.09, 26.45 76.44, 23.33 73.56 M23.33 73.56 C26.57 72.23, 29.82 70.9, 35.06 68.75 M23.33 73.56 C26.33 72.33, 29.33 71.1, 35.06 68.75 M35.06 68.75 C34.91 71.95, 34.76 75.15, 34.35 83.73 M35.06 68.75 C34.78 74.63, 34.51 80.51, 34.35 83.73 M34.35 83.73 C34.35 83.73, 34.35 83.73, 34.35 83.73 M34.35 83.73 C34.35 83.73, 34.35 83.73, 34.35 83.73" stroke="#1e1e1e" stroke-width="1" fill="none"></path></g></g><mask></mask><g transform="translate(381.69214024382654 837.1045874834334) rotate(0 99.22989654541016 12.5)"><text x="0" y="0" font-family="Virgil, Segoe UI Emoji" font-size="20px" fill="#1e1e1e" text-anchor="start" style="white-space: pre;" direction="ltr" dominant-baseline="text-before-edge">reviveNestedObjects</text></g><g transform="translate(532.3257609742732 1004.5807376798244) rotate(0 151.08987426757812 12.5)"><text x="0" y="0" font-family="Virgil, Segoe UI Emoji" font-size="20px" fill="#1e1e1e" text-anchor="start" style="white-space: pre;" direction="ltr" dominant-baseline="text-before-edge">(p0) =&gt; p0.numberToShow.value</text></g><g stroke-linecap="round"><g transform="translate(644.5376038138256 942.5767956527621) rotate(0 11.827137434290762 26.445846225714376)"><path d="M0 0 C3.94 8.82, 19.71 44.08, 23.65 52.89 M0 0 C3.94 8.82, 19.71 44.08, 23.65 52.89" stroke="#1e1e1e" stroke-width="1" fill="none"></path></g><g transform="translate(644.5376038138256 942.5767956527621) rotate(0 11.827137434290762 26.445846225714376)"><path d="M23.65 52.89 L12.32 43.07 L23.89 37.89 L23.65 52.89" stroke="none" stroke-width="0" fill="#1e1e1e" fill-rule="evenodd"></path><path d="M23.65 52.89 C20.75 50.38, 17.85 47.87, 12.32 43.07 M23.65 52.89 C19.58 49.36, 15.51 45.83, 12.32 43.07 M12.32 43.07 C16.08 41.39, 19.85 39.7, 23.89 37.89 M12.32 43.07 C16.15 41.35, 19.99 39.64, 23.89 37.89 M23.89 37.89 C23.84 40.97, 23.79 44.05, 23.65 52.89 M23.89 37.89 C23.84 41.04, 23.79 44.18, 23.65 52.89 M23.65 52.89 C23.65 52.89, 23.65 52.89, 23.65 52.89 M23.65 52.89 C23.65 52.89, 23.65 52.89, 23.65 52.89" stroke="#1e1e1e" stroke-width="1" fill="none"></path></g></g><mask></mask><g transform="translate(10 1004.7941587244374) rotate(0 225.059814453125 12.5)"><text x="0" y="0" font-family="Virgil, Segoe UI Emoji" font-size="20px" fill="#1e1e1e" text-anchor="start" style="white-space: pre;" direction="ltr" dominant-baseline="text-before-edge">Proxy { numberToShow: '0', $$identifier: '5' }</text></g><g stroke-linecap="round"><g transform="translate(277.79966842366684 948.7552881715707) rotate(0 -18.917552247899494 23.2405177603207)"><path d="M0 0 C-6.31 7.75, -31.53 38.73, -37.84 46.48 M0 0 C-6.31 7.75, -31.53 38.73, -37.84 46.48" stroke="#1e1e1e" stroke-width="1" fill="none"></path></g><g transform="translate(277.79966842366684 948.7552881715707) rotate(0 -18.917552247899494 23.2405177603207)"><path d="M-37.84 46.48 L-34.17 31.94 L-24.34 39.94 L-37.84 46.48" stroke="none" stroke-width="0" fill="#1e1e1e" fill-rule="evenodd"></path><path d="M-37.84 46.48 C-36.41 40.84, -34.99 35.2, -34.17 31.94 M-37.84 46.48 C-36.51 41.23, -35.19 35.97, -34.17 31.94 M-34.17 31.94 C-30.75 34.72, -27.32 37.51, -24.34 39.94 M-34.17 31.94 C-31.38 34.2, -28.6 36.47, -24.34 39.94 M-24.34 39.94 C-27.27 41.36, -30.2 42.78, -37.84 46.48 M-24.34 39.94 C-27.54 41.49, -30.75 43.05, -37.84 46.48 M-37.84 46.48 C-37.84 46.48, -37.84 46.48, -37.84 46.48 M-37.84 46.48 C-37.84 46.48, -37.84 46.48, -37.84 46.48" stroke="#1e1e1e" stroke-width="1" fill="none"></path></g></g><mask></mask><g transform="translate(401.818308628659 1120.274694308695) rotate(0 66.91992950439453 12.5)"><text x="0" y="0" font-family="Virgil, Segoe UI Emoji" font-size="20px" fill="#1e1e1e" text-anchor="start" style="white-space: pre;" direction="ltr" dominant-baseline="text-before-edge">getObject('5')</text></g><g stroke-linecap="round"><g transform="translate(391.5241361097369 1039.7234243113166) rotate(0 26.65591288590167 34.741030957518774)"><path d="M0 0 C8.89 11.58, 44.43 57.9, 53.31 69.48 M0 0 C8.89 11.58, 44.43 57.9, 53.31 69.48" stroke="#1e1e1e" stroke-width="1" fill="none"></path></g><g transform="translate(391.5241361097369 1039.7234243113166) rotate(0 26.65591288590167 34.741030957518774)"><path d="M53.31 69.48 L40.01 62.56 L50.07 54.84 L53.31 69.48" stroke="none" stroke-width="0" fill="#1e1e1e" fill-rule="evenodd"></path><path d="M53.31 69.48 C50.29 67.91, 47.26 66.33, 40.01 62.56 M53.31 69.48 C49 67.24, 44.68 64.99, 40.01 62.56 M40.01 62.56 C42.5 60.64, 45 58.72, 50.07 54.84 M40.01 62.56 C43.1 60.18, 46.2 57.8, 50.07 54.84 M50.07 54.84 C51.15 59.73, 52.24 64.63, 53.31 69.48 M50.07 54.84 C51.12 59.61, 52.18 64.38, 53.31 69.48 M53.31 69.48 C53.31 69.48, 53.31 69.48, 53.31 69.48 M53.31 69.48 C53.31 69.48, 53.31 69.48, 53.31 69.48" stroke="#1e1e1e" stroke-width="1" fill="none"></path></g></g><mask></mask><g transform="translate(16.413417207384555 1126.1282126289702) rotate(0 67.61993408203125 25)"><text x="67.61993408203125" y="0" font-family="Virgil, Segoe UI Emoji" font-size="20px" fill="#2f9e44" text-anchor="middle" style="white-space: pre;" direction="ltr" dominant-baseline="text-before-edge">getObject('0')</text><text x="67.61993408203125" y="25" font-family="Virgil, Segoe UI Emoji" font-size="20px" fill="#2f9e44" text-anchor="middle" style="white-space: pre;" direction="ltr" dominant-baseline="text-before-edge">cache hit</text></g><g stroke-linecap="round"><g transform="translate(193.63558956050656 1040.6166904191573) rotate(0 -31.03712229185976 36.91034518862409)"><path d="M0 0 C-10.35 12.3, -51.73 61.52, -62.07 73.82 M0 0 C-10.35 12.3, -51.73 61.52, -62.07 73.82" stroke="#1e1e1e" stroke-width="1" fill="none"></path></g><g transform="translate(193.63558956050656 1040.6166904191573) rotate(0 -31.03712229185976 36.91034518862409)"><path d="M-62.07 73.82 L-58.18 59.34 L-48.47 67.5 L-62.07 73.82" stroke="none" stroke-width="0" fill="#1e1e1e" fill-rule="evenodd"></path><path d="M-62.07 73.82 C-61.2 70.59, -60.33 67.35, -58.18 59.34 M-62.07 73.82 C-60.67 68.59, -59.26 63.36, -58.18 59.34 M-58.18 59.34 C-55.11 61.91, -52.04 64.49, -48.47 67.5 M-58.18 59.34 C-55.7 61.42, -53.23 63.5, -48.47 67.5 M-48.47 67.5 C-52.5 69.37, -56.52 71.24, -62.07 73.82 M-48.47 67.5 C-52.66 69.44, -56.85 71.39, -62.07 73.82 M-62.07 73.82 C-62.07 73.82, -62.07 73.82, -62.07 73.82 M-62.07 73.82 C-62.07 73.82, -62.07 73.82, -62.07 73.82" stroke="#1e1e1e" stroke-width="1" fill="none"></path></g></g><mask></mask><g transform="translate(190.00413523896168 1063.4595170946923) rotate(0 99.22989654541016 12.5)"><text x="0" y="0" font-family="Virgil, Segoe UI Emoji" font-size="20px" fill="#1e1e1e" text-anchor="start" style="white-space: pre;" direction="ltr" dominant-baseline="text-before-edge">reviveNestedObjects</text></g><g transform="translate(229.2586481322851 1266.766811347139) rotate(0 230.099853515625 12.5)"><text x="0" y="0" font-family="Virgil, Segoe UI Emoji" font-size="20px" fill="#1e1e1e" text-anchor="start" style="white-space: pre;" direction="ltr" dominant-baseline="text-before-edge">SignalDerived { $args$: ['4!'], $func$: '@0' }</text></g><g mask="url(#mask-t_4kk4Ws_HSBJmId1UEKR)" stroke-linecap="round"><g transform="translate(462.5663854083159 1154.3478812451622) rotate(0 -0.5934931617503025 50.66809116743957)"><path d="M0 0 C-0.2 16.89, -0.99 84.45, -1.19 101.34 M0 0 C-0.2 16.89, -0.99 84.45, -1.19 101.34" stroke="#1e1e1e" stroke-width="1" fill="none"></path></g><g transform="translate(462.5663854083159 1154.3478812451622) rotate(0 -0.5934931617503025 50.66809116743957)"><path d="M-1.19 101.34 L-7.37 87.67 L5.31 87.82 L-1.19 101.34" stroke="none" stroke-width="0" fill="#1e1e1e" fill-rule="evenodd"></path><path d="M-1.19 101.34 C-3.54 96.13, -5.9 90.92, -7.37 87.67 M-1.19 101.34 C-2.78 97.81, -4.38 94.28, -7.37 87.67 M-7.37 87.67 C-3.82 87.71, -0.27 87.75, 5.31 87.82 M-7.37 87.67 C-4.24 87.7, -1.11 87.74, 5.31 87.82 M5.31 87.82 C2.88 92.87, 0.45 97.93, -1.19 101.34 M5.31 87.82 C3.02 92.57, 0.74 97.33, -1.19 101.34 M-1.19 101.34 C-1.19 101.34, -1.19 101.34, -1.19 101.34 M-1.19 101.34 C-1.19 101.34, -1.19 101.34, -1.19 101.34" stroke="#1e1e1e" stroke-width="1" fill="none"></path></g></g><mask id="mask-t_4kk4Ws_HSBJmId1UEKR"><rect x="0" y="0" fill="#fff" width="563.7533717318165" height="1355.6840635800413"></rect><rect x="396.2629236796711" y="1192.5159724126015" fill="#000" width="131.41993713378906" height="25" opacity="1"></rect></mask><g transform="translate(396.2629236796711 1192.5159724126013) rotate(0 65.70996856689453 12.5)"><text x="65.70996856689453" y="0" font-family="Virgil, Segoe UI Emoji" font-size="20px" fill="#1e1e1e" text-anchor="middle" style="white-space: pre;" direction="ltr" dominant-baseline="text-before-edge">"\u00114! @0"</text></g><g transform="translate(254.8614807463009 1406.4835039895283) rotate(0 70.09992980957031 12.500000000000114)"><text x="0" y="0" font-family="Virgil, Segoe UI Emoji" font-size="20px" fill="#1e1e1e" text-anchor="start" style="white-space: pre;" direction="ltr" dominant-baseline="text-before-edge">getObject('4!')</text></g><g transform="translate(577.9156390391427 1398.5517789417763) rotate(0 75.66992950439453 12.499999999999886)"><text x="0" y="0" font-family="Virgil, Segoe UI Emoji" font-size="20px" fill="#1e1e1e" text-anchor="start" style="white-space: pre;" direction="ltr" dominant-baseline="text-before-edge">getObject('@0')</text></g><g stroke-linecap="round"><g transform="translate(381.5862027440826 1303.250736066279) rotate(0 -28.38074779727458 44.247433605441415)"><path d="M0 0 C-9.46 14.75, -47.3 73.75, -56.76 88.49 M0 0 C-9.46 14.75, -47.3 73.75, -56.76 88.49" stroke="#1e1e1e" stroke-width="1" fill="none"></path></g><g transform="translate(381.5862027440826 1303.250736066279) rotate(0 -28.38074779727458 44.247433605441415)"><path d="M-56.76 88.49 L-54.76 73.63 L-44.09 80.47 L-56.76 88.49" stroke="none" stroke-width="0" fill="#1e1e1e" fill-rule="evenodd"></path><path d="M-56.76 88.49 C-56.12 83.72, -55.47 78.94, -54.76 73.63 M-56.76 88.49 C-56.06 83.29, -55.36 78.09, -54.76 73.63 M-54.76 73.63 C-52.22 75.26, -49.67 76.89, -44.09 80.47 M-54.76 73.63 C-51.8 75.52, -48.85 77.42, -44.09 80.47 M-44.09 80.47 C-46.74 82.16, -49.4 83.84, -56.76 88.49 M-44.09 80.47 C-48.81 83.47, -53.54 86.46, -56.76 88.49 M-56.76 88.49 C-56.76 88.49, -56.76 88.49, -56.76 88.49 M-56.76 88.49 C-56.76 88.49, -56.76 88.49, -56.76 88.49" stroke="#1e1e1e" stroke-width="1" fill="none"></path></g></g><mask></mask><g stroke-linecap="round"><g transform="translate(604.4830750206311 1302.8693367849205) rotate(0 21.631716138693264 42.94973993364272)"><path d="M0 0 C7.21 14.32, 36.05 71.58, 43.26 85.9 M0 0 C7.21 14.32, 36.05 71.58, 43.26 85.9" stroke="#1e1e1e" stroke-width="1" fill="none"></path></g><g transform="translate(604.4830750206311 1302.8693367849205) rotate(0 21.631716138693264 42.94973993364272)"><path d="M43.26 85.9 L31.49 76.61 L42.81 70.91 L43.26 85.9" stroke="none" stroke-width="0" fill="#1e1e1e" fill-rule="evenodd"></path><path d="M43.26 85.9 C39.97 83.3, 36.67 80.7, 31.49 76.61 M43.26 85.9 C38.91 82.47, 34.56 79.04, 31.49 76.61 M31.49 76.61 C35.3 74.69, 39.12 72.77, 42.81 70.91 M31.49 76.61 C35.38 74.65, 39.28 72.68, 42.81 70.91 M42.81 70.91 C42.94 75.34, 43.08 79.78, 43.26 85.9 M42.81 70.91 C42.92 74.49, 43.03 78.08, 43.26 85.9 M43.26 85.9 C43.26 85.9, 43.26 85.9, 43.26 85.9 M43.26 85.9 C43.26 85.9, 43.26 85.9, 43.26 85.9" stroke="#1e1e1e" stroke-width="1" fill="none"></path></g></g><mask></mask><g transform="translate(395.8363535183571 1329.286589900506) rotate(0 99.22989654541016 12.5)"><text x="0" y="0" font-family="Virgil, Segoe UI Emoji" font-size="20px" fill="#1e1e1e" text-anchor="start" style="white-space: pre;" direction="ltr" dominant-baseline="text-before-edge">reviveNestedObjects</text></g><g transform="translate(607.1967973844658 1497.075211786232) rotate(0 97.58991241455078 12.5)"><text x="0" y="0" font-family="Virgil, Segoe UI Emoji" font-size="20px" fill="#1e1e1e" text-anchor="start" style="white-space: pre;" direction="ltr" dominant-baseline="text-before-edge">(p0) =&gt; p0.identifier</text></g><g stroke-linecap="round"><g transform="translate(663.9533156965608 1434.758798069834) rotate(0 13.209639142911328 26.602082070382266)"><path d="M0 0 C4.4 8.87, 22.02 44.34, 26.42 53.2 M0 0 C4.4 8.87, 22.02 44.34, 26.42 53.2" stroke="#1e1e1e" stroke-width="1" fill="none"></path></g><g transform="translate(663.9533156965608 1434.758798069834) rotate(0 13.209639142911328 26.602082070382266)"><path d="M26.42 53.2 L14.7 43.85 L26.05 38.21 L26.42 53.2" stroke="none" stroke-width="0" fill="#1e1e1e" fill-rule="evenodd"></path><path d="M26.42 53.2 C21.95 49.63, 17.47 46.06, 14.7 43.85 M26.42 53.2 C23.78 51.1, 21.13 48.99, 14.7 43.85 M14.7 43.85 C18.6 41.91, 22.51 39.97, 26.05 38.21 M14.7 43.85 C17.07 42.67, 19.45 41.49, 26.05 38.21 M26.05 38.21 C26.19 43.73, 26.32 49.25, 26.42 53.2 M26.05 38.21 C26.13 41.39, 26.21 44.56, 26.42 53.2 M26.42 53.2 C26.42 53.2, 26.42 53.2, 26.42 53.2 M26.42 53.2 C26.42 53.2, 26.42 53.2, 26.42 53.2" stroke="#1e1e1e" stroke-width="1" fill="none"></path></g></g><mask></mask><g transform="translate(53.85815088825984 1498.7625311144957) rotate(0 196.27984619140625 12.5)"><text x="0" y="0" font-family="Virgil, Segoe UI Emoji" font-size="20px" fill="#1e1e1e" text-anchor="start" style="white-space: pre;" direction="ltr" dominant-baseline="text-before-edge">Proxy { initialCount: '2', identifier: '3' }</text></g><g stroke-linecap="round"><g transform="translate(304.51333546561455 1440.0968252327134) rotate(0 -17.528659501320817 25.58377400882182)"><path d="M0 0 C-5.84 8.53, -29.21 42.64, -35.06 51.17 M0 0 C-5.84 8.53, -29.21 42.64, -35.06 51.17" stroke="#1e1e1e" stroke-width="1" fill="none"></path></g><g transform="translate(304.51333546561455 1440.0968252327134) rotate(0 -17.528659501320817 25.58377400882182)"><path d="M-35.06 51.17 L-32.6 36.37 L-22.14 43.54 L-35.06 51.17" stroke="none" stroke-width="0" fill="#1e1e1e" fill-rule="evenodd"></path><path d="M-35.06 51.17 C-34.23 46.16, -33.39 41.14, -32.6 36.37 M-35.06 51.17 C-34.42 47.33, -33.79 43.5, -32.6 36.37 M-32.6 36.37 C-28.9 38.91, -25.19 41.45, -22.14 43.54 M-32.6 36.37 C-29.43 38.55, -26.25 40.72, -22.14 43.54 M-22.14 43.54 C-26.38 46.04, -30.62 48.55, -35.06 51.17 M-22.14 43.54 C-25.53 45.53, -28.91 47.53, -35.06 51.17 M-35.06 51.17 C-35.06 51.17, -35.06 51.17, -35.06 51.17 M-35.06 51.17 C-35.06 51.17, -35.06 51.17, -35.06 51.17" stroke="#1e1e1e" stroke-width="1" fill="none"></path></g></g><mask></mask><g transform="translate(415.96252190318864 1612.4566967257674) rotate(0 67.54993438720703 12.5)"><text x="0" y="0" font-family="Virgil, Segoe UI Emoji" font-size="20px" fill="#1e1e1e" text-anchor="start" style="white-space: pre;" direction="ltr" dominant-baseline="text-before-edge">getObject('3')</text></g><g stroke-linecap="round"><g transform="translate(392.5202087811531 1533.691796701375) rotate(0 31.51339707637544 33.84784597102589)"><path d="M0 0 C10.5 11.28, 52.52 56.41, 63.03 67.7 M0 0 C10.5 11.28, 52.52 56.41, 63.03 67.7" stroke="#1e1e1e" stroke-width="1" fill="none"></path></g><g transform="translate(392.5202087811531 1533.691796701375) rotate(0 31.51339707637544 33.84784597102589)"><path d="M63.03 67.7 L49.12 62.07 L58.4 53.43 L63.03 67.7" stroke="none" stroke-width="0" fill="#1e1e1e" fill-rule="evenodd"></path><path d="M63.03 67.7 C59.54 66.28, 56.06 64.87, 49.12 62.07 M63.03 67.7 C59.01 66.07, 55 64.44, 49.12 62.07 M49.12 62.07 C51.31 60.03, 53.49 58, 58.4 53.43 M49.12 62.07 C52.71 58.72, 56.3 55.38, 58.4 53.43 M58.4 53.43 C59.65 57.29, 60.91 61.15, 63.03 67.7 M58.4 53.43 C59.66 57.32, 60.92 61.21, 63.03 67.7 M63.03 67.7 C63.03 67.7, 63.03 67.7, 63.03 67.7 M63.03 67.7 C63.03 67.7, 63.03 67.7, 63.03 67.7" stroke="#1e1e1e" stroke-width="1" fill="none"></path></g></g><mask></mask><g transform="translate(30.31763261814467 1618.3102150460422) rotate(0 67.85993194580078 12.5)"><text x="67.85993194580078" y="0" font-family="Virgil, Segoe UI Emoji" font-size="20px" fill="#1e1e1e" text-anchor="middle" style="white-space: pre;" direction="ltr" dominant-baseline="text-before-edge">getObject('2')</text></g><g stroke-linecap="round"><g transform="translate(210.45034113566817 1534.5850628092157) rotate(0 -36.35702417949415 36.01716020213098)"><path d="M0 0 C-12.12 12.01, -60.6 60.03, -72.71 72.03 M0 0 C-12.12 12.01, -60.6 60.03, -72.71 72.03" stroke="#1e1e1e" stroke-width="1" fill="none"></path></g><g transform="translate(210.45034113566817 1534.5850628092157) rotate(0 -36.35702417949415 36.01716020213098)"><path d="M-72.71 72.03 L-67.52 57.96 L-58.59 66.97 L-72.71 72.03" stroke="none" stroke-width="0" fill="#1e1e1e" fill-rule="evenodd"></path><path d="M-72.71 72.03 C-71.11 67.69, -69.5 63.34, -67.52 57.96 M-72.71 72.03 C-70.9 67.12, -69.08 62.21, -67.52 57.96 M-67.52 57.96 C-65.72 59.77, -63.93 61.58, -58.59 66.97 M-67.52 57.96 C-64.65 60.86, -61.78 63.75, -58.59 66.97 M-58.59 66.97 C-63.26 68.64, -67.93 70.32, -72.71 72.03 M-58.59 66.97 C-61.91 68.16, -65.23 69.35, -72.71 72.03 M-72.71 72.03 C-72.71 72.03, -72.71 72.03, -72.71 72.03 M-72.71 72.03 C-72.71 72.03, -72.71 72.03, -72.71 72.03" stroke="#1e1e1e" stroke-width="1" fill="none"></path></g></g><mask></mask><g transform="translate(204.14834851349133 1555.6415195117647) rotate(0 99.22989654541016 12.5)"><text x="0" y="0" font-family="Virgil, Segoe UI Emoji" font-size="20px" fill="#1e1e1e" text-anchor="start" style="white-space: pre;" direction="ltr" dominant-baseline="text-before-edge">reviveNestedObjects</text></g><g transform="translate(89.97998986732273 1705.9936191064226) rotate(0 9.589996337890625 12.5)"><text x="9.589996337890625" y="0" font-family="Virgil, Segoe UI Emoji" font-size="20px" fill="#1e1e1e" text-anchor="middle" style="white-space: pre;" direction="ltr" dominant-baseline="text-before-edge">10</text></g><g transform="translate(464.7477989184663 1706.2244785562743) rotate(0 18.959976196289062 12.5)"><text x="18.959976196289062" y="0" font-family="Virgil, Segoe UI Emoji" font-size="20px" fill="#1e1e1e" text-anchor="middle" style="white-space: pre;" direction="ltr" dominant-baseline="text-before-edge">'leo'</text></g><g stroke-linecap="round"><g transform="translate(99.7224228594223 1651.816694128814) rotate(0 -0.06793984419118715 22.022664144336886)"><path d="M0 0 C-0.02 7.34, -0.11 36.7, -0.14 44.05 M0 0 C-0.02 7.34, -0.11 36.7, -0.14 44.05" stroke="#1e1e1e" stroke-width="1" fill="none"></path></g><g transform="translate(99.7224228594223 1651.816694128814) rotate(0 -0.06793984419118715 22.022664144336886)"><path d="M-0.14 44.05 L-6.43 30.43 L6.25 30.47 L-0.14 44.05" stroke="none" stroke-width="0" fill="#1e1e1e" fill-rule="evenodd"></path><path d="M-0.14 44.05 C-1.46 41.18, -2.79 38.31, -6.43 30.43 M-0.14 44.05 C-1.91 40.2, -3.69 36.36, -6.43 30.43 M-6.43 30.43 C-2.2 30.44, 2.02 30.46, 6.25 30.47 M-6.43 30.43 C-2.48 30.44, 1.47 30.46, 6.25 30.47 M6.25 30.47 C4.33 34.55, 2.41 38.62, -0.14 44.05 M6.25 30.47 C4.93 33.27, 3.61 36.07, -0.14 44.05 M-0.14 44.05 C-0.14 44.05, -0.14 44.05, -0.14 44.05 M-0.14 44.05 C-0.14 44.05, -0.14 44.05, -0.14 44.05" stroke="#1e1e1e" stroke-width="1" fill="none"></path></g></g><mask></mask><g stroke-linecap="round"><g transform="translate(483.651866040349 1649.022647516127) rotate(0 0.38944047381437485 23.095818189968668)"><path d="M0 0 C0.13 7.7, 0.65 38.49, 0.78 46.19 M0 0 C0.13 7.7, 0.65 38.49, 0.78 46.19" stroke="#1e1e1e" stroke-width="1" fill="none"></path></g><g transform="translate(483.651866040349 1649.022647516127) rotate(0 0.38944047381437485 23.095818189968668)"><path d="M0.78 46.19 L-5.79 32.71 L6.89 32.49 L0.78 46.19" stroke="none" stroke-width="0" fill="#1e1e1e" fill-rule="evenodd"></path><path d="M0.78 46.19 C-1.19 42.14, -3.17 38.09, -5.79 32.71 M0.78 46.19 C-0.58 43.41, -1.93 40.63, -5.79 32.71 M-5.79 32.71 C-1.99 32.64, 1.82 32.58, 6.89 32.49 M-5.79 32.71 C-2.47 32.65, 0.84 32.59, 6.89 32.49 M6.89 32.49 C5.18 36.33, 3.47 40.16, 0.78 46.19 M6.89 32.49 C5 36.73, 3.11 40.97, 0.78 46.19 M0.78 46.19 C0.78 46.19, 0.78 46.19, 0.78 46.19 M0.78 46.19 C0.78 46.19, 0.78 46.19, 0.78 46.19" stroke="#1e1e1e" stroke-width="1" fill="none"></path></g></g><mask></mask><g transform="translate(1001.4424751864017 344.1129651024138) rotate(0 230.099853515625 12.5)"><text x="230.099853515625" y="0" font-family="Virgil, Segoe UI Emoji" font-size="20px" fill="#1e1e1e" text-anchor="middle" style="white-space: pre;" direction="ltr" dominant-baseline="text-before-edge">SignalDerived { $args$: ['4!'], $func$: '@0' }</text></g><g mask="url(#mask-_YjhU8_HPKPjpmHeoL3zW)" stroke-linecap="round"><g transform="translate(1061.655981545271 256.00064685092923) rotate(0 52.78848956439515 38.36709953994006)"><path d="M0 0 C17.6 12.79, 87.98 63.95, 105.58 76.73 M0 0 C17.6 12.79, 87.98 63.95, 105.58 76.73" stroke="#1e1e1e" stroke-width="1" fill="none"></path></g><g transform="translate(1061.655981545271 256.00064685092923) rotate(0 52.78848956439515 38.36709953994006)"><path d="M105.58 76.73 L90.85 73.87 L98.31 63.61 L105.58 76.73" stroke="none" stroke-width="0" fill="#1e1e1e" fill-rule="evenodd"></path><path d="M105.58 76.73 C102.06 76.05, 98.55 75.37, 90.85 73.87 M105.58 76.73 C100.9 75.82, 96.22 74.91, 90.85 73.87 M90.85 73.87 C93.8 69.81, 96.75 65.76, 98.31 63.61 M90.85 73.87 C93.15 70.71, 95.44 67.56, 98.31 63.61 M98.31 63.61 C100.05 66.77, 101.8 69.92, 105.58 76.73 M98.31 63.61 C100.54 67.65, 102.78 71.68, 105.58 76.73 M105.58 76.73 C105.58 76.73, 105.58 76.73, 105.58 76.73 M105.58 76.73 C105.58 76.73, 105.58 76.73, 105.58 76.73" stroke="#1e1e1e" stroke-width="1" fill="none"></path></g></g><mask id="mask-_YjhU8_HPKPjpmHeoL3zW"><rect x="0" y="0" fill="#fff" width="1267.2329606740614" height="432.73484593080934"></rect><rect x="1048.7345025427721" y="281.8677463908691" fill="#000" width="131.41993713378906" height="25" opacity="1"></rect></mask><g transform="translate(1048.7345025427721 281.86774639086923) rotate(0 65.70996856689408 12.500000000000057)"><text x="65.70996856689453" y="0" font-family="Virgil, Segoe UI Emoji" font-size="20px" fill="#1e1e1e" text-anchor="middle" style="white-space: pre;" direction="ltr" dominant-baseline="text-before-edge">"\u00114! @0"</text></g><g transform="translate(1011.2495637104757 486.3030867997462) rotate(0 70.09992980957031 25)"><text x="70.09992980957031" y="0" font-family="Virgil, Segoe UI Emoji" font-size="20px" fill="#2f9e44" text-anchor="middle" style="white-space: pre;" direction="ltr" dominant-baseline="text-before-edge">getObject('4!')</text><text x="70.09992980957031" y="25" font-family="Virgil, Segoe UI Emoji" font-size="20px" fill="#2f9e44" text-anchor="middle" style="white-space: pre;" direction="ltr" dominant-baseline="text-before-edge">cache hit</text></g><g transform="translate(1394.2591174205445 478.99582608952994) rotate(0 75.66992950439453 25)"><text x="75.66992950439453" y="0" font-family="Virgil, Segoe UI Emoji" font-size="20px" fill="#2f9e44" text-anchor="middle" style="white-space: pre;" direction="ltr" dominant-baseline="text-before-edge">getObject('@0')</text><text x="75.66992950439453" y="25" font-family="Virgil, Segoe UI Emoji" font-size="20px" fill="#2f9e44" text-anchor="middle" style="white-space: pre;" direction="ltr" dominant-baseline="text-before-edge">cache hit</text></g><g transform="translate(1183.2219800453731 418.7312354144468) rotate(0 99.22989654541016 12.5)"><text x="0" y="0" font-family="Virgil, Segoe UI Emoji" font-size="20px" fill="#1e1e1e" text-anchor="start" style="white-space: pre;" direction="ltr" dominant-baseline="text-before-edge">reviveNestedObjects</text></g><g stroke-linecap="round"><g transform="translate(1226.2959538438981 376.39016996304485) rotate(0 -70.50481362973096 48.86371412073305)"><path d="M0 0 C-23.5 16.29, -117.51 81.44, -141.01 97.73 M0 0 C-23.5 16.29, -117.51 81.44, -141.01 97.73" stroke="#1e1e1e" stroke-width="1" fill="none"></path></g><g transform="translate(1226.2959538438981 376.39016996304485) rotate(0 -70.50481362973096 48.86371412073305)"><path d="M-141.01 97.73 L-133.45 84.77 L-126.23 95.19 L-141.01 97.73" stroke="none" stroke-width="0" fill="#1e1e1e" fill-rule="evenodd"></path><path d="M-141.01 97.73 C-138.18 92.88, -135.35 88.04, -133.45 84.77 M-141.01 97.73 C-138.18 92.88, -135.35 88.03, -133.45 84.77 M-133.45 84.77 C-131.95 86.93, -130.45 89.09, -126.23 95.19 M-133.45 84.77 C-131.99 86.87, -130.53 88.98, -126.23 95.19 M-126.23 95.19 C-130.45 95.92, -134.68 96.64, -141.01 97.73 M-126.23 95.19 C-130.28 95.89, -134.34 96.58, -141.01 97.73 M-141.01 97.73 C-141.01 97.73, -141.01 97.73, -141.01 97.73 M-141.01 97.73 C-141.01 97.73, -141.01 97.73, -141.01 97.73" stroke="#1e1e1e" stroke-width="1" fill="none"></path></g></g><mask></mask><g stroke-linecap="round"><g transform="translate(1356.5996575189702 379.2581721489837) rotate(0 53.25525343038862 44.22520272061746)"><path d="M0 0 C17.75 14.74, 88.76 73.71, 106.51 88.45 M0 0 C17.75 14.74, 88.76 73.71, 106.51 88.45" stroke="#1e1e1e" stroke-width="1" fill="none"></path></g><g transform="translate(1356.5996575189702 379.2581721489837) rotate(0 53.25525343038862 44.22520272061746)"><path d="M106.51 88.45 L92 84.64 L100.1 74.89 L106.51 88.45" stroke="none" stroke-width="0" fill="#1e1e1e" fill-rule="evenodd"></path><path d="M106.51 88.45 C101.19 87.05, 95.88 85.66, 92 84.64 M106.51 88.45 C101.14 87.04, 95.77 85.63, 92 84.64 M92 84.64 C94.45 81.7, 96.89 78.76, 100.1 74.89 M92 84.64 C94.55 81.58, 97.09 78.52, 100.1 74.89 M100.1 74.89 C102.48 79.92, 104.86 84.95, 106.51 88.45 M100.1 74.89 C102.16 79.24, 104.22 83.6, 106.51 88.45 M106.51 88.45 C106.51 88.45, 106.51 88.45, 106.51 88.45 M106.51 88.45 C106.51 88.45, 106.51 88.45, 106.51 88.45" stroke="#1e1e1e" stroke-width="1" fill="none"></path></g></g><mask></mask></svg>